SplineFontDB: 3.2
FontName: Purisa-Bold
FullName: Purisa Bold
FamilyName: Purisa
Weight: Bold
Copyright: Purisa, Thai handwriting outline font.\n\nCopyright (C) 2003, 2004 Poonlap Veerathanabutr <poonlap@linux.thai.net>
UComments: "2003-11-27: Created.+AAoACgAA-Acknowlegement:+AAoA-Hanwriting by Ms.Purisa Cholasueksa. +AAoA-Co-operated by Mr.Teeratep Sosakul.+AAoACgAA-2004-02-14:+AAoA-Modified most characters. Make numbers bigger."
Version: 004.004
ItalicAngle: 0
UnderlinePosition: -100
UnderlineWidth: 50
Ascent: 800
Descent: 200
InvalidEm: 0
LayerCount: 3
Layer: 0 0 "Back" 1
Layer: 1 0 "Fore" 0
Layer: 2 1 "Quad" 0
FSType: 0
OS2Version: 4
OS2_WeightWidthSlopeOnly: 0
OS2_UseTypoMetrics: 1
CreationTime: 1153666222
ModificationTime: 1588320510
PfmFamily: 65
TTFWeight: 700
TTFWidth: 5
LineGap: 0
VLineGap: 0
OS2TypoAscent: 1109
OS2TypoAOffset: 0
OS2TypoDescent: -503
OS2TypoDOffset: 0
OS2TypoLinegap: 0
OS2WinAscent: 0
OS2WinAOffset: 1
OS2WinDescent: 0
OS2WinDOffset: 1
HheadAscent: 0
HheadAOffset: 1
HheadDescent: 0
HheadDOffset: 1
OS2Vendor: 'PfEd'
Lookup: 4 8 1 "'liga' Standard Ligatures lookup 2" { "'liga' Standard Ligatures lookup 2 subtable"  } ['liga' ('latn' <'dflt' > ) ]
Lookup: 6 0 0 "'ccmp' Thai Tone Tilde Reordering" { "'ccmp' Thai Tone Tilde Reordering"  } ['ccmp' ('DFLT' <'dflt' > 'latn' <'dflt' > 'thai' <'KUY ' 'MLY ' 'PAL ' 'SAN ' 'THA ' 'dflt' > ) ]
Lookup: 6 0 0 "'ccmp' Thai Tone Macron Reordering" { "'ccmp' Thai Tone Macron Reordering"  } ['ccmp' ('DFLT' <'dflt' > 'latn' <'dflt' > 'thai' <'KUY ' 'MLY ' 'PAL ' 'SAN ' 'THA ' 'dflt' > ) ]
Lookup: 6 0 0 "'ccmp' Thai Below Vowel Macron Reordering" { "'ccmp' Thai Below Vowel Macron Reordering"  } ['ccmp' ('DFLT' <'dflt' > 'latn' <'dflt' > 'thai' <'KUY ' 'MLY ' 'PAL ' 'SAN ' 'THA ' 'dflt' > ) ]
Lookup: 4 0 0 "'ccmp' Patani Malay Ligatures" { "'ccmp' Patani Malay Ligatures"  } ['ccmp' ('DFLT' <'dflt' > 'thai' <'KUY ' 'MLY ' 'PAL ' 'SAN ' 'THA ' 'dflt' > ) ]

StartChar: uni0E34
Encoding: 3636 3636 0
Width: 0
Flags: W
HStem: 566 76<-356.19 -151.661> 713 66<-327.682 -206.809>
AnchorPoint: "AboveMark" -97 560 mark 0
AnchorPoint: "AboveMark" -97 780 basemark 0
AnchorPoint: "AboveBase" -62 560 mark 0
LayerCount: 3
Back
SplineSet
-465 621 m 0
 -465 655 -388 766 -255 766 c 0
 -205 766 -131 735 -127 713 c 0
 -125 704 -116 688 -106 676 c 0
 -91 659 -65 591 -65 572 c 0
 -65 569 -74 566 -85 566 c 0
 -96 566 -105 570 -105 575 c 0
 -105 580 -151 584 -223 584 c 0
 -437 585 -465 599 -465 621 c 0
-131 619 m 0
 -129 619 -128 619 -128 621 c 0
 -128 634 -193 704 -217 714 c 0
 -236 722 -253 726 -269 726 c 0
 -299 726 -327 712 -362 682 c 2
 -411 639 l 1
 -377 633 l 2
 -364 630 -347 629 -333 629 c 0
 -312 629 -317 631 -292 631 c 0
 -239 631 -157 619 -131 619 c 0
EndSplineSet
Fore
SplineSet
-52 572 m 1
 -53 570 -53 553 -84 553 c 0
 -98 553 -110 558 -115 566 c 1
 -171 578 -397 563 -457 591 c 0
 -471 597 -478 607 -478 621 c 0
 -478 662 -395 779 -255 779 c 0
 -192 779 -120 745 -114 716 c 0
 -113 711 -107 697 -96 684 c 0
 -79 664 -52 595 -52 572 c 1
-382 647 m 1
 -372 645 -358 642 -333 642 c 0
 -314 642 -318 644 -292 644 c 0
 -248 644 -185 636 -150 633 c 1
 -198 695 -232 713 -269 713 c 0
 -295 713 -319 701 -353 672 c 2
 -382 647 l 1
EndSplineSet
Validated: 1
Layer: 2
SplineSet
-52 572 m 1,0,1
 -52.5 570 l 2,2,3
 -53 568 -53 568 -54 566 c 128,-1,4
 -55 564 -55 564 -57 561.5 c 128,-1,5
 -59 559 -59 559 -62 557.5 c 128,-1,6
 -65 556 -65 556 -71 554.5 c 128,-1,7
 -77 553 -77 553 -84 553 c 0,8,9
 -107 553 -107 553 -115 566 c 1,10,11
 -133 570 -133 570 -278 572.5 c 128,-1,12
 -423 575 -423 575 -457 591 c 0,13,14
 -478 600 -478 600 -478 621 c 0,15,16
 -478 662 -478 662 -413 720.5 c 128,-1,17
 -348 779 -348 779 -255 779 c 0,18,19
 -208 779 -208 779 -163.5 758.5 c 128,-1,20
 -119 738 -119 738 -114 716 c 0,21,22
 -111 702 -111 702 -96 684 c 0,23,24
 -83 669 -83 669 -67.5 629 c 128,-1,25
 -52 589 -52 589 -52 572 c 1,0,1
-382 647 m 1,26,27
 -357 642 -357 642 -333 642 c 0,28,29
 -324 642 -324 642 -315 643 c 128,-1,30
 -306 644 -306 644 -292 644 c 128,-1,31
 -278 644 -278 644 -150 633 c 1,32,33
 -212 713 -212 713 -269 713 c 0,34,35
 -305 713 -305 713 -353 672 c 2,36,-1
 -382 647 l 1,26,27
EndSplineSet
EndChar

StartChar: uni0E35
Encoding: 3637 3637 1
Width: 0
Flags: W
HStem: 628 83<-347.592 -274> 718 65<-350.396 -276.172>
AnchorPoint: "AboveMark" -83 560 mark 0
AnchorPoint: "AboveMark" -83 780 basemark 0
AnchorPoint: "AboveBase" -62 560 mark 0
LayerCount: 3
Back
SplineSet
-122 681 m 0xb0
 -117 681 -113 693 -113 738 c 0
 -113 763 -110 791 -105 799 c 0
 -100 808 -87 814 -74 814 c 2
 -52 814 l 1
 -58 725 l 2
 -65 637 -69 591 -94 591 c 0xa8
 -117 591 -172 641 -172 641 c 1
 -173 641 -249 644 -342 647 c 0x68
 -495 651 -523 653 -523 676 c 0
 -523 694 -477 731 -467 731 c 0
 -445 731 -466 748 -376 764 c 0
 -352 768 -330 770 -310 770 c 0
 -186 770 -153 681 -122 681 c 0xb0
-222 702 m 0
 -222 707 -270 731 -317 731 c 0
 -361 731 -355 714 -394 714 c 0
 -408 714 -419 711 -419 706 c 0
 -419 701 -380 698 -321 698 c 0x70
 -266 698 -222 700 -222 702 c 0
EndSplineSet
Fore
SplineSet
-128 697 m 1
 -120 750 -142 827 -74 827 c 2
 -38 827 l 1
 -45 724 l 1
 -52 639 -55 578 -94 578 c 0
 -118 578 -155 609 -177 628 c 1
 -493 639 -536 631 -536 676 c 1
 -532 709 -482 744 -467 744 c 0
 -457 744 -462 762 -378 777 c 0
 -354 781 -333 783 -314 783 c 0
 -195 783 -156 714 -128 697 c 1
-351 711 m 1
 -340 711 -329 711 -318 711 c 0
 -300 711 -284 712 -274 712 c 1
 -287 715 -301 718 -317 718 c 0
 -334 718 -343 715 -351 711 c 1
EndSplineSet
Validated: 1
Layer: 2
SplineSet
-128 697 m 1,0,1
 -126 710 -126 710 -125.5 738.5 c 128,-1,2
 -125 767 -125 767 -123.5 783 c 128,-1,3
 -122 799 -122 799 -110 813 c 128,-1,4
 -98 827 -98 827 -74 827 c 2,5,-1
 -38 827 l 1,6,-1
 -45 724 l 2,7,8
 -53.4451791821 621.451395646 -53.4451791821 621.451395646 -64.603455633 598.752766267 c 0,9,10
 -74.8051774759 578 -74.8051774759 578 -94 578 c 0,11,12
 -119 578 -119 578 -177 628 c 1,13,14
 -230.825729952 629.873680473 -230.825729952 629.873680473 -315.851503837 632.323079462 c 0,15,16
 -487.469571871 637.267005323 -487.469571871 637.267005323 -514.025593071 646.291968285 c 0,17,18
 -535.533398751 655.066530981 -535.533398751 655.066530981 -536 676 c 0,19,20
 -533 698 -533 698 -507 721 c 128,-1,21
 -481 744 -481 744 -467 744 c 0,22,23
 -464 744 -464 744 -459.5 749 c 128,-1,24
 -455 754 -455 754 -435 762 c 128,-1,25
 -415 770 -415 770 -378 777 c 0,26,27
 -342 783 -342 783 -314 783 c 0,28,29
 -273 783 -273 783 -238.5 771.5 c 128,-1,30
 -204 760 -204 760 -187 747 c 128,-1,31
 -170 734 -170 734 -152 717.5 c 128,-1,32
 -134 701 -134 701 -128 697 c 1,0,1
-351 711 m 1,33,-1
 -318 711 l 2,34,35
 -308 711 -308 711 -293 711.5 c 128,-1,36
 -278 712 -278 712 -274 712 c 1,37,38
 -300 718 -300 718 -317 718 c 0,39,40
 -337 718 -337 718 -351 711 c 1,33,-1
EndSplineSet
EndChar

StartChar: uni0E36
Encoding: 3638 3638 2
Width: 0
Flags: W
HStem: 533 21G<-266.5 -232.5> 578 60<-487 -309.01> 695 66<-452.223 -320.588>
AnchorPoint: "AboveMark" -148 560 mark 0
AnchorPoint: "AboveMark" -148 780 basemark 0
AnchorPoint: "AboveBase" -92 560 mark 0
LayerCount: 3
Back
SplineSet
-136 708 m 0x9c
 -109 708 -89 704 -89 665 c 0
 -89 635 -129 571 -161 571 c 0xdc
 -173 571 -188 590 -207 590 c 0
 -225 590 -220 546 -248 546 c 0
 -258 546 -268 555 -271 573 c 0
 -273 591 -275 596 -294 596 c 0
 -310 596 -326 593 -453 591 c 2
 -553 589 l 1xbc
 -556 613 l 2
 -558 642 -545 648 -529 673 c 0
 -525 681 -499 701 -472 718 c 0
 -430 743 -415 748 -380 748 c 0
 -327 748 -293 728 -266 682 c 0
 -255 663 -243 647 -239 647 c 0
 -221 647 -178 708 -136 708 c 0x9c
-508 631 m 0
 -508 626 -496 625 -489 625 c 0xb8
 -472 625 -429 628 -385 632 c 0
 -320 640 -294 644 -294 657 c 0
 -294 664 -302 673 -316 687 c 0
 -333 703 -343 708 -366 708 c 0
 -434 708 -446 700 -480 664 c 0
 -499 644 -508 635 -508 631 c 0
-156 617 m 0xda
 -145 617 -129 651 -129 658 c 0
 -129 663 -134 663 -144 663 c 0
 -160 663 -170 654 -170 641 c 0
 -170 632 -164 617 -156 617 c 0xda
EndSplineSet
Fore
SplineSet
-160 558 m 0
 -178 558 -192 576 -206 577 c 1
 -211 569 -217 533 -248 533 c 1
 -285 537 -283 575 -286 582 c 0
 -287 582 -289 583 -294 583 c 0
 -310 583 -326 581 -453 578 c 2
 -564 576 l 1
 -569 612 l 1
 -569 619 l 2
 -569 633 -569 645 -538 684 c 0
 -528 697 -499 717 -479 729 c 0
 -433 757 -416 761 -380 761 c 0
 -278 761 -259 687 -236 661 c 1
 -220 671 -178 721 -136 721 c 0
 -106 721 -76 716 -76 665 c 0
 -76 626 -121 558 -160 558 c 0
-155 633 m 1
 -151 637 -148 645 -145 650 c 1
 -154 650 -157 646 -157 641 c 0
 -157 638 -156 635 -155 633 c 1
-308 659 m 1
 -310 662 -314 667 -325 678 c 0
 -341 694 -349 695 -366 695 c 0
 -429 695 -438 690 -471 655 c 2
 -487 638 l 1
 -448 638 -328 649 -308 659 c 1
EndSplineSet
Validated: 1
Layer: 2
SplineSet
-160 558 m 0,0,1
 -170 558 -170 558 -185 567.5 c 128,-1,2
 -200 577 -200 577 -206 577 c 0,3,4
 -207 576 -207 576 -210.5 567 c 128,-1,5
 -214 558 -214 558 -217.5 551.5 c 128,-1,6
 -221 545 -221 545 -229 539 c 128,-1,7
 -237 533 -237 533 -248 533 c 0,8,9
 -261 534 -261 534 -269 541.5 c 128,-1,10
 -277 549 -277 549 -279.5 556 c 128,-1,11
 -282 563 -282 563 -284 572 c 128,-1,12
 -286 581 -286 581 -286 582 c 2,13,-1
 -288.5 582.5 l 2,14,15
 -291 583 -291 583 -294 583 c 0,16,17
 -300 583 -300 583 -312 582.5 c 128,-1,18
 -324 582 -324 582 -361 580.5 c 128,-1,19
 -398 579 -398 579 -453 578 c 2,20,-1
 -564 576 l 1,21,-1
 -569 612 l 1,22,-1
 -569 619 l 2,23,24
 -569 645 -569 645 -538 684 c 0,25,26
 -524 702 -524 702 -479 729 c 0,27,28
 -446 749 -446 749 -427 755 c 128,-1,29
 -408 761 -408 761 -380 761 c 0,30,31
 -345 761 -345 761 -317.5 748 c 128,-1,32
 -290 735 -290 735 -278.5 721.5 c 128,-1,33
 -267 708 -267 708 -253.5 687 c 128,-1,34
 -240 666 -240 666 -236 661 c 0,35,36
 -233 663 -233 663 -214.5 680 c 128,-1,37
 -196 697 -196 697 -175.5 709 c 128,-1,38
 -155 721 -155 721 -136 721 c 0,39,40
 -118 721 -118 721 -106.5 718 c 128,-1,41
 -95 715 -95 715 -85.5 702 c 128,-1,42
 -76 689 -76 689 -76 665 c 0,43,44
 -76 634 -76 634 -104 596 c 128,-1,45
 -132 558 -132 558 -160 558 c 0,0,1
-155 633 m 1,46,47
 -153 635 -153 635 -151.5 638 c 128,-1,48
 -150 641 -150 641 -148 644.5 c 128,-1,49
 -146 648 -146 648 -145 650 c 1,50,51
 -157 650 -157 650 -157 641 c 0,52,53
 -157 637 -157 637 -155 633 c 1,46,47
-308 659 m 1,54,55
 -312 665 -312 665 -325 678 c 0,56,57
 -342 695 -342 695 -366 695 c 0,58,59
 -412 695 -412 695 -429 688.5 c 128,-1,60
 -446 682 -446 682 -471 655 c 2,61,-1
 -487 638 l 1,62,63
 -453 638 -453 638 -387.5 645 c 128,-1,64
 -322 652 -322 652 -308 659 c 1,54,55
EndSplineSet
EndChar

StartChar: uni0E37
Encoding: 3639 3639 3
Width: 0
Flags: W
HStem: 586 71<-482.157 -309.378> 711 68<-456.36 -333.94>
VStem: -264 96<735.351 848.439> -145 98<648.686 846.419>
AnchorPoint: "AboveMark" -156 560 mark 0
AnchorPoint: "AboveMark" -156 780 basemark 0
AnchorPoint: "AboveBase" -62 560 mark 0
LayerCount: 3
Back
SplineSet
-132 776 m 0x89
 -132 837 -112 851 -102 851 c 0
 -96 851 -88 846 -78 837 c 0
 -66 826 -61 803 -61 748 c 0
 -61 680 -73 646 -95 646 c 0
 -98 646 -101 647 -105 648 c 0
 -120 653 -132 722 -132 776 c 0x89
-551 647 m 0
 -551 695 -492 766 -392 766 c 0x5d
 -350 766 -310 753 -279 727 c 2
 -256 709 l 1
 -251 772 l 2
 -247 810 -239 839 -231 843 c 0
 -222 848 -216 851 -211 851 c 0
 -206 851 -181 843 -181 810 c 0x8b
 -181 777 -200 687 -200 646 c 0
 -200 630 -203 609 -206 601 c 0
 -210 592 -221 587 -232 587 c 0x8d
 -265 587 -256 614 -285 614 c 0x2d
 -304 614 -363 599 -433 599 c 0x4d
 -492 599 -551 608 -551 647 c 0
-296 661 m 0
 -296 686 -353 724 -397 724 c 0
 -442 724 -496 683 -496 666 c 0
 -496 653 -487 644 -338 644 c 0
 -300 644 -296 648 -296 661 c 0
EndSplineSet
Fore
SplineSet
-397 711 m 0
 -433 711 -478 679 -483 667 c 1
 -471 661 -405 657 -358 657 c 0
 -333 657 -313 657 -309 659 c 1
 -309 674 -350 711 -397 711 c 0
-281 601 m 1
 -306 601 -354 586 -433 586 c 0
 -481 586 -564 591 -564 647 c 0
 -564 705 -497 779 -392 779 c 0
 -329 779 -294 755 -267 734 c 1
 -264 773 l 1
 -259 813 -253 864 -211 864 c 0
 -202 864 -168 853 -168 810 c 0
 -168 773 -187 687 -187 646 c 0
 -187 601 -198 574 -230 574 c 0
 -269 574 -267 599 -281 601 c 1
-47 751 m 0
 -47 693 -57 633 -95 633 c 0
 -102 633 -112 635 -118 641 c 0
 -138 662 -145 742 -145 773 c 0
 -145 835 -127 863 -104 863 c 0
 -93 863 -81 858 -69 847 c 0
 -54 833 -47 792 -47 751 c 0
EndSplineSet
Validated: 1
Layer: 2
SplineSet
-397 711 m 0,0,1
 -421 711 -421 711 -449.5 694.5 c 128,-1,2
 -478 678 -478 678 -483 667 c 1,3,4
 -463 657 -463 657 -358 657 c 0,5,6
 -313 657 -313 657 -309 659 c 1,7,8
 -309 672 -309 672 -337 691.5 c 128,-1,9
 -365 711 -365 711 -397 711 c 0,0,1
-281 601 m 0,10,11
 -287 601 -287 601 -337 593.5 c 128,-1,12
 -387 586 -387 586 -433 586 c 0,13,14
 -564 586 -564 586 -564 647 c 0,15,16
 -564 695 -564 695 -515 737 c 128,-1,17
 -466 779 -466 779 -392 779 c 0,18,19
 -325 779 -325 779 -267 734 c 1,20,-1
 -264 773 l 2,21,22
 -261 794 -261 794 -259 805 c 128,-1,23
 -257 816 -257 816 -251.5 832.5 c 128,-1,24
 -246 849 -246 849 -236 856.5 c 128,-1,25
 -226 864 -226 864 -211 864 c 0,26,27
 -199 864 -199 864 -183.5 851 c 128,-1,28
 -168 838 -168 838 -168 810 c 0,29,30
 -168 792 -168 792 -177.5 729.5 c 128,-1,31
 -187 667 -187 667 -187 646 c 0,32,33
 -187 574 -187 574 -230 574 c 0,34,35
 -253 574 -253 574 -265.5 587.5 c 128,-1,36
 -278 601 -278 601 -281 601 c 0,10,11
-47 751 m 0,37,38
 -47 633 -47 633 -95 633 c 0,39,40
 -110 633 -110 633 -118 641 c 0,41,42
 -131 655 -131 655 -138 698 c 128,-1,43
 -145 741 -145 741 -145 773 c 0,44,45
 -145 818 -145 818 -133.5 840.5 c 128,-1,46
 -122 863 -122 863 -104 863 c 128,-1,47
 -86 863 -86 863 -69 847 c 0,48,49
 -47 826 -47 826 -47 751 c 0,37,38
EndSplineSet
EndChar

StartChar: uni0E38
Encoding: 3640 3640 4
Width: 0
Flags: W
HStem: -146 52<-273 -241.004> -81 56<-271.913 -241.114>
VStem: -233 64<-293.626 -145.63>
AnchorPoint: "BelowMark" -182 -38 mark 0
AnchorPoint: "BelowMark" -182 -327 basemark 0
AnchorPoint: "BelowBase" -182 -38 mark 0
LayerCount: 3
Back
SplineSet
-323 -106 m 0
 -323 -87 -283 -38 -246 -38 c 0
 -227 -38 -210 -49 -199 -71 c 0
 -191 -88 -188 -113 -186 -191 c 2
 -183 -289 l 1
 -197 -285 l 2
 -218 -276 -220 -279 -220 -200 c 2
 -220 -132 l 1
 -267 -133 l 2
 -294 -133 -323 -139 -323 -106 c 0
-276 -107 m 0
 -228 -107 -228 -102 -228 -87 c 0
 -228 -74 -229 -68 -254 -68 c 0
 -282 -68 -289 -102 -289 -102 c 1
 -289 -106 -285 -107 -276 -107 c 0
EndSplineSet
Fore
SplineSet
-336 -108 m 0
 -336 -76 -286 -25 -246 -25 c 0
 -230 -25 -203 -31 -187 -65 c 0
 -177 -86 -175 -117 -173 -191 c 2
 -169 -306 l 1
 -201 -297 l 2
 -230 -289 -233 -285 -233 -200 c 2
 -233 -145 l 1
 -267 -146 l 2
 -274 -146 -281 -146 -288 -146 c 0
 -330 -146 -336 -121 -336 -108 c 0
-241 -86 m 0
 -241 -83 -242 -81 -251 -81 c 0
 -258 -81 -267 -83 -273 -94 c 1
 -259 -94 l 2
 -246 -94 -241 -93 -241 -86 c 0
EndSplineSet
Validated: 1
Layer: 2
SplineSet
-336 -108 m 0,0,1
 -336 -83 -336 -83 -305.5 -54 c 128,-1,2
 -275 -25 -275 -25 -246 -25 c 0,3,4
 -206 -25 -206 -25 -187 -65 c 0,5,6
 -176 -89 -176 -89 -173 -191 c 2,7,-1
 -169 -306 l 1,8,-1
 -201 -297 l 2,9,10
 -223 -291 -223 -291 -228 -277 c 128,-1,11
 -233 -263 -233 -263 -233 -200 c 2,12,-1
 -233 -145 l 1,13,-1
 -267 -146 l 1,14,-1
 -288 -146 l 2,15,16
 -336 -146 -336 -146 -336 -108 c 0,0,1
-241 -86 m 0,17,18
 -241 -81 -241 -81 -251 -81 c 0,19,20
 -266 -81 -266 -81 -273 -94 c 1,21,-1
 -259 -94 l 2,22,23
 -241 -94 -241 -94 -241 -86 c 0,17,18
EndSplineSet
Substitution2: "Thai Sara U Macron Reordering" macronbelowcmb
Substitution2: "Thai Sara U Phinthu Reordering" uni0E3A
Substitution2: "Thai Sara U Mai Ek Reordering" uni0E48.low
Substitution2: "Thai Sara U Mai Tho Reordering" uni0E49.low
Substitution2: "Thai Sara U Mai Tri Reordering" uni0E4A.low
Substitution2: "Thai Sara U Mai Chattawa Reordering" uni0E4B.low
Substitution2: "Thai Sara U Thanthakhat Reordering" uni0E4C.low
Substitution2: "Thai Sara U Nikhahit Reordering" uni0E4D
EndChar

StartChar: uni0E39
Encoding: 3641 3641 5
Width: 0
Flags: W
HStem: -137 43<-339 -293.099> -82 44<-319.905 -293.101>
VStem: -220 68<-126.792 -46.5183>
AnchorPoint: "BelowMark" -182 -38 mark 0
AnchorPoint: "BelowMark" -182 -280 basemark 0
AnchorPoint: "BelowBase" -182 -38 mark 0
LayerCount: 3
Back
SplineSet
-369 -103 m 0
 -369 -86 -328 -51 -296 -51 c 0
 -276 -51 -247 -70 -247 -84 c 0
 -247 -88 -244 -92 -241 -92 c 0
 -238 -92 -235 -99 -235 -106 c 0
 -235 -114 -232 -135 -228 -152 c 2
 -221 -183 l 1
 -214 -165 l 2
 -201 -120 -204 -53 -183 -53 c 0
 -176 -53 -165 -59 -165 -81 c 0
 -165 -117 -195 -242 -220 -242 c 0
 -232 -242 -247 -222 -247 -203 c 0
 -247 -177 -264 -115 -272 -115 c 0
 -279 -115 -299 -125 -318 -125 c 0
 -338 -125 -369 -116 -369 -103 c 0
-280 -88 m 0
 -280 -81 -290 -69 -301 -69 c 0
 -310 -69 -334 -78 -334 -91 c 0
 -334 -99 -323 -107 -309 -107 c 0
 -296 -107 -280 -100 -280 -88 c 0
EndSplineSet
Fore
SplineSet
-382 -103 m 0
 -382 -77 -334 -38 -296 -38 c 0
 -265 -38 -238 -60 -234 -81 c 1
 -226 -84 -222 -95 -222 -106 c 0
 -222 -110 -221 -119 -220 -127 c 1
 -214 -90 -211 -40 -184 -40 c 0
 -158 -40 -152 -66 -152 -80 c 0
 -152 -94 -174 -255 -221 -255 c 0
 -227 -255 -234 -253 -241 -246 c 0
 -271 -219 -251 -189 -277 -129 c 1
 -293 -134 -308 -137 -322 -137 c 0
 -356 -137 -382 -123 -382 -103 c 0
-320 -91 m 1
 -317 -93 -314 -94 -310 -94 c 0
 -302 -94 -294 -90 -293 -88 c 1
 -295 -83 -299 -82 -303 -82 c 0
 -310 -82 -318 -89 -320 -91 c 1
EndSplineSet
Validated: 1
Layer: 2
SplineSet
-382 -103 m 0,0,1
 -382 -83 -382 -83 -353 -60.5 c 128,-1,2
 -324 -38 -324 -38 -296 -38 c 0,3,4
 -274 -38 -274 -38 -255.5 -51.5 c 128,-1,5
 -237 -65 -237 -65 -234 -81 c 1,6,7
 -222 -86 -222 -86 -222 -106 c 0,8,9
 -222 -111 -222 -111 -220 -127 c 1,10,11
 -219 -122 -219 -122 -217.5 -111 c 128,-1,12
 -216 -100 -216 -100 -215 -93.5 c 128,-1,13
 -214 -87 -214 -87 -212 -77.5 c 128,-1,14
 -210 -68 -210 -68 -207.5 -62.5 c 128,-1,15
 -205 -57 -205 -57 -202 -51 c 128,-1,16
 -199 -45 -199 -45 -194.5 -42.5 c 128,-1,17
 -190 -40 -190 -40 -184 -40 c 0,18,19
 -167 -40 -167 -40 -159.5 -53 c 128,-1,20
 -152 -66 -152 -66 -152 -80 c 0,21,22
 -152 -110 -152 -110 -171.5 -182.5 c 128,-1,23
 -191 -255 -191 -255 -221 -255 c 0,24,25
 -232 -255 -232 -255 -241 -246 c 0,26,27
 -257 -232 -257 -232 -261 -194 c 128,-1,28
 -265 -156 -265 -156 -277 -129 c 1,29,30
 -303 -137 -303 -137 -322 -137 c 0,31,32
 -348 -137 -348 -137 -365 -127.5 c 128,-1,33
 -382 -118 -382 -118 -382 -103 c 0,0,1
-320 -91 m 1,34,35
 -316 -94 -316 -94 -310 -94 c 0,36,37
 -296 -94 -296 -94 -293 -88 c 1,38,39
 -295 -82 -295 -82 -303 -82 c 128,-1,40
 -311 -82 -311 -82 -320 -91 c 1,34,35
EndSplineSet
Substitution2: "Thai Sara UU Macron Reordering" macronbelowcmb
Substitution2: "Thai Sara UU Phinthu Reordering" uni0E3A
Substitution2: "Thai Sara UU Mai Ek Reordering" uni0E48.low
Substitution2: "Thai Sara UU Mai Tho Reordering" uni0E49.low
Substitution2: "Thai Sara UU Mai Tri Reordering" uni0E4A.low
Substitution2: "Thai Sara UU Mai Chattawa Reordering" uni0E4B.low
Substitution2: "Thai Sara UU Thanthakhat Reordering" uni0E4C.low
Substitution2: "Thai Sara UU Nikhahit Reordering" uni0E4D
EndChar

StartChar: uni0E3A
Encoding: 3642 3642 6
Width: 0
Flags: W
HStem: -212 171<-306.515 -225.139>
VStem: -354 171<-169.226 -89.375>
AnchorPoint: "BelowMark" -182 -38 mark 0
AnchorPoint: "BelowMark" -182 -237 basemark 0
AnchorPoint: "BelowBase" -182 -38 mark 0
LayerCount: 3
Back
SplineSet
-341 -151 m 0
 -341 -107 -300 -54 -245 -54 c 0
 -212 -54 -196 -78 -196 -107 c 0
 -196 -148 -228 -199 -289 -199 c 0
 -325 -199 -341 -178 -341 -151 c 0
EndSplineSet
Fore
SplineSet
-245 -41 m 0
 -208 -41 -183 -67 -183 -107 c 0
 -183 -154 -220 -212 -289 -212 c 0
 -334 -212 -354 -183 -354 -151 c 0
 -354 -100 -308 -41 -245 -41 c 0
EndSplineSet
Validated: 1
Layer: 2
SplineSet
-245 -41 m 0,0,1
 -217 -41 -217 -41 -200 -59 c 128,-1,2
 -183 -77 -183 -77 -183 -107 c 0,3,4
 -183 -146 -183 -146 -212 -179 c 128,-1,5
 -241 -212 -241 -212 -289 -212 c 0,6,7
 -321 -212 -321 -212 -337.5 -194.5 c 128,-1,8
 -354 -177 -354 -177 -354 -151 c 0,9,10
 -354 -111 -354 -111 -322 -76 c 128,-1,11
 -290 -41 -290 -41 -245 -41 c 0,0,1
EndSplineSet
Substitution2: "Thai Phinthu Macron Reordering" macronbelowcmb
Substitution2: "Thai Sara UU Phinthu Reordering" uni0E39
Substitution2: "Thai Sara U Phinthu Reordering" uni0E38
Substitution2: "Thai Phinthu Maitaikhu Reordering" uni0E47
Substitution2: "Thai Phinthu Mai Ek Reordering" uni0E48.low
Substitution2: "Thai Phinthu Mai Tho Reordering" uni0E49.low
Substitution2: "Thai Phinthu Mai Tri Reordering" uni0E4A.low
Substitution2: "Thai Phinthu Mai Chattawa Reordering" uni0E4B.low
Substitution2: "Thai Phinthu Thanthakhat Reordering" uni0E4C.low
Substitution2: "Thai Phinthu Nikhahit Reordering" uni0E4D
EndChar

StartChar: uni0E48
Encoding: 3656 3656 7
Width: 0
Flags: W
HStem: 830 153<-133 -77.5776>
VStem: -141 65<833.317 963.875> -133 57<849.125 983>
AnchorPoint: "AboveMark" -108 1038 basemark 0
AnchorPoint: "AboveMark" -108 780 mark 0
LayerCount: 3
Back
SplineSet
-121 970 m 1
 -89 970 l 1
 -89 877 l 2
 -89 873 -88 868 -88 863 c 0
 -88 853 -93 844 -127 843 c 1
 -121 970 l 1
EndSplineSet
Fore
SplineSet
-133 983 m 1xa0
 -76 983 l 1xa0
 -76 866 l 2
 -76 847 -80 830 -127 830 c 2
 -141 830 l 1xc0
 -133 983 l 1xa0
EndSplineSet
Validated: 1
Layer: 2
SplineSet
-133 983 m 1,0,-1
 -76 983 l 1,1,-1
 -76 866 l 2,2,3
 -76 848 -76 848 -85.5 839 c 128,-1,4
 -95 830 -95 830 -127 830 c 2,5,-1
 -141 830 l 1,6,-1
 -133 983 l 1,0,-1
EndSplineSet
Substitution2: "Thai Mai Ek Macron Reordering" macronbelowcmb
Substitution2: "Thai Mai Ek Tilde Reordering" tildecomb
MultipleSubs2: "Thai Tone Nikhahit Attachment" uni0E4D uni0E48
Substitution2: "Thai Tone Low Variant" uni0E48.low
Substitution2: "Thai Sara U Mai Ek Reordering" uni0E38
Substitution2: "Thai Sara UU Mai Ek Reordering" uni0E39
Substitution2: "Thai Phinthu Mai Ek Reordering" uni0E3A
EndChar

StartChar: uni0E49
Encoding: 3657 3657 8
Width: 0
Flags: W
HStem: 773 245
VStem: -183 108<942.938 993.32>
AnchorPoint: "AboveMark" -100 1038 basemark 0
AnchorPoint: "AboveMark" -100 780 mark 0
LayerCount: 3
Back
SplineSet
-88 945 m 0x70
 -88 911 -100 905 -100 898 c 2
 -100 897 l 1
 -97 897 -13 992 -11 996 c 0
 -7 1002 -0 1005 6 1005 c 0
 12 1005 18 1003 18 993 c 0
 18 968 -49 916 -49 906 c 0
 -49 902 -143 813 -156 813 c 0
 -166 813 -186 786 -200 786 c 0xb0
 -205 786 -212 788 -212 797 c 0
 -212 810 -197 834 -169 864 c 2
 -147 889 l 1
 -153 901 l 2
 -166 924 -170 927 -170 959 c 0
 -170 974 -168 989 -165 992 c 0
 -163 995 -151 997 -139 997 c 0
 -119 997 -116 996 -103 982 c 0
 -89 969 -88 966 -88 945 c 0x70
-115 947 m 0
 -115 955 -135 969 -139 969 c 0x70
 -141 969 -142 965 -142 959 c 0
 -142 946 -132 922 -126 922 c 0
 -122 922 -115 941 -115 947 c 0
EndSplineSet
Fore
SplineSet
-75 942 m 1
 -14 1010 -15 1018 6 1018 c 0
 26 1018 31 1003 31 993 c 1
 27 957 -26 920 -37 902 c 1
 -40 890 -135 802 -154 800 c 1
 -162 797 -181 773 -200 773 c 0
 -213 773 -225 780 -225 795 c 0
 -225 811 -213 836 -179 873 c 2
 -163 891 l 1
 -176 917 -183 919 -183 957 c 0
 -183 997 -179 1010 -139 1010 c 0
 -112 1010 -110 1007 -94 991 c 0
 -79 976 -75 975 -75 942 c 1
EndSplineSet
Validated: 1
Layer: 2
SplineSet
-75 942 m 1,0,1
 -62 956 -62 956 -49.5 971 c 128,-1,2
 -37 986 -37 986 -31.5 992.5 c 128,-1,3
 -26 999 -26 999 -20 1005.5 c 128,-1,4
 -14 1012 -14 1012 -10.5 1014 c 128,-1,5
 -7 1016 -7 1016 -3.5 1017 c 128,-1,6
 0 1018 0 1018 6 1018 c 0,7,8
 31 1018 31 1018 31 993 c 0,9,10
 29 971 29 971 -4 936.5 c 2,11,-1
 -37 902 l 1,12,13
 -39 892 -39 892 -90 846.5 c 128,-1,14
 -141 801 -141 801 -154 800 c 1,15,-1
 -171.5 786.5 l 2,16,17
 -189 773 -189 773 -200 773 c 0,18,19
 -225 773 -225 773 -225 795 c 0,20,21
 -225 823 -225 823 -179 873 c 2,22,-1
 -163 891 l 1,23,24
 -166 896 -166 896 -171.5 906 c 128,-1,25
 -177 916 -177 916 -178.5 920 c 128,-1,26
 -180 924 -180 924 -181.5 933.5 c 128,-1,27
 -183 943 -183 943 -183 957 c 0,28,29
 -183 989 -183 989 -175.5 999.5 c 128,-1,30
 -168 1010 -168 1010 -139 1010 c 0,31,32
 -120 1010 -120 1010 -113.5 1007 c 128,-1,33
 -107 1004 -107 1004 -94 991 c 0,34,35
 -93 990 -93 990 -90 987 c 128,-1,36
 -87 984 -87 984 -86.5 983.5 c 128,-1,37
 -86 983 -86 983 -83.5 980.5 c 128,-1,38
 -81 978 -81 978 -80.5 977 c 128,-1,39
 -80 976 -80 976 -78.5 973.5 c 128,-1,40
 -77 971 -77 971 -77 969 c 128,-1,41
 -77 967 -77 967 -76.5 964 c 128,-1,42
 -76 961 -76 961 -75.5 958 c 128,-1,43
 -75 955 -75 955 -75 951 c 128,-1,44
 -75 947 -75 947 -75 942 c 1,0,1
EndSplineSet
Substitution2: "Thai Mai Tho Macron Reordering" macronbelowcmb
Substitution2: "Thai Mai Tho Tilde Reordering" tildecomb
MultipleSubs2: "Thai Tone Nikhahit Attachment" uni0E4D uni0E49
Substitution2: "Thai Tone Low Variant" uni0E49.low
Substitution2: "Thai Sara U Mai Tho Reordering" uni0E38
Substitution2: "Thai Sara UU Mai Tho Reordering" uni0E39
Substitution2: "Thai Phinthu Mai Tho Reordering" uni0E3A
EndChar

StartChar: uni0E4B
Encoding: 3659 3659 9
Width: 0
Flags: W
HStem: 864 74<-206.913 -128.218> 884 55<-49 1>
VStem: -131 54<808 838> -124 58<939 1009.12>
AnchorPoint: "AboveMark" -103 1038 basemark 0
AnchorPoint: "AboveMark" -103 780 mark 0
LayerCount: 3
Back
SplineSet
-109 958 m 2x90
 -113 994 -111 997 -96 997 c 1x90
 -84 995 -80 985 -79 948 c 2
 -79 926 l 1
 -12 924 l 1
 -12 899 l 1
 -45 897 l 2x50
 -84 896 -83 911 -87 839 c 2
 -89 821 l 1
 -117 821 l 1xa0
 -116 841 l 2
 -115 867 -114 879 -113 886 c 2
 -110 898 l 1
 -133 895 l 2
 -172 892 -201 858 -203 891 c 0
 -205 903 -203 905 -185 914 c 0
 -173 920 -155 924 -136 925 c 2
 -106 927 l 1
 -109 958 l 2x90
EndSplineSet
Fore
SplineSet
-195 864 m 0xa0
 -213 864 -217 884 -217 898 c 0
 -217 922 -174 936 -137 938 c 2xa0
 -120 939 l 1
 -122 957 l 2
 -123 967 -124 974 -124 981 c 0
 -124 1007 -110 1010 -95 1010 c 0
 -74 1010 -66 992 -66 948 c 2
 -66 939 l 1
 1 937 l 1
 1 887 l 1
 -44 884 l 1
 -49 884 l 1x50
 -74 838 l 1
 -77 808 l 1
 -131 808 l 1
 -129 842 l 2
 -128 863 -128 875 -127 883 c 1
 -153 880 -178 864 -195 864 c 0xa0
EndSplineSet
Validated: 1
Layer: 2
SplineSet
-195 864 m 0,0,1
 -217 864 -217 864 -217 898 c 0,2,3
 -217 915 -217 915 -192.5 925.5 c 128,-1,4
 -168 936 -168 936 -137 938 c 2,5,-1
 -120 939 l 1,6,-1
 -122 957 l 2,7,8
 -124 977 -124 977 -124 981 c 0,9,10
 -124 999 -124 999 -116.5 1004.5 c 128,-1,11
 -109 1010 -109 1010 -95 1010 c 0,12,13
 -66 1010 -66 1010 -66 948 c 2,14,-1
 -66 939 l 1,15,-1
 1 937 l 1,16,-1
 1 887 l 1,17,-1
 -44 884 l 1,18,-1
 -49 884 l 1,19,-1
 -74 838 l 1,20,-1
 -77 808 l 1,21,-1
 -131 808 l 1,22,-1
 -129 842 l 2,23,24
 -127 882 -127 882 -127 883 c 1,25,26
 -140 881 -140 881 -163.5 872.5 c 128,-1,27
 -187 864 -187 864 -195 864 c 0,0,1
EndSplineSet
Substitution2: "Thai Mai Chattawa Macron Reordering" macronbelowcmb
Substitution2: "Thai Mai Chattawa Tilde Reordering" tildecomb
MultipleSubs2: "Thai Tone Nikhahit Attachment" uni0E4D uni0E4B
Substitution2: "Thai Tone Low Variant" uni0E4B.low
Substitution2: "Thai Sara U Mai Chattawa Reordering" uni0E38
Substitution2: "Thai Sara UU Mai Chattawa Reordering" uni0E39
Substitution2: "Thai Phinthu Mai Chattawa Reordering" uni0E3A
EndChar

StartChar: uni0E4C
Encoding: 3660 3660 10
Width: 0
Flags: W
HStem: 811 92<-132.504 -70.0972> 928 59<-129.832 -43.9576>
VStem: -200 142<833.844 891.602> -41 82<979.514 1034.01>
AnchorPoint: "AboveMark" -95 1038 basemark 0
AnchorPoint: "AboveMark" -95 780 mark 0
LayerCount: 3
Back
SplineSet
-131 824 m 0x86
 -153 824 -187 851 -187 879 c 0
 -187 914 -131 974 -95 974 c 0x18
 -76 974 -51 969 -43 963 c 0
 -41 961 -39 960 -38 960 c 0x28
 -29 960 -8 1033 1 1045 c 0
 5 1050 10 1052 14 1052 c 0x88
 21 1052 28 1047 28 1038 c 0
 28 1012 -14 911 -25 911 c 0x28
 -37 911 -53 941 -85 941 c 0x18
 -112 941 -148 914 -148 901 c 0
 -148 893 -137 888 -115 886 c 0
 -76 882 -71 879 -71 862 c 0
 -71 831 -113 824 -131 824 c 0x86
-127 855 m 0
 -127 853 -120 843 -109 843 c 0
 -101 843 -94 848 -94 855 c 0x42
 -94 862 -100 866 -108 866 c 0
 -117 866 -127 859 -127 855 c 0
EndSplineSet
Fore
SplineSet
-24 898 m 0
 -46 898 -57 928 -85 928 c 0
 -107 928 -127 911 -133 903 c 1
 -110 894 -58 906 -58 862 c 0
 -58 821 -107 811 -131 811 c 0
 -163 811 -200 846 -200 879 c 0
 -200 922 -138 987 -95 987 c 0
 -75 987 -53 982 -41 977 c 1
 -22 1016 -19 1065 14 1065 c 0
 36 1065 41 1047 41 1039 c 0
 41 1012 0 898 -24 898 c 0
EndSplineSet
Validated: 1
Layer: 2
SplineSet
-24 898 m 0,0,1
 -34 898 -34 898 -52 913 c 128,-1,2
 -70 928 -70 928 -85 928 c 0,3,4
 -114 928 -114 928 -133 903 c 1,5,6
 -127 901 -127 901 -105 899 c 128,-1,7
 -83 897 -83 897 -70.5 889.5 c 128,-1,8
 -58 882 -58 882 -58 862 c 0,9,10
 -58 835 -58 835 -82 823 c 128,-1,11
 -106 811 -106 811 -131 811 c 0,12,13
 -155 811 -155 811 -177.5 832.5 c 128,-1,14
 -200 854 -200 854 -200 879 c 0,15,16
 -200 911 -200 911 -163.5 949 c 128,-1,17
 -127 987 -127 987 -95 987 c 0,18,19
 -65 987 -65 987 -41 977 c 1,20,21
 -36 988 -36 988 -27 1015 c 128,-1,22
 -18 1042 -18 1042 -9.5 1053.5 c 128,-1,23
 -1 1065 -1 1065 14 1065 c 0,24,25
 28 1065 28 1065 34.5 1056.5 c 128,-1,26
 41 1048 41 1048 41 1039 c 0,27,28
 41 1015 41 1015 16.5 956.5 c 128,-1,29
 -8 898 -8 898 -24 898 c 0,0,1
EndSplineSet
Substitution2: "Thai Thanthakhat Macron Reordering" macronbelowcmb
MultipleSubs2: "Thai Tone Nikhahit Attachment" uni0E4D uni0E4C
Substitution2: "Thai Tone Low Variant" uni0E4C.low
Substitution2: "Thai Sara U Thanthakhat Reordering" uni0E38
Substitution2: "Thai Sara UU Thanthakhat Reordering" uni0E39
Substitution2: "Thai Phinthu Thanthakhat Reordering" uni0E3A
EndChar

StartChar: exclam
Encoding: 33 33 12
Width: 519
Flags: W
HStem: 6 130<223.76 297.244> 545 20G<216.5 240>
VStem: 188 144<12.1261 103.299>
LayerCount: 3
Back
SplineSet
274 2 m 0
 260 2 238 17 229 17 c 0
 217 17 201 36 201 50 c 0
 201 69 228 112 244 119 c 0
 250 122 258 123 267 123 c 0
 315 123 319 100 319 83 c 0
 319 60 304 2 274 2 c 0
212 534 m 0
 212 552 219 552 232 552 c 0
 247 552 278 546 309 544 c 2
 344 540 l 1
 341 503 l 2
 336 447 302 376 279 251 c 0
 276 233 270 224 262 224 c 0
 235 224 242 284 225 429 c 0
 223 440 222 455 222 468 c 0
 222 485 227 510 219 516 c 0
 215 518 212 526 212 534 c 0
EndSplineSet
Fore
SplineSet
211 499 m 0
 211 513 199 509 199 535 c 0
 199 536 199 537 199 538 c 0
 199 547 201 565 232 565 c 0
 248 565 279 559 310 557 c 1
 358 551 l 1
 354 502 l 2
 349 442 316 379 292 249 c 0
 287 222 274 211 261 211 c 0
 220 211 229 286 212 427 c 0
 210 439 209 454 209 468 c 0
 209 478 211 490 211 499 c 0
229 4 m 1
 205 7 188 32 188 50 c 0
 188 82 220 122 238 131 c 0
 248 136 261 136 267 136 c 0
 320 136 332 109 332 84 c 0
 332 46 310 -11 276 -11 c 0
 257 -11 242 6 234 6 c 0
 232 6 231 6 229 4 c 1
EndSplineSet
Validated: 1
Layer: 2
SplineSet
211 499 m 0,0,1
 211 504 211 504 205 512 c 128,-1,2
 199 520 199 520 199 535 c 2,3,-1
 199 538 l 2,4,5
 199 565 199 565 232 565 c 0,6,7
 240 565 240 565 267.5 561.5 c 128,-1,8
 295 558 295 558 310 557 c 2,9,-1
 358 551 l 1,10,-1
 354 502 l 2,11,12
 352 473 352 473 328 394.5 c 128,-1,13
 304 316 304 316 292 249 c 0,14,15
 285 211 285 211 261 211 c 0,16,17
 249 211 249 211 242 219 c 128,-1,18
 235 227 235 227 231 247.5 c 128,-1,19
 227 268 227 268 225 289 c 128,-1,20
 223 310 223 310 219.5 351.5 c 128,-1,21
 216 393 216 393 212 427 c 0,22,23
 209 445 209 445 209 468 c 0,24,25
 209 473 209 473 210 484 c 128,-1,26
 211 495 211 495 211 499 c 0,0,1
229 4 m 1,27,28
 212 6 212 6 200 20.5 c 128,-1,29
 188 35 188 35 188 50 c 0,30,31
 188 72 188 72 205.5 97.5 c 128,-1,32
 223 123 223 123 238 131 c 0,33,34
 248 136 248 136 267 136 c 0,35,36
 332 136 332 136 332 84 c 0,37,38
 332 52 332 52 316 20.5 c 128,-1,39
 300 -11 300 -11 276 -11 c 0,40,41
 265 -11 265 -11 251 -2.5 c 128,-1,42
 237 6 237 6 234 6 c 128,-1,43
 231 6 231 6 229 4 c 1,27,28
EndSplineSet
EndChar

StartChar: quotedbl
Encoding: 34 34 13
Width: 572
Flags: W
HStem: 457 291<322.521 360.39>
VStem: 173 125<516.087 641.721> 173 114<527.94 676.93> 295 98<488.946 707.666>
LayerCount: 3
Back
SplineSet
194 695 m 0xc0
 202 705 210 709 218 709 c 0
 247 709 258 663 274 594 c 0
 282 567 285 544 285 525 c 0xa0
 285 491 274 470 254 470 c 0
 246 470 238 473 229 478 c 0
 208 490 186 591 186 652 c 0
 186 672 189 688 194 695 c 0xc0
308 677 m 0x90
 308 704 311 735 328 735 c 0
 336 735 345 726 357 708 c 0
 374 678 380 579 380 522 c 0xc0
 380 485 376 470 360 470 c 0
 349 470 337 478 330 492 c 0
 319 515 308 618 308 677 c 0x90
EndSplineSet
Fore
SplineSet
393 531 m 0x90
 393 487 390 457 361 457 c 0
 345 457 327 468 318 486 c 0
 304 515 295 623 295 676 c 0
 295 703 297 748 328 748 c 0
 348 748 365 721 368 715 c 0
 385 686 393 591 393 531 c 0x90
173 654 m 0xa0
 173 677 179 722 219 722 c 0
 256 722 268 678 287 597 c 1xa0
 295 570 298 547 298 527 c 0xc0
 298 483 281 457 254 457 c 0
 239 457 223 465 215 474 c 0
 189 504 173 604 173 654 c 0xa0
EndSplineSet
Validated: 1
Layer: 2
SplineSet
393 531 m 0,0,1
 393 493 393 493 387 475 c 128,-1,2
 381 457 381 457 361 457 c 0,3,4
 332 457 332 457 318 486 c 0,5,6
 308 506 308 506 301.5 568 c 128,-1,7
 295 630 295 630 295 676 c 0,8,9
 295 748 295 748 328 748 c 0,10,11
 341 748 341 748 352 736 c 128,-1,12
 363 724 363 724 368 715 c 0,13,14
 380 695 380 695 386.5 639 c 128,-1,15
 393 583 393 583 393 531 c 0,0,1
173 654 m 0,16,17
 173 722 173 722 219 722 c 0,18,19
 245 722 245 722 258 694.5 c 128,-1,20
 271 667 271 667 287 597 c 0,21,22
 298 560 298 560 298 527 c 128,-1,23
 298 494 298 494 286 475.5 c 128,-1,24
 274 457 274 457 254 457 c 0,25,26
 230 457 230 457 215 474 c 0,27,28
 197 495 197 495 185 553 c 128,-1,29
 173 611 173 611 173 654 c 0,16,17
EndSplineSet
EndChar

StartChar: numbersign
Encoding: 35 35 14
Width: 655
Flags: W
HStem: 132 86<84.5 181.969> 353 85<98.4021 230.021> 395 84<331.109 382.313>
VStem: 174 92<2.83925 131.172> 251 80<479.617 577.485> 344 85<87.1333 151.068>
LayerCount: 3
Back
SplineSet
338 466 m 0xa4
 456 466 412 582 458 582 c 0
 480 582 482 567 482 552 c 0
 482 538 480 531 480 517 c 0
 480 493 487 494 510 494 c 0
 523 494 537 490 537 473 c 0
 537 452 509 422 491 422 c 0
 485 422 484 424 480 424 c 0
 468 424 466 410 449 305 c 2
 441 261 l 1
 506 267 l 2
 527 269 542 270 551 270 c 0
 566 270 569 267 569 260 c 0x98
 569 224 548 218 504 207 c 0
 422 185 417 182 416 131 c 0
 415 58 405 35 373 31 c 2
 344 28 l 1
 351 97 l 1
 359 165 l 1x92
 324 165 l 2
 273 165 266 156 253 82 c 0
 243 21 230 -9 214 -9 c 0
 209 -9 187 -5 187 36 c 0
 187 47 188 60 190 78 c 2
 197 145 l 1
 140 145 l 2
 83 145 75 152 75 163 c 0
 75 181 109 201 154 205 c 0
 210 211 217 219 229 286 c 0
 232 309 238 339 242 353 c 2
 248 378 l 1
 175 370 l 2
 151 368 135 366 125 366 c 0
 103 366 102 372 102 388 c 0
 102 408 111 414 148 425 c 0
 174 432 205 437 218 437 c 0xc8
 250 437 256 448 264 515 c 0
 269 559 273 572 300 572 c 0
 314 572 315 562 318 519 c 0
 320 475 321 466 338 466 c 0xa4
358 235 m 0
 385 242 397 381 397 383 c 0
 397 401 391 407 379 407 c 0xa0
 372 407 362 405 350 402 c 0
 304 392 305 393 289 272 c 2
 282 217 l 1
 312 223 l 2
 328 227 349 232 358 235 c 0
EndSplineSet
Fore
SplineSet
309 236 m 2xa4
 322 239 345 244 354 247 c 1
 369 256 383 355 383 388 c 0
 383 392 383 395 377 395 c 0
 373 395 365 393 353 389 c 1
 315 380 317 387 302 270 c 2
 297 233 l 1
 309 236 l 2xa4
215 -22 m 0
 196 -22 174 -7 174 36 c 0xb4
 174 48 175 61 177 79 c 2
 183 132 l 1
 140 132 l 2
 96 132 62 135 62 162 c 0
 62 199 120 215 153 218 c 0
 202 223 205 226 216 288 c 1
 221 326 227 348 231 363 c 1
 176 357 l 2
 155 355 137 353 124 353 c 0
 100 353 89 360 89 386 c 0
 89 407 90 423 144 438 c 0
 245 466 240 423 251 517 c 0
 255 550 259 585 297 585 c 0
 324 585 331 563 331 526 c 2
 331 502 l 2xcc
 331 489 332 479 338 479 c 0
 421 480 409 537 427 574 c 0
 433 587 448 596 462 596 c 0
 479 596 495 583 495 552 c 1
 505 507 l 1
 510 507 l 2
 530 507 550 498 550 473 c 1
 547 435 510 409 491 409 c 0
 485 409 483 410 482 410 c 0
 479 402 474 379 462 303 c 1
 457 276 l 1
 505 280 l 2
 526 282 541 283 551 283 c 0
 568 283 582 278 582 260 c 0
 582 211 544 204 507 194 c 0
 430 174 430 174 429 131 c 0
 428 55 415 23 374 18 c 2
 329 13 l 1
 344 152 l 1
 324 152 l 2
 281 152 278 148 266 80 c 0xb4
 262 59 251 -22 215 -22 c 0
EndSplineSet
Validated: 1
Layer: 2
SplineSet
309 236 m 2,0,1
 348 245 348 245 354 247 c 0,2,3
 364 253 364 253 373.5 305.5 c 128,-1,4
 383 358 383 358 383 388 c 0,5,6
 383 395 383 395 377 395 c 128,-1,7
 371 395 371 395 353 389 c 0,8,9
 327.140750923 382.875441008 327.140750923 382.875441008 322.057697226 375.744663263 c 0,10,11
 314.112152933 364.59823165 314.112152933 364.59823165 302.48744044 273.80473658 c 0,12,13
 302.227371676 271.773499073 302.227371676 271.773499073 302 270 c 2,14,-1
 297 233 l 1,15,-1
 309 236 l 2,0,1
215 -22 m 0,16,17
 198 -22 198 -22 186 -8 c 128,-1,18
 174 6 174 6 174 36 c 0,19,20
 174 52 174 52 177 79 c 2,21,-1
 183 132 l 1,22,-1
 140 132 l 2,23,24
 114 132 114 132 99 133.5 c 128,-1,25
 84 135 84 135 73 142 c 128,-1,26
 62 149 62 149 62 162 c 0,27,28
 62 187 62 187 91.5 201 c 128,-1,29
 121 215 121 215 153 218 c 0,30,31
 190 222 190 222 199 232 c 128,-1,32
 208 242 208 242 216 288 c 0,33,34
 221 325 221 325 231 363 c 1,35,-1
 176 357 l 2,36,37
 134 353 134 353 124 353 c 0,38,39
 105 353 105 353 97 360 c 128,-1,40
 89 367 89 367 89 386 c 0,41,42
 89 399 89 399 91 406 c 128,-1,43
 93 413 93 413 105.5 422 c 128,-1,44
 118 431 118 431 144 438 c 0,45,46
 169 445 169 445 192 448.5 c 128,-1,47
 215 452 215 452 222.5 450.5 c 128,-1,48
 230 449 230 449 237 457 c 128,-1,49
 244 465 244 465 245.5 475 c 128,-1,50
 247 485 247 485 251 517 c 0,51,52
 254 539 254 539 256.5 550.5 c 128,-1,53
 259 562 259 562 269 573.5 c 128,-1,54
 279 585 279 585 297 585 c 0,55,56
 331 585 331 585 331 526 c 2,57,-1
 331 502 l 2,58,59
 331 479 331 479 338 479 c 0,60,61
 367 479 367 479 384.5 489.5 c 128,-1,62
 402 500 402 500 407 512 c 128,-1,63
 412 524 412 524 417.5 544.5 c 128,-1,64
 423 565 423 565 427 574 c 0,65,66
 437 596 437 596 462 596 c 0,67,68
 476 596 476 596 485.5 585 c 128,-1,69
 495 574 495 574 495 552 c 1,70,-1
 505 507 l 1,71,-1
 510 507 l 2,72,73
 550 507 550 507 550 473 c 0,74,75
 548 447 548 447 528 428 c 128,-1,76
 508 409 508 409 491 409 c 0,77,78
 487 409 487 409 483.194906092 409.796604061 c 2,79,-1
 482 410 l 1,80,81
 477 396 477 396 462 303 c 2,82,-1
 457 276 l 1,83,-1
 505 280 l 2,84,85
 537 283 537 283 551 283 c 0,86,87
 582 283 582 283 582 260 c 0,88,89
 582 244 582 244 577 232.5 c 128,-1,90
 572 221 572 221 559.5 213.5 c 128,-1,91
 547 206 547 206 539.5 203.5 c 128,-1,92
 532 201 532 201 513.551738546 195.747993986 c 0,93,94
 509 195 509 195 507 194 c 0,95,96
 449 179 449 179 439.5 171 c 128,-1,97
 430 163 430 163 429 131 c 0,98,99
 428 73 428 73 416 47.5 c 128,-1,100
 404 22 404 22 374 18 c 2,101,-1
 329 13 l 1,102,-1
 344 152 l 1,103,-1
 324 152 l 2,104,105
 292 152 292 152 283.5 141.5 c 128,-1,106
 275 131 275 131 266 80 c 0,107,108
 266 79 266 79 264.5 71.5 c 128,-1,109
 263 64 263 64 262 59 c 128,-1,110
 261 54 261 54 259 44.5 c 128,-1,111
 257 35 257 35 255 28.5 c 128,-1,112
 253 22 253 22 250 13.5 c 128,-1,113
 247 5 247 5 243.5 -0.5 c 128,-1,114
 240 -6 240 -6 235.5 -11.5 c 128,-1,115
 231 -17 231 -17 226 -19.5 c 128,-1,116
 221 -22 221 -22 215 -22 c 0,16,17
EndSplineSet
EndChar

StartChar: dollar
Encoding: 36 36 15
Width: 706
Flags: W
VStem: 153 97<415.257 470.271> 248 73<-144.962 -20.4977> 290 80<183.156 313.629> 444 82<173.749 292.808>
LayerCount: 3
Back
SplineSet
459 474 m 0xc0
 432 474 380 527 366 527 c 0
 364 527 358 486 355 458 c 2
 349 391 l 1
 381 375 l 2
 436 347 466 300 466 247 c 0x88
 466 190 423 94 349 72 c 0
 298 58 291 44 279 -57 c 0
 274 -101 268 -139 266 -141 c 1
 264 -142 242 -147 229 -147 c 0
 217 -147 214 -143 214 -125 c 0
 214 -84 224 -16 229 11 c 2
 241 82 l 1
 205 113 l 2
 159 152 126 219 126 255 c 0xc0
 126 271 132 281 146 281 c 0
 174 281 186 226 227 173 c 2
 246 149 l 1
 253 188 l 2
 263 243 278 282 278 312 c 0
 278 331 271 340 254 344 c 0
 214 355 171 395 171 430 c 0xb0
 171 475 224 555 270 576 c 0
 305 592 308 597 319 657 c 0
 325 693 333 730 336 739 c 0
 339 750 351 756 367 756 c 0
 384 756 390 755 390 743 c 0
 390 723 372 647 372 599 c 0
 372 585 374 578 378 578 c 0
 391 578 472 501 472 488 c 0
 472 479 467 474 459 474 c 0xc0
281 380 m 0
 288 380 298 446 298 493 c 0
 298 508.977 294.573 541.136 294 544 c 1
 261 500 l 2
 243 476 228 449 228 439 c 0xa0
 228 422 266 380 281 380 c 0
410 246 m 0x98
 410 309 351 331 351 331 c 1
 335 331 310 185 310 123 c 0
 310 104 313 95 319 95 c 0
 334 95 410 171 410 246 c 0x98
EndSplineSet
Fore
SplineSet
370 112 m 1x30
 390 127 444 182 444 246 c 0
 444 286 408 307 390 315 c 1
 375 287 370 178 370 131 c 2
 370 112 l 1x30
250 439 m 0x90
 250 430 282 407 296 397 c 1
 300 414 306 454 306 491 c 0
 306 497 305 503 305 509 c 1
 292 492 l 1
 258 459 250 441 250 439 c 0x90
429 591 m 2
 429 581 l 1
 452 573 532 504 532 483 c 0
 532 467 522 457 506 457 c 1
 475 459 440 490 416 503 c 1
 413 490 409 470 407 453 c 2
 401 396 l 1
 431 384 l 1
 492 355 526 305 526 249 c 0
 526 186 478 89 400 67 c 0
 357 55 351 47 339 -48 c 0
 331 -116 328 -132 321 -139 c 1
 317 -141 297 -147 280 -147 c 0
 251 -147 248 -132 248 -113 c 0x50
 248 -73 258 -6 263 21 c 2
 274 83 l 1
 244 109 l 2
 198 148 162 179 126 236 c 0
 119 247 117 255 117 262 c 0
 117 276 126 283 126 287 c 0
 126 293 134 294 141 294 c 0
 144 294 152 294 163 286 c 0
 188 267 245 232 285 183 c 1
 287 193 l 2
 289 204 290 220 290 235 c 0x30
 290 275 285 320 285 320 c 1
 283 326 277 329 264 331 c 0
 197 344 153 388 153 426 c 0
 153 475 209 558 285 580 c 1
 313 593 317 591 330 649 c 0
 350 737 351 745 380 753 c 0
 387 755 399 757 411 757 c 0
 430 757 450 752 450 731 c 0
 450 710 429 636 429 591 c 2
EndSplineSet
Validated: 1
Layer: 2
SplineSet
370 112 m 1,0,1
 394 130 394 130 419 167 c 128,-1,2
 444 204 444 204 444 246 c 0,3,4
 444 291 444 291 390 315 c 1,5,6
 370 278 370 278 370 131 c 2,7,-1
 370 112 l 1,0,1
250 439 m 0,8,9
 250 430 250 430 296 397 c 1,10,11
 306 440 306 440 306 491 c 0,12,13
 306 494 306 494 305.5 500 c 128,-1,14
 305 506 305 506 305 509 c 2,15,-1
 292 492 l 1,16,17
 250 451 250 451 250 439 c 0,8,9
429 591 m 2,18,-1
 429 581 l 1,19,20
 448 574 448 574 490 536 c 128,-1,21
 532 498 532 498 532 483 c 0,22,23
 532 457 532 457 506 457 c 0,24,25
 492 458 492 458 476 466 c 128,-1,26
 460 474 460 474 441.5 486.5 c 128,-1,27
 423 499 423 499 416 503 c 1,28,29
 410 475 410 475 407 453 c 2,30,-1
 401 396 l 1,31,-1
 431 384 l 2,32,33
 476 362 476 362 501 326.5 c 128,-1,34
 526 291 526 291 526 249 c 0,35,36
 526 197 526 197 490.5 139.5 c 128,-1,37
 455 82 455 82 400 67 c 0,38,39
 367 58 367 58 357.5 40 c 128,-1,40
 348 22 348 22 339 -48 c 0,41,42
 329 -131 329 -131 321 -139 c 0,43,44
 305 -147 305 -147 280 -147 c 0,45,46
 260 -147 260 -147 254 -138.5 c 128,-1,47
 248 -130 248 -130 248 -113 c 0,48,49
 248 -60 248 -60 263 21 c 2,50,-1
 274 83 l 1,51,-1
 244 109 l 2,52,53
 215 133 215 133 199.5 147.5 c 128,-1,54
 184 162 184 162 163.5 185.5 c 128,-1,55
 143 209 143 209 126 236 c 0,56,57
 117 250 117 250 117 262 c 0,58,59
 117 270 117 270 121.5 278 c 128,-1,60
 126 286 126 286 126 287 c 0,61,62
 126 294 126 294 141 294 c 0,63,64
 152 294 152 294 163 286 c 0,65,66
 167 283 167 283 186 269.5 c 128,-1,67
 205 256 205 256 219 245.5 c 128,-1,68
 233 235 233 235 252 217.5 c 128,-1,69
 271 200 271 200 285 183 c 1,70,-1
 287 193 l 2,71,72
 290 210 290 210 290 235 c 2,73,-1
 285 320 l 2,74,75
 282 328 282 328 264 331 c 0,76,77
 215 340 215 340 184 368 c 128,-1,78
 153 396 153 396 153 426 c 0,79,80
 153 466 153 466 192 515 c 128,-1,81
 231 564 231 564 285 580 c 0,82,83
 309.128540234 591.202536537 309.128540234 591.202536537 314.428554469 599.537830014 c 0,84,85
 321.355346176 610.431544477 321.355346176 610.431544477 330 649 c 0,86,87
 346 718 346 718 352.5 732.5 c 128,-1,88
 359 747 359 747 380 753 c 0,89,90
 394 757 394 757 411 757 c 0,91,92
 450 757 450 757 450 731 c 0,93,94
 450 724 450 724 439.5 670 c 128,-1,95
 429 616 429 616 429 591 c 2,18,-1
EndSplineSet
EndChar

StartChar: percent
Encoding: 37 37 16
Width: 786
Flags: W
HStem: 329 170<175.131 255.495> 544 20G<640 666.5>
VStem: 154 129<358.25 472.303>
LayerCount: 3
Back
SplineSet
440 78 m 0
 440 104 492 195 530 195 c 0
 554 195 579 156 579 140 c 0
 579 121 542 42 486 42 c 0
 461 42 440 64 440 78 c 0
154 408 m 0
 154 457 181 486 200 486 c 0
 212 486 255 467 255 419 c 0
 255 381 230 342 194 342 c 0
 169 342 154 374 154 408 c 0
100 -47 m 0
 97 -47 76 -43 76 -25 c 0
 76 -5 103 28 160 85 c 0
 251 175 381 323 449 415 c 0
 497 480 591 564 618 564 c 0
 628 564 632 555 632 538 c 0
 632 484 464 337 368 208 c 0
 348 180 283 110 223 52 c 0
 151 -20 117 -47 100 -47 c 0
EndSplineSet
Fore
SplineSet
655 564 m 0
 678 564 684 547 684 527 c 0
 684 467 513 334 406 203 c 0
 379 170 299 95 249 52 c 0
 184 -5 140 -47 113 -47 c 0
 95 -47 76 -33 76 -13 c 0
 76 10 101 41 164 101 c 1
 259 187 396 329 470 416 c 0
 526 482 625 564 655 564 c 0
212 499 m 0
 237 499 283 469 283 419 c 0
 283 377 253 329 207 329 c 0
 175 329 154 365 154 408 c 0
 154 461 182 499 212 499 c 0
522 29 m 0
 494 29 459 51 459 78 c 0
 459 109 518 208 569 208 c 0
 611 208 631 156 631 140 c 0
 631 114 589 29 522 29 c 0
EndSplineSet
Validated: 1
Layer: 2
SplineSet
655 564 m 0,0,1
 684 564 684 564 684 527 c 0,2,3
 684 501 684 501 640 451 c 128,-1,4
 596 401 596 401 521 326.5 c 128,-1,5
 446 252 446 252 406 203 c 0,6,7
 362 149 362 149 249 52 c 0,8,9
 241 45 241 45 228 33.5 c 128,-1,10
 215 22 215 22 208.5 16.5 c 128,-1,11
 202 11 202 11 191 1.5 c 128,-1,12
 180 -8 180 -8 174 -13 c 128,-1,13
 168 -18 168 -18 159.5 -24.5 c 128,-1,14
 151 -31 151 -31 145.5 -34 c 128,-1,15
 140 -37 140 -37 133.5 -40.5 c 128,-1,16
 127 -44 127 -44 122 -45.5 c 128,-1,17
 117 -47 117 -47 113 -47 c 0,18,19
 99 -47 99 -47 87.5 -37 c 128,-1,20
 76 -27 76 -27 76 -13 c 0,21,22
 76 17 76 17 164 101 c 0,23,24
 234 164 234 164 323.5 256.5 c 128,-1,25
 413 349 413 349 470 416 c 0,26,27
 513 467 513 467 573 515.5 c 128,-1,28
 633 564 633 564 655 564 c 0,0,1
212 499 m 0,29,30
 234 499 234 499 258.5 476 c 128,-1,31
 283 453 283 453 283 419 c 128,-1,32
 283 385 283 385 261.5 357 c 128,-1,33
 240 329 240 329 207 329 c 0,34,35
 184 329 184 329 169 352 c 128,-1,36
 154 375 154 375 154 408 c 0,37,38
 154 447 154 447 171.5 473 c 128,-1,39
 189 499 189 499 212 499 c 0,29,30
522 29 m 0,40,41
 500 29 500 29 479.5 44 c 128,-1,42
 459 59 459 59 459 78 c 0,43,44
 459 106 459 106 496.5 157 c 128,-1,45
 534 208 534 208 569 208 c 0,46,47
 597 208 597 208 614 183 c 128,-1,48
 631 158 631 158 631 140 c 0,49,50
 631 113 631 113 598.5 71 c 128,-1,51
 566 29 566 29 522 29 c 0,40,41
EndSplineSet
EndChar

StartChar: ampersand
Encoding: 38 38 17
Width: 734
Flags: W
HStem: -58 96<190.95 248.706> 21 108<538.61 629.26>
VStem: 103 87<38.9227 151.877> 144 102<411.418 524.26>
DStem2: 188 303 223 176 0.438835 0.898567<-206.693 -45.0956>
LayerCount: 3
Back
SplineSet
208 -45 m 0xd8
 184 -45 116 -23 116 65 c 0xe8
 116 105 129 152 158 211 c 2
 202 302 l 1
 184 357 l 2
 166 409 157 448 157 479 c 0
 157 527 180 556 229 586 c 0
 256 602 284 613 296 613 c 0
 299 613 314 608 329 608 c 0
 344 608 365 555 365 527 c 0
 365 473 285 346 285 311 c 0
 285 285 377 199 408 199 c 0
 457 199 502 352 559 352 c 0
 574 352 592 335 592 323 c 0
 592 294 483 183 483 154 c 0
 483 150 486 148 492 148 c 0
 514 148 527 116 562 116 c 0
 599 116 651 84 651 61 c 0
 651 43 638 34 616 34 c 0
 584 34 533 54 484 90 c 2
 446 117 l 1
 389 67 l 2
 355 37 244 -45 208 -45 c 0xd8
233 460 m 0xd8
 233 446 234 395 245 395 c 0
 252 395 265 405 276 417 c 0
 294 437 301 458 301 498 c 0
 301 535 299 551 289 551 c 0
 283 551 273 545 259 535 c 0
 237 521 233 508 233 460 c 0xd8
177 71 m 0xe8
 177 45 187 25 203 25 c 0
 232 25 329 100 364 106 c 0
 379 109 386 114 386 121 c 0
 386 146 304 178 266 222 c 2
 245 248 l 1
 211 182 l 2
 189 140 177 100 177 71 c 0xe8
EndSplineSet
Fore
SplineSet
190 71 m 0xa0
 190 59 193 39 203 38 c 1
 226 38 321 110 362 119 c 0
 367 120 371 121 373 122 c 1
 366 138 293 172 256 214 c 2
 247 224 l 1
 223 176 l 2
 198 128 190 92 190 71 c 0xa0
408 212 m 1
 449 216 493 365 559 365 c 0
 579 365 605 346 605 323 c 0
 605 289 515 197 498 160 c 1
 522 156 535 130 562 129 c 0
 615 128 664 88 664 62 c 0
 664 46 656 21 616 21 c 0x50
 579 21 524 44 476 79 c 2
 447 100 l 1
 398 57 l 2
 365 28 250 -58 208 -58 c 0
 178 -58 103 -31 103 65 c 0xa0
 103 108 117 157 146 217 c 2
 188 303 l 1
 172 353 l 2
 154 406 144 445 144 479 c 0x90
 144 532 169 565 222 597 c 0
 244 610 278 626 296 626 c 1
 296 626 335 621 341 617 c 0
 364 602 378 546 378 527 c 0
 378 469 298 342 298 311 c 0
 298 292 384 212 408 212 c 1
250 411 m 1
 286 436 288 473 288 493 c 0
 288 515 288 529 286 537 c 1
 282 535 275 530 266 524 c 0
 249 513 246 504 246 460 c 0
 246 446 247 423 250 411 c 1
EndSplineSet
Validated: 1
Layer: 2
SplineSet
190 71 m 0,0,1
 190 39 190 39 203 38 c 0,2,3
 214 38 214 38 277.5 76 c 128,-1,4
 341 114 341 114 362 119 c 0,5,6
 370 121 370 121 373 122 c 1,7,8
 370 129 370 129 323 160 c 128,-1,9
 276 191 276 191 256 214 c 2,10,-1
 247 224 l 1,11,-1
 223 176 l 2,12,13
 190 113 190 113 190 71 c 0,0,1
408 212 m 1,14,15
 421 213 421 213 439.5 237.5 c 128,-1,16
 458 262 458 262 474 290 c 128,-1,17
 490 318 490 318 513.5 341.5 c 128,-1,18
 537 365 537 365 559 365 c 0,19,20
 575 365 575 365 590 352 c 128,-1,21
 605 339 605 339 605 323 c 0,22,23
 605 304 605 304 554.5 238.5 c 128,-1,24
 504 173 504 173 498 160 c 1,25,26
 509 158 509 158 528.5 144 c 128,-1,27
 548 130 548 130 562 129 c 0,28,29
 600 128 600 128 632 105.5 c 128,-1,30
 664 83 664 83 664 62 c 0,31,32
 664 46 664 46 653.5 33.5 c 128,-1,33
 643 21 643 21 616 21 c 0,34,35
 556 21 556 21 476 79 c 2,36,-1
 447 100 l 1,37,-1
 398 57 l 2,38,39
 362 25 362 25 299 -16.5 c 128,-1,40
 236 -58 236 -58 208 -58 c 0,41,42
 175 -58 175 -58 139 -28 c 128,-1,43
 103 2 103 2 103 65 c 128,-1,44
 103 128 103 128 146 217 c 2,45,-1
 188 303 l 1,46,-1
 172 353 l 2,47,48
 144 435 144 435 144 479 c 0,49,50
 144 518 144 518 162.5 545 c 128,-1,51
 181 572 181 572 222 597 c 0,52,53
 271 626 271 626 296 626 c 0,54,55
 335 621 335 621 341 617 c 0,56,57
 356 607 356 607 367 576 c 128,-1,58
 378 545 378 545 378 527 c 0,59,60
 378 495 378 495 338 409 c 128,-1,61
 298 323 298 323 298 311 c 0,62,63
 298 296 298 296 344 254 c 128,-1,64
 390 212 390 212 408 212 c 1,14,15
250 411 m 1,65,66
 288 437 288 437 288 493 c 0,67,68
 288 529 288 529 286 537 c 1,69,70
 284 536 284 536 266 524 c 0,71,72
 253 516 253 516 249.5 504.5 c 128,-1,73
 246 493 246 493 246 460 c 128,-1,74
 246 427 246 427 250 411 c 1,65,66
EndSplineSet
EndChar

StartChar: quotesingle
Encoding: 39 39 18
Width: 613
Flags: W
HStem: 440 274<277.882 357.403>
VStem: 225 194<596.902 695.674> 242 116<478.681 558.698>
LayerCount: 3
Back
SplineSet
250 684 m 0xc0
 257 697 262 701 282 701 c 0
 308 701 392 690 401 685 c 0
 404 683 406 677 406 669 c 0xc0
 406 649 395 614 382 599 c 0
 374 590 363 554 358 519 c 0
 350 463 344 453 323 453 c 0
 289 453 257 498 255 551 c 0xa0
 252 619 238 596 238 632 c 0
 238 649 242 670 250 684 c 0xc0
EndSplineSet
Fore
SplineSet
267 713 m 0xc0
 270 714 276 714 281 714 c 0
 319 714 398 701 408 696 c 1
 415 689 419 685 419 669 c 0xc0
 419 648 409 609 392 590 c 0
 376 571 370 486 358 461 c 0
 350 443 336 440 323 440 c 0
 284 440 245 486 242 550 c 0xa0
 239 616 225 591 225 632 c 0
 225 659 234 707 267 713 c 0xc0
EndSplineSet
Validated: 1
Layer: 2
SplineSet
267 713 m 0,0,1
 270 714 270 714 281 714 c 0,2,3
 308 714 308 714 354 707 c 128,-1,4
 400 700 400 700 408 696 c 0,5,6
 419 685 419 685 419 669 c 0,7,8
 419 651 419 651 411.5 627 c 128,-1,9
 404 603 404 603 392 590 c 0,10,11
 383 580 383 580 373 525.5 c 128,-1,12
 363 471 363 471 358 461 c 0,13,14
 349 440 349 440 323 440 c 0,15,16
 293 440 293 440 268.5 471.5 c 128,-1,17
 244 503 244 503 242 550 c 0,18,19
 240 586 240 586 232.5 600 c 128,-1,20
 225 614 225 614 225 632 c 0,21,22
 225 659 225 659 235 684 c 128,-1,23
 245 709 245 709 267 713 c 0,0,1
EndSplineSet
EndChar

StartChar: parenleft
Encoding: 40 40 19
Width: 651
Flags: W
VStem: 170 113<194.727 423.515>
LayerCount: 3
Back
SplineSet
476 -112 m 0x40
 476 -135 450 -140 440 -140 c 0
 372 -140 220 92 191 245 c 0
 186 268 183 283 183 302 c 0
 183 343 198 402 248 597 c 0
 272 694 297 745 345 796 c 0
 374 826 405 844 423 844 c 0
 432 844 438 840 438 829 c 0
 438 820 420 783 398 749 c 0
 344 663 270 423 270 296 c 0x80
 270 230 278 202 320 121 c 0
 348 66 396 -4 426 -33 c 0
 459 -65 476 -93 476 -112 c 0x40
EndSplineSet
Fore
SplineSet
423 857 m 0
 436 857 451 851 451 829 c 0
 451 810 418 756 409 742 c 0
 355 656 283 418 283 296 c 0
 283 231 292 204 332 127 c 0
 363 67 409 1 435 -24 c 0
 478 -66 489 -94 489 -112 c 1
 488 -122 488 -132 472 -143 c 0
 464 -148 453 -153 440 -153 c 0
 347 -153 170 157 170 302 c 0
 170 346 186 405 235 600 c 0
 260 698 286 753 336 805 c 0
 374 844 406 857 423 857 c 0
EndSplineSet
Validated: 1
Layer: 2
SplineSet
423 857 m 0,0,1
 451 857 451 857 451 829 c 0,2,3
 451 807 451 807 409 742 c 0,4,5
 367 675 367 675 325 530 c 128,-1,6
 283 385 283 385 283 296 c 0,7,8
 283 248 283 248 292 217 c 128,-1,9
 301 186 301 186 332 127 c 0,10,11
 355 83 355 83 385 39 c 128,-1,12
 415 -5 415 -5 435 -24 c 0,13,14
 489 -77 489 -77 489 -112 c 0,15,16
 487 -133 487 -133 472 -143 c 0,17,18
 456 -153 456 -153 440 -153 c 0,19,20
 396 -153 396 -153 330.5 -70 c 128,-1,21
 265 13 265 13 217.5 122.5 c 128,-1,22
 170 232 170 232 170 302 c 0,23,24
 170 342 170 342 222.147077731 548.929200321 c 0,25,26
 225 560 225 560 226.5 566 c 128,-1,27
 228 572 228 572 230.5 582 c 128,-1,28
 233 592 233 592 235 600 c 0,29,30
 254 674 254 674 276.5 720 c 128,-1,31
 299 766 299 766 336 805 c 0,32,33
 387 857 387 857 423 857 c 0,0,1
EndSplineSet
EndChar

StartChar: parenright
Encoding: 41 41 20
Width: 636
Flags: W
VStem: 350 110<158.918 544.605>
LayerCount: 3
Back
SplineSet
202 816 m 0x80
 202 833 215 837 225 837 c 0
 279 837 384 725 414 624 c 0
 436 554 447 440 447 337 c 0
 447 268 442 204 431 161 c 0
 390 0 335 -57 308 -128 c 0
 298 -156 285 -167 259 -167 c 0
 242 -167 215 -161 215 -151 c 0
 215 -136 240 -78 273 -14 c 0
 312 60 363 154 363 356 c 0x40
 363 649 235 761 230 763 c 0
 215 768 202 797 202 816 c 0x80
EndSplineSet
Fore
SplineSet
225 850 m 0
 287 850 395 733 426 628 c 1
 449 556 460 441 460 337 c 0
 460 267 455 203 444 158 c 0
 403 -4 346 -62 320 -132 c 0
 306 -170 281 -181 259 -181 c 0
 245 -181 202 -174 202 -150 c 0
 202 -132 233 -62 261 -8 c 0
 299 64 350 156 350 356 c 0
 349 636 234 744 223 752 c 1
 203 761 189 792 189 816 c 0
 189 836 203 850 225 850 c 0
EndSplineSet
Validated: 1
Layer: 2
SplineSet
225 850 m 0,0,1
 272 850 272 850 337.5 778 c 128,-1,2
 403 706 403 706 426 628 c 0,3,4
 460 522 460 522 460 337 c 0,5,6
 460 223 460 223 444 158 c 0,7,8
 426 87 426 87 401.5 31 c 128,-1,9
 377 -25 377 -25 353 -66.5 c 128,-1,10
 329 -108 329 -108 320 -132 c 0,11,12
 302 -181 302 -181 259 -181 c 0,13,14
 242 -181 242 -181 222 -173.5 c 128,-1,15
 202 -166 202 -166 202 -150 c 0,16,17
 202 -122 202 -122 261 -8 c 0,18,19
 289 45 289 45 303 76.5 c 128,-1,20
 317 108 317 108 333.5 186 c 128,-1,21
 350 264 350 264 350 356 c 0,22,23
 350 435 350 435 337.5 503.5 c 128,-1,24
 325 572 325 572 308.5 614 c 128,-1,25
 292 656 292 656 272 689.5 c 128,-1,26
 252 723 252 723 240.5 735 c 128,-1,27
 229 747 229 747 223 752 c 0,28,29
 209 759 209 759 199 778 c 128,-1,30
 189 797 189 797 189 816 c 0,31,32
 189 831 189 831 199 840.5 c 128,-1,33
 209 850 209 850 225 850 c 0,0,1
EndSplineSet
EndChar

StartChar: asterisk
Encoding: 42 42 21
Width: 772
Flags: W
HStem: 305 116<547 639.109>
VStem: 171 101<521.628 604.696>
LayerCount: 3
Back
SplineSet
600 408 m 0
 630 408 646 405 646 362 c 0
 646 339 632 333 564 318 c 2
 517 308 l 1
 561 273 l 2
 586 253 597 243 597 230 c 0
 597 220 577 173 557 173 c 0
 527 173 443 254 421 254 c 0
 415 254 414 248 414 237 c 0
 414 198 442 187 442 168 c 0
 442 147 416 126 384 126 c 0
 372 126 366 129 354 129 c 0
 300 129 294 85 249 85 c 0
 228 85 212 98 212 123 c 0
 212 162 288 221 288 246 c 0
 288 259 269 263 231 263 c 0
 180 263 140 284 140 302 c 0
 140 308 145 315 159 319 c 0
 222 339 306 377 306 386 c 0
 306 404 184 507 184 568 c 0
 184 591 202 603 218 603 c 0
 238 603 259 585 259 560 c 0
 259 535 284 503 298 503 c 0
 304 503 306 513 306 535 c 0
 306 569 321 631 351 631 c 0
 383 631 379 569 393 514 c 0
 396 497 398 487 402 487 c 0
 408 487 417 500 437 529 c 0
 480 592 527 631 555 631 c 0
 570 631 585 619 585 601 c 0
 585 587 577 571 561 558 c 0
 539 539 477 431 477 411 c 0
 477 407 497 405 525 405 c 0
 555 405 578 408 600 408 c 0
EndSplineSet
Fore
SplineSet
199 123 m 0
 199 172 275 231 275 245 c 1
 261 256 173 239 136 281 c 0
 131 286 127 294 127 302 c 0
 127 306 128 322 155 331 c 0
 212 349 271 377 290 389 c 1
 270 418 171 507 171 568 c 0
 171 599 196 616 218 616 c 0
 246 616 272 593 272 560 c 1
 273 541 284 526 292 519 c 1
 292 519 294 644 350 644 c 0
 392 644 391 593 407 509 c 1
 422 528 494 644 555 644 c 0
 577 644 598 627 598 601 c 0
 598 582 587 563 569 548 c 1
 549 529 503 449 492 419 c 1
 499 418 510 418 525 418 c 0
 557 418 572 421 604 421 c 0
 640 421 659 409 659 362 c 0
 659 327 633 319 567 305 c 2
 547 301 l 1
 569 283 l 2
 589 267 610 251 610 232 c 0
 610 215 589 160 556 160 c 0
 526 160 454 224 427 238 c 1
 428 197 455 196 455 168 c 0
 455 136 418 113 384 113 c 0
 372 113 363 116 354 116 c 0
 307 116 299 72 249 72 c 0
 220 72 199 92 199 123 c 0
EndSplineSet
Validated: 1
Layer: 2
SplineSet
199 123 m 0,0,1
 199 144 199 144 218 171.5 c 128,-1,2
 237 199 237 199 256 219.5 c 128,-1,3
 275 240 275 240 275 245 c 0,4,5
 270 249 270 249 242.5 249.5 c 128,-1,6
 215 250 215 250 183.5 256.5 c 128,-1,7
 152 263 152 263 136 281 c 0,8,9
 127 290 127 290 127 302 c 0,10,11
 127 322 127 322 155 331 c 0,12,13
 241 358 241 358 290 389 c 1,14,15
 286 394 286 394 252.5 431 c 128,-1,16
 219 468 219 468 195 504.5 c 128,-1,17
 171 541 171 541 171 568 c 0,18,19
 171 590 171 590 185.5 603 c 128,-1,20
 200 616 200 616 218 616 c 0,21,22
 240 616 240 616 256 600 c 128,-1,23
 272 584 272 584 272 560 c 0,24,25
 273 535 273 535 292 519 c 1,26,27
 292 524 292 524 292.5 532.5 c 128,-1,28
 293 541 293 541 296.5 562.5 c 128,-1,29
 300 584 300 584 305.5 600.5 c 128,-1,30
 311 617 311 617 322.5 630.5 c 128,-1,31
 334 644 334 644 350 644 c 0,32,33
 359 644 359 644 365.5 641.5 c 128,-1,34
 372 639 372 639 377 632 c 128,-1,35
 382 625 382 625 385 618 c 128,-1,36
 388 611 388 611 391 597.5 c 128,-1,37
 394 584 394 584 396 573 c 128,-1,38
 398 562 398 562 401 542.5 c 128,-1,39
 404 523 404 523 407 509 c 1,40,41
 408 510 408 510 421.5 529.5 c 128,-1,42
 435 549 435 549 448.5 565.5 c 128,-1,43
 462 582 462 582 480.5 601.5 c 128,-1,44
 499 621 499 621 518.5 632.5 c 128,-1,45
 538 644 538 644 555 644 c 128,-1,46
 572 644 572 644 585 632 c 128,-1,47
 598 620 598 620 598 601 c 0,48,49
 598 572 598 572 569 548 c 0,50,51
 555 534 555 534 528 488.5 c 128,-1,52
 501 443 501 443 492 419 c 1,53,54
 499 418 499 418 525 418 c 0,55,56
 541 418 541 418 564.5 419.5 c 128,-1,57
 588 421 588 421 604 421 c 0,58,59
 633 421 633 421 646 408.5 c 128,-1,60
 659 396 659 396 659 362 c 0,61,62
 659 337 659 337 640 326.5 c 128,-1,63
 621 316 621 316 567 305 c 2,64,-1
 547 301 l 1,65,-1
 569 283 l 2,66,67
 610 250 610 250 610 232 c 128,-1,68
 610 214 610 214 594 187 c 128,-1,69
 578 160 578 160 556 160 c 0,70,71
 543 160 543 160 517.5 176 c 128,-1,72
 492 192 492 192 464 212.5 c 128,-1,73
 436 233 436 233 427 238 c 1,74,75
 428 216 428 216 441.5 198.5 c 128,-1,76
 455 181 455 181 455 168 c 0,77,78
 455 145 455 145 433 129 c 128,-1,79
 411 113 411 113 384 113 c 0,80,81
 378 113 378 113 368 114.5 c 128,-1,82
 358 116 358 116 354 116 c 0,83,84
 331 116 331 116 302.5 94 c 128,-1,85
 274 72 274 72 249 72 c 0,86,87
 227 72 227 72 213 86 c 128,-1,88
 199 100 199 100 199 123 c 0,0,1
EndSplineSet
EndChar

StartChar: plus
Encoding: 43 43 22
Width: 715
Flags: W
HStem: 310 122<409.531 570.048>
VStem: 279 121<414 479> 288 104<419 583.117> 291 108<44.25 305> 299 92<7 267.75>
DStem2: 189 396 238 296 0.980581 0.196116<-76.46 82.1727>
LayerCount: 3
Back
SplineSet
586 419 m 0x80
 616 419 618 380 618 374 c 0
 618 336 546 343 421 323 c 2
 386 316 l 1x80
 378 20 l 1
 312 20 l 1x40
 304 320 l 1
 236 309 l 2
 187 302 154 298 131 298 c 0
 97 298 89 307 89 330 c 0
 89 361 96 365 191 383 c 2
 292 403 l 1
 292 471 l 2
 292 508 296 548 300 560 c 0
 305 572 322 581 339 581 c 0
 367 581 371 574 379 488 c 2
 388 395 l 1
 462 403 l 2
 537 410 574 419 586 419 c 0x80
EndSplineSet
Fore
SplineSet
586 432 m 0xc0
 616 430 631 403 631 379 c 0
 631 320 556 338 423 310 c 2
 399 305 l 1x90
 391 7 l 1
 299 7 l 1x88
 291 305 l 1x90
 238 296 l 2
 193 288 158 285 132 285 c 0
 94 285 76 295 76 329 c 0
 76 374 95 377 189 396 c 2
 279 414 l 1
 279 471 l 2xc0
 279 499 282 548 288 565 c 1
 298 584 320 595 340 595 c 0
 387 595 387 546 392 489 c 2xa0
 400 409 l 1
 461 416 l 2
 536 425 574 432 586 432 c 0xc0
EndSplineSet
Validated: 1
Layer: 2
SplineSet
586 432 m 0,0,1
 607 431 607 431 619 415 c 128,-1,2
 631 399 631 399 631 379 c 0,3,4
 631 362 631 362 623 352 c 128,-1,5
 615 342 615 342 595.5 337 c 128,-1,6
 576 332 576 332 554.5 329.5 c 128,-1,7
 533 327 533 327 494.5 322 c 128,-1,8
 456 317 456 317 423 310 c 2,9,-1
 399 305 l 1,10,-1
 391 7 l 1,11,-1
 299 7 l 1,12,-1
 291 305 l 1,13,-1
 238 296 l 2,14,15
 176 285 176 285 132 285 c 0,16,17
 102 285 102 285 89 294.5 c 128,-1,18
 76 304 76 304 76 329 c 0,19,20
 76 361 76 361 94.5 371 c 128,-1,21
 113 381 113 381 189 396 c 2,22,-1
 279 414 l 1,23,-1
 279 471 l 2,24,25
 279 540 279 540 288 565 c 0,26,27
 304 595 304 595 340 595 c 0,28,29
 360 595 360 595 371.5 581 c 128,-1,30
 383 567 383 567 385.5 551 c 128,-1,31
 388 535 388 535 390.889512515 502.259038713 c 0,32,33
 392 493 392 493 392 489 c 2,34,-1
 400 409 l 1,35,-1
 461 416 l 2,36,37
 492 420 492 420 522.5 424 c 128,-1,38
 553 428 553 428 567 430 c 128,-1,39
 581 432 581 432 586 432 c 0,0,1
EndSplineSet
EndChar

StartChar: comma
Encoding: 44 44 23
Width: 496
Flags: W
VStem: 134 226
LayerCount: 3
Back
SplineSet
215 45 m 0
 272 159 296 196 315 196 c 0
 336 196 347 188 347 168 c 0
 347 140 326 90 283 8 c 0
 201 -146 192 -160 170 -160 c 0
 155 -160 147 -152 147 -134 c 0
 147 -105 169 -47 215 45 c 0
EndSplineSet
Fore
SplineSet
318 209 m 0
 335 209 360 201 360 168 c 0
 360 135 335 79 294 2 c 0
 210 -158 199 -173 170 -173 c 0
 154 -173 134 -165 134 -134 c 0
 134 -99 161 -33 203 51 c 0
 267 178 288 209 318 209 c 0
EndSplineSet
Validated: 1
Layer: 2
SplineSet
318 209 m 0,0,1
 334 209 334 209 347 199.5 c 128,-1,2
 360 190 360 190 360 168 c 0,3,4
 360 126 360 126 294 2 c 0,5,6
 231 -118 231 -118 211.5 -145.5 c 128,-1,7
 192 -173 192 -173 170 -173 c 0,8,9
 134 -173 134 -173 134 -134 c 0,10,11
 134 -87 134 -87 203 51 c 0,12,13
 252 148 252 148 274 178.5 c 128,-1,14
 296 209 296 209 318 209 c 0,0,1
EndSplineSet
EndChar

StartChar: hyphen
Encoding: 45 45 24
Width: 931
Flags: W
HStem: 329 140<219.232 765.406>
LayerCount: 3
Back
SplineSet
229 447 m 0x80
 278 452 405 456 524 456 c 0
 746 456 802 452 820 423 c 0
 827 412 831 402 831 394 c 0
 831 357 747 349 459 342 c 2x40
 118 334 l 1
 123 385 l 2
 128 432 136 437 229 447 c 0x80
EndSplineSet
Fore
SplineSet
524 469 m 0
 766 469 810 463 831 430 c 0
 837 420 844 407 844 394 c 0
 844 342 748 336 459 329 c 2
 104 321 l 1
 110 386 l 2
 116 443 132 450 228 460 c 0
 278 465 405 469 524 469 c 0
EndSplineSet
Validated: 1
Layer: 2
SplineSet
524 469 m 0,0,1
 705 469 705 469 760 462 c 128,-1,2
 815 455 815 455 831 430 c 0,3,4
 844 408 844 408 844 394 c 0,5,6
 844 357 844 357 768 346 c 128,-1,7
 692 335 692 335 459 329 c 2,8,-1
 104 321 l 1,9,-1
 110 386 l 2,10,11
 114 428 114 428 134.5 440 c 128,-1,12
 155 452 155 452 228 460 c 0,13,14
 318 469 318 469 524 469 c 0,0,1
EndSplineSet
EndChar

StartChar: period
Encoding: 46 46 25
Width: 545
Flags: W
HStem: -106 308<298.189 324.562>
VStem: 124 304<2.45566 71.1889>
LayerCount: 3
Back
SplineSet
137 16 m 0xa0
 137 71 239 157 255 157 c 0
 267 157 276 164 276 173 c 0
 276 181 288 189 301 189 c 0
 314 189 325 181 325 173 c 0x90
 325 164 338 157 354 157 c 0
 390 157 415 117 415 73 c 0x88
 415 5 338 -93 246 -93 c 0
 159 -93 137 -8 137 16 c 0xa0
266 12 m 0x48
 293 12 319 44 319 51 c 0
 319 55 315 56 306 56 c 0
 272 56 252 39 252 23 c 0
 252 16 258 12 266 12 c 0x48
EndSplineSet
Fore
SplineSet
124 16 m 1
 127 82 231 170 255 170 c 0
 268 170 260 176 269 188 c 0
 277 198 289 202 301 202 c 0
 319 202 337 192 338 175 c 1
 340 173 346 170 354 170 c 0
 398 170 428 124 428 73 c 0
 428 -1 346 -106 246 -106 c 0
 154 -106 124 -18 124 16 c 1
265 25 m 1
 266 25 l 2
 278 25 290 35 298 43 c 1
 277 41 266 31 265 25 c 1
EndSplineSet
Validated: 1
Layer: 2
SplineSet
124 16 m 0,0,1
 126 60 126 60 179 115 c 128,-1,2
 232 170 232 170 255 170 c 0,3,4
 261 170 261 170 262.5 171.5 c 128,-1,5
 264 173 264 173 265 178 c 128,-1,6
 266 183 266 183 269 188 c 0,7,8
 280 202 280 202 301 202 c 0,9,10
 315 202 315 202 326 194.5 c 128,-1,11
 337 187 337 187 338 175 c 1,12,13
 343 170 343 170 354 170 c 0,14,15
 386 170 386 170 407 141 c 128,-1,16
 428 112 428 112 428 73 c 0,17,18
 428 13 428 13 372.5 -46.5 c 128,-1,19
 317 -106 317 -106 246 -106 c 0,20,21
 214 -106 214 -106 188.5 -92 c 128,-1,22
 163 -78 163 -78 150 -57.5 c 128,-1,23
 137 -37 137 -37 130.5 -18 c 128,-1,24
 124 1 124 1 124 16 c 0,0,1
265 25 m 1,25,-1
 266 25 l 2,26,27
 280 25 280 25 298 43 c 1,28,29
 268 40 268 40 265 25 c 1,25,-1
EndSplineSet
EndChar

StartChar: slash
Encoding: 47 47 26
Width: 772
Flags: W
DStem2: 247 155 231 -94 0.426745 0.904372<-259.879 345.831>
LayerCount: 3
Back
SplineSet
603 866 m 0
 623 866 644 851 644 828 c 0
 644 797 615 767 579 661 c 0
 543 562 357 216 357 197 c 0
 357 191 334 140 305 84 c 2
 219 -88 l 2
 193 -140 177 -159 159 -159 c 0
 139 -159 129 -152 129 -134 c 0
 129 -89 188 -7 259 150 c 2
 519 700 l 2
 565 795 546 866 603 866 c 0
EndSplineSet
Fore
SplineSet
157 -172 m 0
 138 -172 116 -164 116 -134 c 0
 116 -84 173 -9 247 155 c 1
 507 706 l 1
 553 800 533 879 603 879 c 0
 629 879 657 860 657 828 c 0
 657 794 626 761 591 657 c 1
 551 548 378 232 369 193 c 0
 366 178 339 121 317 78 c 2
 231 -94 l 2
 203 -149 186 -172 157 -172 c 0
EndSplineSet
Validated: 1
Layer: 2
SplineSet
157 -172 m 0,0,1
 116 -172 116 -172 116 -134 c 0,2,3
 116 -112 116 -112 131 -78.5 c 128,-1,4
 146 -45 146 -45 182.5 23.5 c 128,-1,5
 219 92 219 92 247 155 c 2,6,-1
 507 706 l 2,7,8
 523 740 523 740 534.5 789 c 128,-1,9
 546 838 546 838 559 858.5 c 128,-1,10
 572 879 572 879 603 879 c 0,11,12
 624 879 624 879 640.5 865 c 128,-1,13
 657 851 657 851 657 828 c 0,14,15
 657 814 657 814 648.5 794.5 c 128,-1,16
 640 775 640 775 622.5 737.5 c 128,-1,17
 605 700 605 700 591 657 c 0,18,19
 570 599 570 599 471.5 404.5 c 128,-1,20
 373 210 373 210 369 193 c 0,21,22
 365 171 365 171 317 78 c 2,23,-1
 231 -94 l 2,24,25
 209 -138 209 -138 193.5 -155 c 128,-1,26
 178 -172 178 -172 157 -172 c 0,0,1
EndSplineSet
EndChar

StartChar: zero
Encoding: 48 48 27
Width: 616
Flags: W
HStem: -4 87<198.65 308.531> 524 103<354.788 459.156>
VStem: 81 97<103.392 244.375> 472 81<313.898 512.122>
LayerCount: 3
Back
SplineSet
194 473 m 0
 194 497 331 627 384 627 c 0
 420 627 501 566 501 433 c 0
 501 351 472 253 415 148 c 0
 368 61 323 20 257 2 c 0
 242 -2 228 -4 215 -4 c 0
 167 -4 131 24 103 85 c 0
 87 118 81 134 81 152 c 0
 81 231 194 429 194 473 c 0
446 447 m 0
 446 507 432 550 381 550 c 0
 364 550 345 544 328 533 c 0
 257 487 152 257 152 145 c 0
 152 97 188 57 232 57 c 0
 261 57 280 68 321 107 c 0
 349 134 372 163 372 171 c 0
 372 199 446 298 446 447 c 0
EndSplineSet
Fore
SplineSet
390 180 m 1
 392 214 472 295 472 441 c 0
 472 507 448 524 414 524 c 0
 399 524 381 520 364 510 c 0
 295 472 178 262 178 154 c 0
 178 115 210 83 250 83 c 0
 277 83 296 93 338 127 c 0
 367 151 388 174 390 180 c 1
194 467 m 0
 194 500 353 627 418 627 c 0
 465 627 553 564 553 428 c 0
 553 316 498 205 465 149 c 0
 445 116 371 -4 231 -4 c 0
 179 -4 137 22 104 89 c 0
 88 121 81 137 81 158 c 0
 81 237 194 429 194 467 c 0
EndSplineSet
Validated: 1
Layer: 2
SplineSet
390 180 m 1,0,1
 391 191 391 191 411.5 227 c 128,-1,2
 432 263 432 263 452 320 c 128,-1,3
 472 377 472 377 472 441 c 0,4,5
 472 487 472 487 457 505.5 c 128,-1,6
 442 524 442 524 414 524 c 0,7,8
 388 524 388 524 364 510 c 0,9,10
 311 481 311 481 244.5 357 c 128,-1,11
 178 233 178 233 178 154 c 0,12,13
 178 125 178 125 199 104 c 128,-1,14
 220 83 220 83 250 83 c 0,15,16
 284 83 284 83 338 127 c 0,17,18
 385 166 385 166 390 180 c 1,0,1
194 467 m 0,19,20
 194 483 194 483 236 522 c 128,-1,21
 278 561 278 561 333 594 c 128,-1,22
 388 627 388 627 418 627 c 0,23,24
 462 627 462 627 507.5 573.5 c 128,-1,25
 553 520 553 520 553 428 c 0,26,27
 553 298 553 298 465 149 c 0,28,29
 372 -4 372 -4 231 -4 c 0,30,31
 150 -4 150 -4 104 89 c 0,32,33
 81 135 81 135 81 158 c 0,34,35
 81 203 81 203 137.5 328 c 128,-1,36
 194 453 194 453 194 467 c 0,19,20
EndSplineSet
EndChar

StartChar: one
Encoding: 49 49 28
Width: 378
Flags: W
VStem: 226 87<33.7494 343.072>
LayerCount: 3
Back
SplineSet
86 370 m 0x40
 77 370 64 377 64 393 c 0
 64 418 84 424 118 472 c 2
 151 516 l 2
 174 544 211 631 240 631 c 0
 254 631 263 610 268 567 c 0
 277 492 286 224 286 92 c 0x80
 286 51 285 24 283 19 c 0
 278 8 272 2 265 2 c 0
 256 2 247 14 239 37 c 0
 231 60 226 140 226 287 c 0
 225 443 221 503 214 503 c 0
 193 503 125 370 86 370 c 0x40
EndSplineSet
Fore
SplineSet
279 2 m 0
 237 2 227 45 226 287 c 0
 226 371 224 443 220 473 c 1
 193 444 140 357 99 357 c 0
 82 357 64 371 64 393 c 0
 64 421 87 430 120 472 c 2
 154 516 l 2
 190 561 210 631 254 631 c 0
 256 631 258 630 261 630 c 0
 282 624 290 598 294 567 c 0
 301 512 313 230 313 94 c 0
 313 55 311 28 309 21 c 1
 302 10 293 2 279 2 c 0
EndSplineSet
Validated: 1
Layer: 2
SplineSet
279 2 m 0,0,1
 262 2 262 2 253 12 c 128,-1,2
 244 22 244 22 237.5 54 c 128,-1,3
 231 86 231 86 228.5 139.5 c 128,-1,4
 226 193 226 193 226 287 c 0,5,6
 226 428 226 428 220 473 c 1,7,8
 215 468 215 468 188.5 433 c 128,-1,9
 162 398 162 398 139.5 377.5 c 128,-1,10
 117 357 117 357 99 357 c 0,11,12
 85 357 85 357 74.5 367 c 128,-1,13
 64 377 64 377 64 393 c 0,14,15
 64 406 64 406 70 415 c 128,-1,16
 76 424 76 424 92.5 441 c 128,-1,17
 109 458 109 458 120 472 c 2,18,-1
 154 516 l 2,19,20
 166 530 166 530 184.5 563 c 128,-1,21
 203 596 203 596 218.5 613.5 c 128,-1,22
 234 631 234 631 254 631 c 0,23,24
 255 631 255 631 257 630.5 c 128,-1,25
 259 630 259 630 261 630 c 0,26,27
 287 623 287 623 294 567 c 0,28,29
 299 525 299 525 306 359 c 128,-1,30
 313 193 313 193 313 94 c 0,31,32
 313 35 313 35 309 21 c 1,33,34
 297 2 297 2 279 2 c 0,0,1
EndSplineSet
EndChar

StartChar: two
Encoding: 50 50 29
Width: 850
Flags: W
HStem: 520 86<294.791 471.811>
VStem: 475 89<381.097 514.129>
LayerCount: 3
Back
SplineSet
605 84 m 0
 685 84 686 74 686 52 c 0
 686 16 632 46 466 13 c 0
 346 -11 271 -10 254 -27 c 0
 248 -32 240 -34 232 -34 c 0
 211 -34 189 -21 189 -4 c 0
 189 13 246 88 284 121 c 0
 320 151 449 367 449 489 c 0
 449 534 425 546 367 546 c 0
 293 546 225 512 150 436 c 0
 113 400 81 370 78 370 c 0
 76 370 73 386 73 404 c 0
 73 430 80 443 99 453 c 0
 114 460 126 472 126 480 c 0
 126 498 170 524 210 554 c 0
 228 569 293 606 375 606 c 0
 430 606 476 588 493 556 c 0
 501 542 504 519 504 492 c 0
 504 444 493 382 474 333 c 0
 446 265 345 100 306 63 c 0
 299 56 295 52 295 49 c 0
 295 48 296 48 299 48 c 0
 309 48 470 84 605 84 c 0
EndSplineSet
Fore
SplineSet
670 105 m 0
 724 105 765 101 765 65 c 0
 765 8 705 44 519 12 c 0
 373 -13 304 -11 287 -24 c 0
 277 -31 264 -34 251 -34 c 0
 221 -34 189 -16 189 6 c 0
 189 37 274 117 301 136 c 0
 339 163 475 366 475 478 c 0
 475 508 464 520 399 520 c 0
 225 520 124 344 91 344 c 1
 85 351 73 338 73 391 c 0
 73 458 121 446 126 472 c 0
 130 496 164 513 217 551 c 0
 238 567 313 606 408 606 c 0
 468 606 522 589 547 552 c 0
 563 528 564 491 564 484 c 0
 564 436 553 383 525 327 c 24
 472 222 412 128 359 75 c 1
 423 85 574 105 670 105 c 0
EndSplineSet
Validated: 1
Layer: 2
SplineSet
670 105 m 0,0,1
 718 105 718 105 741.5 97.5 c 128,-1,2
 765 90 765 90 765 65 c 0,3,4
 765 48 765 48 758 40.5 c 128,-1,5
 751 33 751 33 731 30.5 c 128,-1,6
 711 28 711 28 686.5 28 c 128,-1,7
 662 28 662 28 615 24 c 128,-1,8
 568 20 568 20 519 12 c 0,9,10
 460 2 460 2 401.5 -5 c 128,-1,11
 343 -12 343 -12 318.5 -15 c 128,-1,12
 294 -18 294 -18 287 -24 c 0,13,14
 273 -34 273 -34 251 -34 c 0,15,16
 228 -34 228 -34 208.5 -22 c 128,-1,17
 189 -10 189 -10 189 6 c 0,18,19
 189 27 189 27 231 72 c 128,-1,20
 273 117 273 117 301 136 c 0,21,22
 338 162 338 162 406.5 282.5 c 128,-1,23
 475 403 475 403 475 478 c 0,24,25
 475 502 475 502 460.5 511 c 128,-1,26
 446 520 446 520 399 520 c 0,27,28
 350 520 350 520 303.5 502 c 128,-1,29
 257 484 257 484 224 458 c 128,-1,30
 191 432 191 432 164 406 c 128,-1,31
 137 380 137 380 118 362 c 128,-1,32
 99 344 99 344 91 344 c 0,33,34
 90 346 90 346 86 347 c 128,-1,35
 82 348 82 348 79.5 350 c 128,-1,36
 77 352 77 352 75 362.5 c 128,-1,37
 73 373 73 373 73 391 c 0,38,39
 73 414 73 414 80.5 428 c 128,-1,40
 88 442 88 442 97.5 447 c 128,-1,41
 107 452 107 452 115.5 458 c 128,-1,42
 124 464 124 464 126 472 c 0,43,44
 127 479 127 479 131.5 485.5 c 128,-1,45
 136 492 136 492 145 499.5 c 128,-1,46
 154 507 154 507 162.5 513 c 128,-1,47
 171 519 171 519 188 531 c 128,-1,48
 205 543 205 543 217 551 c 0,49,50
 240 569 240 569 293 587.5 c 128,-1,51
 346 606 346 606 408 606 c 0,52,53
 511 606 511 606 547 552 c 0,54,55
 564 526 564 526 564 484 c 0,56,57
 564 405 564 405 525 327 c 0,58,59
 437 153 437 153 359 75 c 1,60,61
 551 105 551 105 670 105 c 0,0,1
EndSplineSet
EndChar

StartChar: three
Encoding: 51 51 30
Width: 620
Flags: W
HStem: -10 82<238.394 363.902> 290 75<207.221 257.384> 335 88<412 449.218>
VStem: 143 96<74.9844 137.114> 464 94<162.602 323.047>
LayerCount: 3
Back
SplineSet
367 539 m 0xc8
 319 539 118 500 110 500 c 0
 100 500 97 504 97 513 c 0
 97 523 92 531 85 531 c 0
 79 531 74 535 74 541 c 0xe0
 74 565 393 615 415 620 c 0
 442.896 625.072 456.991 629 462 629 c 0
 475 629 495 603 495 587 c 0xc8
 495 565 358 427 358 416 c 0
 358 413 373 410 391 410 c 0
 429 410 490 351 502 304 c 0
 505 293 506 280 506 266 c 0xe0
 506 217 489 155 463 114 c 0
 415 38 314 -10 240 -10 c 0
 202 -10 170 2 157 31 c 0
 147 51 143 74 143 93 c 0
 143 116 149 134 162 134 c 0
 185 134 210 102 210 71 c 0
 211 49 216 46 256 46 c 0
 310 46 378 83 414 132 c 0
 432 157 438 181 438 235 c 0xd4
 438 317 420 348 368 348 c 0
 283 348 270 303 234 303 c 0
 214 303 201 316 201 336 c 0
 201 348 205 355 213 355 c 0
 221 355 239 369 254 385 c 0
 339 483 373 527 373 537 c 0
 373 539 372 539 367 539 c 0xc8
EndSplineSet
Fore
SplineSet
258 -10 m 0xb8
 198 -10 143 13 143 107 c 0
 143 136 152 160 175 160 c 0
 209 160 239 117 239 84 c 0
 239 72 241 72 264 72 c 0
 370 72 430 137 440 149 c 0
 458 170 464 189 464 240 c 0
 464 325 438 335 400 335 c 0xb8
 309 335 298 290 251 290 c 0
 216 290 201 313 201 334 c 0
 201 350 210 365 227 365 c 1xd8
 253 371 372 502 383 516 c 1
 298 510 136 480 123 480 c 0
 93 480 99 506 96 510 c 1
 85 511 74 519 74 531 c 1
 75 537 75 541 84 547 c 0
 126 574 418 614 450 620 c 0
 477 625 491 629 501 629 c 0
 525 629 547 595 547 578 c 0
 547 553 469 482 412 423 c 1
 426 423 l 2
 473 423 540 363 554 311 c 0
 557 299 558 285 558 271 c 0
 558 221 541 159 513 116 c 0
 463 39 346 -10 258 -10 c 0xb8
EndSplineSet
Validated: 1
Layer: 2
SplineSet
258 -10 m 0,0,1
 143 -10 143 -10 143 107 c 0,2,3
 143 160 143 160 175 160 c 0,4,5
 200 160 200 160 219.5 135 c 128,-1,6
 239 110 239 110 239 84 c 0,7,8
 239 75 239 75 242.5 73.5 c 128,-1,9
 246 72 246 72 264 72 c 0,10,11
 312 72 312 72 354.5 90.5 c 128,-1,12
 397 109 397 109 413.5 123 c 128,-1,13
 430 137 430 137 440 149 c 0,14,15
 464 177 464 177 464 240 c 0,16,17
 464 299 464 299 448.5 317 c 128,-1,18
 433 335 433 335 400 335 c 0,19,20
 349 335 349 335 309 312.5 c 128,-1,21
 269 290 269 290 251 290 c 0,22,23
 227 290 227 290 214 303 c 128,-1,24
 201 316 201 316 201 334 c 0,25,26
 201 347 201 347 208 356 c 128,-1,27
 215 365 215 365 227 365 c 0,28,29
 244 369 244 369 305 431.5 c 128,-1,30
 366 494 366 494 383 516 c 1,31,32
 346 513 346 513 283.5 504 c 128,-1,33
 221 495 221 495 174 487.5 c 128,-1,34
 127 480 127 480 123 480 c 0,35,36
 110 480 110 480 104 486.5 c 128,-1,37
 98 493 98 493 97 501.5 c 2,38,-1
 96 510 l 1,39,40
 87 511 87 511 80.5 516.5 c 128,-1,41
 74 522 74 522 74 531 c 0,42,43
 76 542 76 542 84 547 c 0,44,45
 98 556 98 556 155 569 c 128,-1,46
 212 582 212 582 269.5 591.5 c 128,-1,47
 327 601 327 601 386 610 c 128,-1,48
 445 619 445 619 450 620 c 0,49,50
 499 629 499 629 501 629 c 0,51,52
 518 629 518 629 532.5 610.5 c 128,-1,53
 547 592 547 592 547 578 c 0,54,55
 547 571 547 571 539 558.5 c 128,-1,56
 531 546 531 546 515 528.5 c 128,-1,57
 499 511 499 511 484.5 496.5 c 128,-1,58
 470 482 470 482 447 459 c 128,-1,59
 424 436 424 436 412 423 c 1,60,-1
 426 423 l 2,61,62
 461 423 461 423 502 386.5 c 128,-1,63
 543 350 543 350 554 311 c 0,64,65
 558 295 558 295 558 271 c 0,66,67
 558 185 558 185 513 116 c 0,68,69
 477 60 477 60 402 25 c 128,-1,70
 327 -10 327 -10 258 -10 c 0,0,1
EndSplineSet
EndChar

StartChar: four
Encoding: 52 52 31
Width: 616
Flags: W
HStem: -17 21G<361.5 404.5> 255 83<444.39 552.463>
VStem: 62 339<205.071 461>
LayerCount: 3
Back
SplineSet
331 584 m 0xe0
 354 584 350 612 370 612 c 0
 385 612 395 597 395 587 c 0
 395 577 386 557 373 544 c 0
 351 519 349 511 349 417 c 0xc8
 349 298 357 298 371 298 c 0
 392 298 442 317 450 323 c 0
 453 326 458 327 464 327 c 0
 482 327 511 315 511 294 c 0xe0
 511 281 499 268 477 266 c 0
 462 264 428 256 403 248 c 2
 358 233 l 1
 362 149 l 2
 366 45 386 30 386 14 c 0
 386 1 367 -17 354 -17 c 0
 331 -17 315 34 306 141 c 0xc4
 300 202 298 214 287 214 c 0
 277 214 148 180 98 180 c 0
 73 180 62 187 62 202 c 0
 62 218 75 244 100 282 c 0
 196 425 316 583 331 584 c 0xe0
221 253 m 0
 294 269 301 271 301 305 c 0
 301 324 298 356 295 385 c 2
 288 452 l 1
 246 401 l 2
 208 354 143 253 143 240 c 0xd8
 143 239 143 239 144 239 c 0
 149 239 183 245 221 253 c 0
EndSplineSet
Fore
SplineSet
182 255 m 1
 323 276 326 281 326 303 c 0
 326 324 323 345 319 384 c 2
 315 420 l 1
 289 393 l 2
 256 358 203 288 182 255 c 1
110 172 m 0
 75 172 62 186 62 206 c 0
 62 228 81 260 102 290 c 1
 197 416 330 563 359 581 c 0
 363 583 367 585 370 585 c 0
 384 586 380 612 409 612 c 0
 433 612 447 590 447 575 c 0
 447 559 433 537 421 525 c 0
 402 504 401 497 401 425 c 0
 401 332 405 310 410 310 c 0
 449 310 481 338 502 338 c 0
 536 338 562 316 562 292 c 0
 562 274 548 258 517 255 c 0
 504 254 470 245 446 238 c 2
 410 227 l 1
 414 155 l 2
 419 57 438 42 438 25 c 0
 438 8 416 -17 393 -17 c 0
 330 -17 338 168 322 204 c 1
 281 198 166 172 110 172 c 0
EndSplineSet
Validated: 1
Layer: 2
SplineSet
182 255 m 1,0,1
 236 263 236 263 264 268 c 128,-1,2
 292 273 292 273 306.5 279 c 128,-1,3
 321 285 321 285 323.5 289 c 128,-1,4
 326 293 326 293 326 303 c 0,5,6
 326 316 326 316 319 384 c 2,7,-1
 315 420 l 1,8,-1
 289 393 l 2,9,10
 230 330 230 330 182 255 c 1,0,1
110 172 m 0,11,12
 62 172 62 172 62 206 c 0,13,14
 62 233 62 233 102 290 c 0,15,16
 170 381 170 381 253 474 c 128,-1,17
 336 567 336 567 359 581 c 0,18,19
 367 585 367 585 370 585 c 0,20,21
 375 585 375 585 384 598.5 c 128,-1,22
 393 612 393 612 409 612 c 0,23,24
 426 612 426 612 436.5 600 c 128,-1,25
 447 588 447 588 447 575 c 0,26,27
 447 551 447 551 421 525 c 0,28,29
 407 509 407 509 404 494 c 128,-1,30
 401 479 401 479 401 425 c 0,31,32
 401 310 401 310 410 310 c 0,33,34
 432 310 432 310 463 324 c 128,-1,35
 494 338 494 338 502 338 c 0,36,37
 527 338 527 338 544.5 324 c 128,-1,38
 562 310 562 310 562 292 c 0,39,40
 562 278 562 278 550.5 267.5 c 128,-1,41
 539 257 539 257 517 255 c 0,42,43
 500 254 500 254 446 238 c 2,44,-1
 410 227 l 1,45,-1
 414 155 l 2,46,47
 416 112 416 112 422 83.5 c 128,-1,48
 428 55 428 55 433 42.5 c 128,-1,49
 438 30 438 30 438 25 c 0,50,51
 438 12 438 12 424 -2.5 c 128,-1,52
 410 -17 410 -17 393 -17 c 0,53,54
 365 -17 365 -17 351.5 29 c 128,-1,55
 338 75 338 75 332.5 134 c 128,-1,56
 327 193 327 193 322 204 c 1,57,58
 311 202 311 202 265 193.5 c 128,-1,59
 219 185 219 185 177 178.5 c 128,-1,60
 135 172 135 172 110 172 c 0,11,12
EndSplineSet
EndChar

StartChar: five
Encoding: 53 53 32
Width: 549
Flags: W
HStem: -12 84<143.422 317.016> 355 77<279.757 368.865>
VStem: 112 78<346.835 500.658> 381 83<159.597 347.477>
LayerCount: 3
Back
SplineSet
355 260 m 0
 355 323 338 368 311 368 c 0
 283 368 215 333 188 301 c 0
 171 282 162 273 153 273 c 0
 146 273 139 279 130 288 c 0
 119 299 113 375 113 445 c 0
 113 508 118 566 127 572 c 0
 147 584 331 581 392 595 c 0
 413 600 429 602 440 602 c 0
 459 602 464 594 464 588 c 0
 464 567 320 526 245 526 c 2
 229 526 l 2
 186 526 161 508 161 476 c 0
 161 456 170 449 170 413 c 0
 170 405 169 397 168 390 c 2
 162 359 l 1
 196 380 l 2
 236 405 282 419 316 419 c 0
 328 419 339 418 347 414 c 0
 384 398 412 325 412 252 c 0
 412 235 410 218 407 202 c 0
 379 53 311 -12 183 -12 c 0
 140 -12 132 -8 104 27 c 0
 77 60 64 86 64 111 c 0
 64 120 67 136 71 136 c 0
 74 136 79 129 87 113 c 0
 114 63 149 46 218 46 c 0
 280 46 308 70 336 147 c 0
 349 182 355 223 355 260 c 0
EndSplineSet
Fore
SplineSet
381 266 m 0
 381 317 365 355 346 355 c 0
 320 355 246 322 217 292 c 0
 196 271 182 260 168 260 c 0
 157 260 147 266 134 279 c 1
 120 296 112 368 112 436 c 0
 112 502 119 564 133 571 c 0
 163 587 356 580 428 595 c 0
 448 600 465 601 477 601 c 0
 507 601 516 590 516 578 c 0
 516 575 516 569 510 563 c 0
 483 536 341 507 271 507 c 2
 253 507 l 2
 212 507 190 495 190 473 c 0
 190 455 201 449 201 413 c 0
 201 404 199 392 198 386 c 1
 208 391 l 1
 267 423 323 432 352 432 c 0
 360 432 378 432 391 426 c 0
 438 406 464 323 464 257 c 0
 464 239 462 222 459 206 c 0
 430 54 352 -12 201 -12 c 0
 149 -12 138 -7 107 32 c 0
 83 61 63 94 63 125 c 0
 63 137 67 162 84 162 c 1
 96 158 96 161 112 132 c 0
 137 85 169 72 240 72 c 0
 306 72 331 93 360 160 c 0
 374 192 381 231 381 266 c 0
EndSplineSet
Validated: 1
Layer: 2
SplineSet
381 266 m 0,0,1
 381 304 381 304 370.5 329.5 c 128,-1,2
 360 355 360 355 346 355 c 0,3,4
 325 355 325 355 281.5 334.5 c 128,-1,5
 238 314 238 314 217 292 c 0,6,7
 185 260 185 260 168 260 c 0,8,9
 153 260 153 260 134 279 c 0,10,11
 112 306 112 306 112 436 c 0,12,13
 112 560 112 560 133 571 c 0,14,15
 149 579 149 579 271.5 583.5 c 128,-1,16
 394 588 394 588 428 595 c 0,17,18
 452 601 452 601 477 601 c 0,19,20
 516 601 516 601 516 578 c 0,21,22
 516 569 516 569 510 563 c 0,23,24
 491 544 491 544 409 525.5 c 128,-1,25
 327 507 327 507 271 507 c 2,26,-1
 253 507 l 2,27,28
 190 507 190 507 190 473 c 0,29,30
 190 466 190 466 195.5 449.5 c 128,-1,31
 201 433 201 433 201 413 c 0,32,33
 201 404 201 404 198 386 c 1,34,-1
 208 391 l 2,35,36
 284 432 284 432 352 432 c 0,37,38
 378 432 378 432 391 426 c 0,39,40
 424 412 424 412 444 361.5 c 128,-1,41
 464 311 464 311 464 257 c 0,42,43
 464 233 464 233 459 206 c 0,44,45
 437 92 437 92 375.5 40 c 128,-1,46
 314 -12 314 -12 201 -12 c 0,47,48
 162 -12 162 -12 146 -4.5 c 128,-1,49
 130 3 130 3 107 32 c 0,50,51
 63 85 63 85 63 125 c 0,52,53
 63 162 63 162 84 162 c 0,54,55
 85 162 85 162 88.5 161 c 128,-1,56
 92 160 92 160 92 159.5 c 128,-1,57
 92 159 92 159 94.5 157.5 c 128,-1,58
 97 156 97 156 98 154.5 c 128,-1,59
 99 153 99 153 101.5 150 c 128,-1,60
 104 147 104 147 106 142.5 c 128,-1,61
 108 138 108 138 112 132 c 0,62,63
 130 97 130 97 158 84.5 c 128,-1,64
 186 72 186 72 240 72 c 0,65,66
 289 72 289 72 313.5 90.5 c 128,-1,67
 338 109 338 109 360 160 c 0,68,69
 381 208 381 208 381 266 c 0,0,1
EndSplineSet
EndChar

StartChar: six
Encoding: 54 54 33
Width: 495
Flags: W
HStem: -7 66<168.279 247.232> 249 76<217.653 338.118>
VStem: 60 90<73.3188 195.804> 352 82<148.522 232.958>
LayerCount: 3
Back
SplineSet
160 272 m 0
 178 272 209 312 248 312 c 0
 283 312 337 288 359 264 c 0
 374 247 382 220 382 195 c 0
 382 155 367 150 348 108 c 0
 336 80 262 14 232 2 c 0
 218 -3 190 -7 170 -7 c 0
 109 -7 60 64 60 151 c 0
 60 228 164 566 164 566 c 2
 170 590 180 619 204 619 c 0
 215 619 225 612 225 600 c 0
 225 543 149 344 149 288 c 0
 149 276 153 272 160 272 c 0
121 155 m 0
 121 64 161 46 171 46 c 0
 184 46 205 57 257 87 c 0
 286 103 326 169 326 201 c 0
 326 224 320 235 297 246 c 0
 282 255 260 262 250 262 c 0
 223 261 177 237 146 207 c 0
 127 188 121 179 121 155 c 0
EndSplineSet
Fore
SplineSet
352 201 m 0
 352 234 299 249 281 249 c 0
 258 248 210 229 174 198 c 0
 152 179 150 172 150 155 c 0
 150 71 189 59 192 59 c 0
 198 59 209 61 282 98 c 0
 310 112 352 174 352 201 c 0
182 286 m 1
 200 292 235 325 279 325 c 0
 321 325 382 302 408 275 c 0
 428 253 434 222 434 200 c 0
 434 157 418 153 399 111 c 0
 386 83 306 16 266 3 c 0
 252 -2 221 -7 191 -7 c 0
 112 -7 60 70 60 157 c 0
 60 232 167 548 170 559 c 0
 178 583 191 619 229 619 c 0
 248 619 267 606 267 588 c 0
 267 528 182 343 182 286 c 1
EndSplineSet
Validated: 1
Layer: 2
SplineSet
352 201 m 0,0,1
 352 223 352 223 326 236 c 128,-1,2
 300 249 300 249 281 249 c 0,3,4
 262 248 262 248 230.5 234 c 128,-1,5
 199 220 199 220 174 198 c 0,6,7
 158 184 158 184 154 176.5 c 128,-1,8
 150 169 150 169 150 155 c 0,9,10
 150 117 150 117 160.5 93.5 c 128,-1,11
 171 70 171 70 179.5 64.5 c 128,-1,12
 188 59 188 59 192 59 c 0,13,14
 205 59 205 59 282 98 c 0,15,16
 303 108 303 108 327.5 144.5 c 128,-1,17
 352 181 352 181 352 201 c 0,0,1
182 286 m 1,18,19
 187 288 187 288 203.5 298.5 c 128,-1,20
 220 309 220 309 240 317 c 128,-1,21
 260 325 260 325 279 325 c 0,22,23
 311 325 311 325 350 310 c 128,-1,24
 389 295 389 295 408 275 c 0,25,26
 434 246 434 246 434 200 c 0,27,28
 434 181 434 181 430 169 c 128,-1,29
 426 157 426 157 415.5 141 c 128,-1,30
 405 125 405 125 399 111 c 0,31,32
 389 89 389 89 342 51 c 128,-1,33
 295 13 295 13 266 3 c 0,34,35
 238 -7 238 -7 191 -7 c 0,36,37
 133 -7 133 -7 96.5 41.5 c 128,-1,38
 60 90 60 90 60 157 c 0,39,40
 60 178 60 178 71 226 c 128,-1,41
 82 274 82 274 98 328.5 c 128,-1,42
 114 383 114 383 129.5 433.5 c 128,-1,43
 145 484 145 484 157.5 521 c 128,-1,44
 170 558 170 558 170 559 c 0,45,46
 190 619 190 619 229 619 c 0,47,48
 244 619 244 619 255.5 610 c 128,-1,49
 267 601 267 601 267 588 c 0,50,51
 267 558 267 558 224.5 436 c 128,-1,52
 182 314 182 314 182 286 c 1,18,19
EndSplineSet
EndChar

StartChar: seven
Encoding: 55 55 34
Width: 491
Flags: W
HStem: 529 95<227 344>
VStem: 104 82<340.992 521.406>
LayerCount: 3
Back
SplineSet
132 360 m 0xb0
 101 360 104 380 104 473 c 2
 104 583 l 1
 266 614 l 2
 297 620 320 624 338 624 c 0
 370 624 383 610 383 572 c 0xc0
 383 482 317 195 283 25 c 0
 277 -3 272 -8 252 -8 c 0
 233 -8 229 -6 229 13 c 0
 229 55 252 162 266 225 c 0
 285 308 318 519 318 550 c 0
 318 556 318 555 295 555 c 0
 279 555 257 555 232 553 c 2
 151 547 l 1
 155 496 l 2
 156 487 156 476 156 465 c 0
 156 442 155 418 152 402 c 0
 148 369 144 360 132 360 c 0xb0
EndSplineSet
Fore
SplineSet
146 334 m 0
 111 334 104 350 104 420 c 2
 104 581 l 1
 296 614 l 2
 332 620 357 624 377 624 c 0
 420 624 435 601 435 562 c 0
 435 475 373 217 333 34 c 0
 326 4 315 -8 283 -8 c 0
 252 -8 241 -2 241 24 c 0
 241 65 267 168 284 229 c 0
 306 308 340 484 344 529 c 1
 332 529 l 2
 313 529 288 529 260 527 c 2
 182 522 l 1
 185 484 l 2
 186 474 186 463 186 452 c 0
 186 355 169 334 146 334 c 0
EndSplineSet
Validated: 1
Layer: 2
SplineSet
146 334 m 0,0,1
 120 334 120 334 112 350.5 c 128,-1,2
 104 367 104 367 104 420 c 2,3,-1
 104 581 l 1,4,-1
 296 614 l 2,5,6
 356 624 356 624 377 624 c 0,7,8
 435 624 435 624 435 562 c 0,9,10
 435 537 435 537 429 494.5 c 128,-1,11
 423 452 423 452 410 388.5 c 128,-1,12
 397 325 397 325 387 277 c 128,-1,13
 377 229 377 229 358.5 147.5 c 128,-1,14
 340 66 340 66 333 34 c 0,15,16
 328 11 328 11 317 1.5 c 128,-1,17
 306 -8 306 -8 283 -8 c 0,18,19
 259 -8 259 -8 250 -1.5 c 128,-1,20
 241 5 241 5 241 24 c 0,21,22
 241 75 241 75 284 229 c 0,23,24
 300 286 300 286 320.5 390 c 128,-1,25
 341 494 341 494 344 529 c 1,26,-1
 332 529 l 2,27,28
 288 529 288 529 260 527 c 2,29,-1
 182 522 l 1,30,-1
 185 484 l 2,31,32
 186 474 186 474 186 452 c 0,33,34
 186 384 186 384 175.5 359 c 128,-1,35
 165 334 165 334 146 334 c 0,0,1
EndSplineSet
EndChar

StartChar: eight
Encoding: 56 56 35
Width: 578
Flags: W
HStem: -22 83<257.942 339.601> 554 58<271.956 391.662>
VStem: 90 104<392.754 492.432> 108 93<113.622 198.764> 351 77<71.3505 157.213> 448 70<468.557 509.074>
LayerCount: 3
Back
SplineSet
200 590 m 0xf0
 237 590 207 612 286 612 c 0
 406 612 440 517 440 490 c 0xf0
 440 428 282 334 282 291 c 0xe2
 282 256 376 192 376 94 c 0
 376 21 314 -22 275 -22 c 0
 205 -22 108 113 108 132 c 0xe5
 108 167 162 251 162 279 c 0xe2
 162 320 90 357 90 443 c 0
 90 519 153 590 200 590 c 0xf0
396 486 m 0xe880
 396 510 325 567 284 567 c 0
 264 567 271 565 207 535 c 0
 151 508 142 448 142 438 c 0
 142 402 208 331 212 331 c 0
 224 331 323 433 367 455 c 0
 386 466 396 475 396 486 c 0xe880
273 35 m 0
 299 35 325 68 325 97 c 0
 325 125 306 158 265 204 c 0
 249 223 237 232 226 232 c 0
 207 232 171 182 171 147 c 0xe5
 171 97 240 35 273 35 c 0
EndSplineSet
Fore
SplineSet
250 231 m 0xdc
 240 231 203 194 201 160 c 1
 201 116 276 61 305 61 c 0
 323 61 351 84 351 110 c 0
 351 150 270 231 250 231 c 0xdc
448 486 m 0
 448 497 380 554 321 554 c 0
 309 554 312 551 252 523 c 0
 203 500 194 446 194 438 c 0xec
 194 416 234 364 253 346 c 1
 278 364 368 443 421 466 c 0
 439 474 448 482 448 486 c 0
308 -22 m 1
 213 -19 108 112 108 138 c 0xdc
 108 175 162 258 188 280 c 1
 188 312 90 351 90 437 c 0
 90 518 182 591 239 591 c 0
 265 591 246 612 329 612 c 0
 478 612 518 515 518 482 c 1
 515 411 340 322 340 290 c 0
 340 262 428 197 428 102 c 0
 428 26 361 -22 308 -22 c 1
EndSplineSet
Validated: 1
Layer: 2
SplineSet
250 231 m 0,0,1
 241 231 241 231 221.5 207 c 128,-1,2
 202 183 202 183 201 160 c 0,3,4
 201 129 201 129 240.5 95 c 128,-1,5
 280 61 280 61 305 61 c 0,6,7
 320 61 320 61 335.5 76.5 c 128,-1,8
 351 92 351 92 351 110 c 0,9,10
 351 138 351 138 309 184.5 c 128,-1,11
 267 231 267 231 250 231 c 0,0,1
448 486 m 0,12,13
 448 492 448 492 429 508 c 128,-1,14
 410 524 410 524 379 539 c 128,-1,15
 348 554 348 554 321 554 c 0,16,17
 317 554 317 554 313 553 c 128,-1,18
 309 552 309 552 305 549.5 c 128,-1,19
 301 547 301 547 286 539.5 c 128,-1,20
 271 532 271 532 252 523 c 0,21,22
 230 513 230 513 215.5 492.5 c 128,-1,23
 201 472 201 472 197.5 458.5 c 128,-1,24
 194 445 194 445 194 438 c 0,25,26
 194 423 194 423 215 392.5 c 128,-1,27
 236 362 236 362 253 346 c 1,28,29
 257 349 257 349 292.5 377.5 c 128,-1,30
 328 406 328 406 362.5 431 c 128,-1,31
 397 456 397 456 421 466 c 0,32,33
 448 478 448 478 448 486 c 0,12,13
308 -22 m 1,34,35
 275 -21 275 -21 237 0.5 c 128,-1,36
 199 22 199 22 172 49.5 c 128,-1,37
 145 77 145 77 126.5 102.5 c 128,-1,38
 108 128 108 128 108 138 c 0,39,40
 108 164 108 164 137 213 c 128,-1,41
 166 262 166 262 188 280 c 1,42,43
 188 290 188 290 172.5 306 c 128,-1,44
 157 322 157 322 139 338 c 128,-1,45
 121 354 121 354 105.5 381 c 128,-1,46
 90 408 90 408 90 437 c 0,47,48
 90 494 90 494 141.5 542.5 c 128,-1,49
 193 591 193 591 239 591 c 0,50,51
 247 591 247 591 252.5 594.5 c 128,-1,52
 258 598 258 598 262.5 601.5 c 128,-1,53
 267 605 267 605 284 608.5 c 128,-1,54
 301 612 301 612 329 612 c 0,55,56
 381 612 381 612 420.5 596.5 c 128,-1,57
 460 581 460 581 480 558.5 c 128,-1,58
 500 536 500 536 509 516.5 c 128,-1,59
 518 497 518 497 518 482 c 0,60,61
 517 458 517 458 489 426.5 c 128,-1,62
 461 395 461 395 428 371 c 128,-1,63
 395 347 395 347 367.5 323.5 c 128,-1,64
 340 300 340 300 340 290 c 128,-1,65
 340 280 340 280 362 252.5 c 128,-1,66
 384 225 384 225 406 184 c 128,-1,67
 428 143 428 143 428 102 c 0,68,69
 428 48 428 48 389.5 13 c 128,-1,70
 351 -22 351 -22 308 -22 c 1,34,35
EndSplineSet
EndChar

StartChar: nine
Encoding: 57 57 36
Width: 514
Flags: W
HStem: 285 70<155.119 268.077> 546 70<264.728 360.896>
VStem: 69 83<358.355 457.661> 335 80<8.7897 318.09> 362 88<441.303 544.397>
LayerCount: 3
Back
SplineSet
309 80 m 0xf0
 309 172 316 264 316 310 c 0
 316 339 313 350 305 350 c 0
 297 350 284 338 262 322 c 0
 236 302 220 298 176 298 c 0
 128 299 119 302 99 324 c 0
 79 347 69 370 69 395 c 0
 69 406 71 418 75 430 c 0
 99 513 153 563 252 600 c 0
 282 611 298 616 312 616 c 0
 321 616 398 611 398 534 c 0xe8
 398 468 363 451 363 151 c 0
 363 18 372 40 372 19 c 0
 372 -3 360 -22 341 -22 c 0
 317 -22 309 -5 309 80 c 0xf0
172 342 m 0
 219 342 336 396 336 519 c 0
 336 556 337 559 296 559 c 0
 246 559 211 546 180 515 c 0
 143 477 122 429 122 393 c 0
 122 368 132 342 172 342 c 0
EndSplineSet
Fore
SplineSet
330 546 m 0xe8
 201 546 152 435 152 393 c 0
 152 371 161 355 194 355 c 0
 242 355 362 405 362 519 c 0
 362 524 362 539 361 544 c 1
 361 544 348 546 330 546 c 0xe8
380 -22 m 0
 352 -22 335 -4 335 82 c 0xf0
 335 164 342 264 342 311 c 0
 342 321 342 330 341 334 c 1
 305 311 l 2
 273 291 253 285 205 285 c 0
 135 285 122 293 102 315 c 0
 83 336 69 360 69 391 c 0
 69 403 72 416 76 429 c 0
 102 512 162 563 280 600 c 0
 322 613 338 616 351 616 c 0
 376 616 450 602 450 525 c 0xe8
 450 458 415 447 415 157 c 0xf0
 415 30 424 53 424 31 c 0
 424 -10 398 -22 380 -22 c 0
EndSplineSet
Validated: 1
Layer: 2
SplineSet
330 546 m 0,0,1
 285 546 285 546 248.5 528.5 c 128,-1,2
 212 511 212 511 192 485 c 128,-1,3
 172 459 172 459 162 435 c 128,-1,4
 152 411 152 411 152 393 c 0,5,6
 152 355 152 355 194 355 c 0,7,8
 222 355 222 355 259 371 c 128,-1,9
 296 387 296 387 329 427 c 128,-1,10
 362 467 362 467 362 519 c 0,11,12
 362 539 362 539 361 544 c 1,13,14
 348 546 348 546 330 546 c 0,0,1
380 -22 m 0,15,16
 357 -22 357 -22 346 -0.5 c 128,-1,17
 335 21 335 21 335 82 c 0,18,19
 335 127 335 127 338.5 209.5 c 128,-1,20
 342 292 342 292 342 311 c 128,-1,21
 342 330 342 330 341 334 c 2,22,-1
 305 311 l 2,23,24
 281 296 281 296 260.5 290.5 c 128,-1,25
 240 285 240 285 205 285 c 0,26,27
 155 285 155 285 136.5 291 c 128,-1,28
 118 297 118 297 102 315 c 0,29,30
 69 351 69 351 69 391 c 0,31,32
 69 406 69 406 76 429 c 0,33,34
 96 491 96 491 144 531.5 c 128,-1,35
 192 572 192 572 280 600 c 0,36,37
 332 616 332 616 351 616 c 0,38,39
 363 616 363 616 377.5 612.5 c 128,-1,40
 392 609 392 609 409.5 600 c 128,-1,41
 427 591 427 591 438.5 571.5 c 128,-1,42
 450 552 450 552 450 525 c 0,43,44
 450 503 450 503 441 470 c 128,-1,45
 432 437 432 437 423.5 360.5 c 128,-1,46
 415 284 415 284 415 157 c 0,47,48
 415 114 415 114 416.5 87.5 c 128,-1,49
 418 61 418 61 419.5 54.5 c 128,-1,50
 421 48 421 48 422.5 42.5 c 128,-1,51
 424 37 424 37 424 31 c 0,52,53
 424 3 424 3 410.5 -9.5 c 128,-1,54
 397 -22 397 -22 380 -22 c 0,15,16
EndSplineSet
EndChar

StartChar: colon
Encoding: 58 58 37
Width: 401
Flags: W
HStem: -15 163<153.249 216.63>
VStem: 131 113<16.6164 125.375 400.67 506.125>
LayerCount: 3
Back
SplineSet
144 75 m 0
 144 105 175 135 195 135 c 0
 224 135 231 91 231 84 c 0
 231 71 220 56 214 33 c 0
 208 10 197 -2 185 -2 c 0
 161 -2 144 48 144 75 c 0
138 444 m 0
 138 462 155 519 181 519 c 0
 190 519 200 512 213 497 c 0
 227 480 231 468 231 444 c 0
 231 419 229 413 220 413 c 0
 213 413 206 404 203 391 c 0
 199 374 194 369 181 369 c 0
 167 369 161 376 149 404 c 0
 141 423 138 433 138 444 c 0
EndSplineSet
Fore
SplineSet
180 532 m 0
 208 532 245 493 245 442 c 0
 245 405 232 400 222 400 c 1
 212 392 219 356 182 356 c 0
 163 356 152 363 137 399 c 0
 129 417 125 429 125 442 c 0
 125 471 146 532 180 532 c 0
185 -15 m 0
 146 -15 131 54 131 75 c 1
 133 112 164 148 195 148 c 0
 234 148 244 97 244 84 c 0
 244 65 234 58 227 30 c 0
 219 0 202 -15 185 -15 c 0
EndSplineSet
Validated: 1
Layer: 2
SplineSet
180 532 m 128,-1,1
 203 532 203 532 224 505 c 128,-1,2
 245 478 245 478 245 442 c 0,3,4
 245 400 245 400 222 400 c 0,5,6
 219 398 219 398 216 386 c 128,-1,7
 213 374 213 374 205.5 365 c 128,-1,8
 198 356 198 356 182 356 c 0,9,10
 167 356 167 356 157.5 364.5 c 128,-1,11
 148 373 148 373 137 399 c 0,12,13
 125 426 125 426 125 442 c 0,14,15
 125 469 125 469 141 500.5 c 128,-1,0
 157 532 157 532 180 532 c 128,-1,1
185 -15 m 0,16,17
 159 -15 159 -15 145 18 c 128,-1,18
 131 51 131 51 131 75 c 0,19,20
 133 103 133 103 152.5 125.5 c 128,-1,21
 172 148 172 148 195 148 c 0,22,23
 220 148 220 148 232 125 c 128,-1,24
 244 102 244 102 244 84 c 0,25,26
 244 74 244 74 237 58 c 128,-1,27
 230 42 230 42 227 30 c 0,28,29
 215 -15 215 -15 185 -15 c 0,16,17
EndSplineSet
EndChar

StartChar: semicolon
Encoding: 59 59 38
Width: 367
Flags: W
HStem: 282 169<159.902 247.674>
VStem: 135 127<305.813 431.19>
LayerCount: 3
Back
SplineSet
202 126 m 0x80
 208 132 215 135 221 135 c 0
 235 135 238 121 238 117 c 0
 238 95 163 -89 150 -95 c 0
 147 -96 144 -97 141 -97 c 0
 131 -97 120 -88 120 -76 c 0
 120 -56 189 113 202 126 c 0x80
218 295 m 0
 193 295 148 306 148 370 c 0x40
 148 409 156 422 184 431 c 0
 200 436 209 438 216 438 c 0
 229 438 249 423 249 369 c 0
 249 347 243 295 218 295 c 0
EndSplineSet
Fore
SplineSet
216 451 m 0
 253 451 262 398 262 367 c 0
 262 325 247 282 218 282 c 0
 186 282 135 298 135 370 c 0
 135 409 143 431 180 443 c 0
 196 448 208 451 216 451 c 0
221 148 m 0
 244 148 251 128 251 118 c 0
 251 89 175 -100 154 -107 c 0
 152 -108 147 -110 141 -110 c 0
 119 -110 107 -97 107 -71 c 1
 111 -49 177 121 193 135 c 0
 200 142 209 148 221 148 c 0
EndSplineSet
Validated: 1
Layer: 2
SplineSet
216 451 m 0,0,1
 241 451 241 451 251.5 424.5 c 128,-1,2
 262 398 262 398 262 367 c 0,3,4
 262 333 262 333 250.5 307.5 c 128,-1,5
 239 282 239 282 218 282 c 0,6,7
 186 282 186 282 160.5 302 c 128,-1,8
 135 322 135 322 135 370 c 0,9,10
 135 401 135 401 144.5 417.5 c 128,-1,11
 154 434 154 434 180 443 c 0,12,13
 206 451 206 451 216 451 c 0,0,1
221 148 m 128,-1,15
 236 148 236 148 243.5 138 c 128,-1,16
 251 128 251 128 251 118 c 0,17,18
 251 94 251 94 210 -4 c 128,-1,19
 169 -102 169 -102 154 -107 c 0,20,21
 148 -110 148 -110 141 -110 c 0,22,23
 107 -110 107 -110 107 -71 c 1,24,25
 111 -51 111 -51 146.5 37 c 128,-1,26
 182 125 182 125 193 135 c 0,27,14
 206 148 206 148 221 148 c 128,-1,15
EndSplineSet
EndChar

StartChar: less
Encoding: 60 60 39
Width: 545
Flags: W
DStem2: 161 452 224 386 0.741874 0.67054<-80.0482 327.296>
LayerCount: 3
Back
SplineSet
430 19 m 0x40
 430 8 404 -20 389 -20 c 0
 383 -20 378 -16 373 -7 c 0
 369 1 338 26 304 50 c 0
 198 124 74 276 74 329 c 0
 74 352 136 411 170 442 c 2
 326 583 l 2
 373 626 401 646 418 646 c 0
 436 646 440 625 440 619 c 0x80
 440 593 398 571 323 496 c 2
 215 395 l 2
 184 366 158 332 158 321 c 0
 158 295 295 137 351 99 c 0
 387 74 430 35 430 19 c 0x40
EndSplineSet
Fore
SplineSet
416 659 m 0
 425 659 453 652 453 620 c 0
 453 584 417 566 332 487 c 2
 224 386 l 2
 193 356 174 329 171 321 c 1
 176 296 303 148 358 110 c 0
 384 92 443 47 443 19 c 0
 443 3 416 -33 390 -33 c 0
 380 -33 370 -27 362 -13 c 0
 357 -6 335 13 297 39 c 0
 191 113 61 267 61 329 c 0
 61 354 98 394 161 452 c 2
 317 593 l 2
 361 632 397 659 416 659 c 0
EndSplineSet
Validated: 1
Layer: 2
SplineSet
416 659 m 0,0,1
 427 659 427 659 440 650 c 128,-1,2
 453 641 453 641 453 620 c 0,3,4
 453 609 453 609 449 600.5 c 128,-1,5
 445 592 445 592 434 580 c 128,-1,6
 423 568 423 568 412 558 c 128,-1,7
 401 548 401 548 376.5 527 c 128,-1,8
 352 506 352 506 332 487 c 2,9,-1
 224 386 l 2,10,11
 179 343 179 343 171 321 c 1,12,13
 175 301 175 301 246.5 219 c 128,-1,14
 318 137 318 137 358 110 c 0,15,16
 443 51 443 51 443 19 c 0,17,18
 443 5 443 5 425.5 -14 c 128,-1,19
 408 -33 408 -33 390 -33 c 0,20,21
 373 -33 373 -33 362 -13 c 0,22,23
 351 2 351 2 297 39 c 0,24,25
 216 96 216 96 138.5 189.5 c 128,-1,26
 61 283 61 283 61 329 c 0,27,28
 61 360 61 360 161 452 c 2,29,-1
 317 593 l 2,30,31
 391 659 391 659 416 659 c 0,0,1
EndSplineSet
EndChar

StartChar: equal
Encoding: 61 61 40
Width: 515
Flags: W
HStem: 187 89<115.867 379.971> 325 94<109.354 344.729> 325 86<103.562 312.679>
VStem: 95 318<214.62 254.906>
LayerCount: 3
Back
SplineSet
275 262 m 0
 379 262 400 257 400 241 c 0
 400 219 318 200 205 200 c 0
 115 200 108 202 108 221 c 0
 108 244 123 246 173 256 c 0
 190 260 232 262 275 262 c 0
312 406 m 0
 357 406 366 402 366 384 c 0
 366 359 339 352 208 341 c 0
 179 339 159 338 146 338 c 0
 120 338 117 343 113 357 c 0
 110 366 109 374 109 379 c 0
 109 386 107 386 194 398 c 0
 234 402 283 406 312 406 c 0
EndSplineSet
Fore
SplineSet
286 276 m 0x90
 398 276 413 261 413 241 c 0
 413 214 359 187 199 187 c 0
 124 187 95 188 95 222 c 0
 95 235 102 249 119 256 c 0
 151 269 222 276 286 276 c 0x90
314 419 m 0xd0
 358 419 379 413 379 385 c 0
 379 373 374 360 359 352 c 0
 326 334 190 325 145 325 c 0xd0
 118 325 108 330 101 353 c 0
 100 358 96 369 96 379 c 0
 96 401 119 401 192 411 c 1xb0
 246 416 286 419 314 419 c 0xd0
EndSplineSet
Validated: 1
Layer: 2
SplineSet
286 276 m 0,0,1
 339 276 339 276 368.5 271 c 128,-1,2
 398 266 398 266 405.5 259 c 128,-1,3
 413 252 413 252 413 241 c 128,-1,4
 413 230 413 230 401.5 221 c 128,-1,5
 390 212 390 212 366 204 c 128,-1,6
 342 196 342 196 299.5 191.5 c 128,-1,7
 257 187 257 187 199 187 c 0,8,9
 136 187 136 187 115.5 192.5 c 128,-1,10
 95 198 95 198 95 222 c 128,-1,11
 95 246 95 246 119 256 c 0,12,13
 168 276 168 276 286 276 c 0,0,1
314 419 m 0,14,15
 349 419 349 419 364 412 c 128,-1,16
 379 405 379 405 379 385 c 0,17,18
 379 363 379 363 359 352 c 0,19,20
 337 340 337 340 264 332.5 c 128,-1,21
 191 325 191 325 145 325 c 0,22,23
 124 325 124 325 115 330.5 c 128,-1,24
 106 336 106 336 101 353 c 0,25,26
 96 378 96 378 96 379 c 0,27,28
 96 393 96 393 110 397.5 c 128,-1,29
 124 402 124 402 167.703453359 407.759648425 c 0,30,31
 183 410 183 410 192 411 c 0,32,33
 278 419 278 419 314 419 c 0,14,15
EndSplineSet
EndChar

StartChar: greater
Encoding: 62 62 41
Width: 594
Flags: W
VStem: 179 101<-35.7241 18.285>
LayerCount: 3
Back
SplineSet
125 566 m 0x80
 125 580.894 156.856 588 164 588 c 0
 171 588 219 555 243 532 c 0
 380 408 489 357 489 319 c 0
 489 298 463 263 373 143 c 0
 318 69 271 0 268 -9 c 0
 263 -23 241 -33 223 -33 c 0
 202 -33 192 -21 192 -13 c 0
 192 -0 225 49 239 55 c 0
 251 59 269 84 377 244 c 0
 397 274 414 305 414 313 c 0x40
 414 320 367 360 309 401 c 0
 182 492 125 542 125 566 c 0x80
EndSplineSet
Fore
SplineSet
400 311 m 1
 355 363 112 507 112 565 c 0
 112 589 145 601 163 601 c 0
 184 601 250 544 252 542 c 0
 399 409 502 366 502 319 c 0
 502 292 470 252 383 135 c 0
 325 57 284 -9 280 -13 c 1
 270 -34 245 -46 222 -46 c 0
 199 -46 179 -33 179 -14 c 0
 179 12 220 61 234 67 c 0
 247 73 389 279 400 311 c 1
EndSplineSet
Validated: 1
Layer: 2
SplineSet
400 311 m 1,0,1
 384 330 384 330 309 383.5 c 128,-1,2
 234 437 234 437 173 488.5 c 128,-1,3
 112 540 112 540 112 565 c 0,4,5
 112 581 112 581 129 591 c 128,-1,6
 146 601 146 601 163 601 c 0,7,8
 172 601 172 601 194.5 586 c 128,-1,9
 217 571 217 571 233 558 c 128,-1,10
 249 545 249 545 252 542 c 0,11,12
 309 491 309 491 378 439.5 c 128,-1,13
 447 388 447 388 474.5 364 c 128,-1,14
 502 340 502 340 502 319 c 0,15,16
 502 302 502 302 483 273 c 128,-1,17
 464 244 464 244 406.911048758 167.100309587 c 0,18,19
 391 146 391 146 383 135 c 0,20,21
 358 101 358 101 333 64.5 c 128,-1,22
 308 28 308 28 294.5 8 c 128,-1,23
 281 -12 281 -12 280 -13 c 0,24,25
 264 -46 264 -46 222 -46 c 0,26,27
 204 -46 204 -46 191.5 -37 c 128,-1,28
 179 -28 179 -28 179 -14 c 0,29,30
 179 4 179 4 200.5 33 c 128,-1,31
 222 62 222 62 234 67 c 0,32,33
 244 72 244 72 318 180 c 128,-1,34
 392 288 392 288 400 311 c 1,0,1
EndSplineSet
EndChar

StartChar: question
Encoding: 63 63 42
Width: 632
Flags: W
HStem: -32 145<261.579 335.033> 533 21G<238 304> 635 71<267.605 294> 781 74<262.381 358.876>
VStem: 130 69<630.977 722.513> 250 118<4.86215 81.7903> 258 101<637.186 694.959> 268 74<225.475 398> 404 72<577.116 736.173>
LayerCount: 3
Back
SplineSet
263 36 m 0xe4
 263 90 285 100 290 100 c 0
 301 100 355 63 355 55 c 1
 355 55 332 -19 292 -19 c 0
 275 -19 263 -5 263 36 c 0xe4
186 685 m 0xea80
 186 665 228 577 252 577 c 0
 284 577 308 630 308 639 c 0
 308 646 302 648 289 648 c 0
 277 648 271 654 271 661 c 0
 271 680 299 693 311 693 c 0
 325 693 346 675 346 639 c 0xe980
 346 611 331 546 267 546 c 0
 217 546 143 617 143 687 c 0
 143 760 246 842 315 842 c 0
 393 842 463 745 463 656 c 0xf0
 463 598 433 538 363 448 c 2
 328 402 l 1
 329 327 l 2
 329 317 330 308 330 300 c 0
 330 252 324 231 310 231 c 0
 288 231 281 258 281 338 c 0
 281 413 284 444 338 493 c 0
 387 536 417 607 417 667 c 0
 417 687 414 706 407 722 c 0
 396 751 345 794 317 794 c 0
 271 794 186 726 186 685 c 0xea80
EndSplineSet
Fore
SplineSet
250 34 m 0xfc80
 250 93 273 113 289 113 c 0
 311 113 368 72 368 55 c 0
 368 52 345 -32 293 -32 c 0
 256 -32 250 9 250 34 c 0xfc80
311 218 m 0
 272 218 268 265 268 338 c 0xf980
 268 418 273 452 329 503 c 1
 378 546 404 616 404 667 c 0
 404 692 399 708 395 717 c 0
 384 745 336 781 317 781 c 0
 277 781 199 717 199 685 c 1
 200 665 237 594 252 590 c 1
 272 592 289 622 294 635 c 1
 293 635 258 636 258 660 c 0
 258 688 292 706 311 706 c 0
 334 706 359 681 359 639 c 0xfa80
 359 606 341 533 267 533 c 0
 209 533 130 610 130 687 c 0
 130 769 241 855 315 855 c 0
 403 855 476 749 476 656 c 0
 476 593 443 531 373 440 c 2
 341 398 l 1
 342 327 l 1
 342 295 l 2xf980
 342 258 339 218 311 218 c 0
EndSplineSet
Validated: 1
Layer: 2
SplineSet
250 34 m 0,0,1
 250 74 250 74 262 93.5 c 128,-1,2
 274 113 274 113 289 113 c 0,3,4
 306 113 306 113 337 90.5 c 128,-1,5
 368 68 368 68 368 55 c 0,6,7
 368 50 368 50 361 31 c 128,-1,8
 354 12 354 12 335 -10 c 128,-1,9
 316 -32 316 -32 293 -32 c 0,10,11
 250 -32 250 -32 250 34 c 0,0,1
311 218 m 0,12,13
 284 218 284 218 276 246.5 c 128,-1,14
 268 275 268 275 268 338 c 0,15,16
 268 403 268 403 278.5 435 c 128,-1,17
 289 467 289 467 329 503 c 0,18,19
 364 534 364 534 384 580 c 128,-1,20
 404 626 404 626 404 667 c 0,21,22
 404 697 404 697 395 717 c 0,23,24
 387 737 387 737 359.5 759 c 128,-1,25
 332 781 332 781 317 781 c 0,26,27
 287 781 287 781 243 745 c 128,-1,28
 199 709 199 709 199 685 c 0,29,30
 200 669 200 669 220.5 631 c 128,-1,31
 241 593 241 593 252 590 c 0,32,33
 265 591 265 591 277 606 c 128,-1,34
 289 621 289 621 294 635 c 1,35,36
 290 635 290 635 283.5 636 c 128,-1,37
 277 637 277 637 267.5 643 c 128,-1,38
 258 649 258 649 258 660 c 0,39,40
 258 679 258 679 276 692.5 c 128,-1,41
 294 706 294 706 311 706 c 0,42,43
 330 706 330 706 344.5 687.5 c 128,-1,44
 359 669 359 669 359 639 c 0,45,46
 359 618 359 618 352 596 c 128,-1,47
 345 574 345 574 323 553.5 c 128,-1,48
 301 533 301 533 267 533 c 0,49,50
 222 533 222 533 176 582 c 128,-1,51
 130 631 130 631 130 687 c 0,52,53
 130 746 130 746 193.5 800.5 c 128,-1,54
 257 855 257 855 315 855 c 0,55,56
 379 855 379 855 427.5 791.5 c 128,-1,57
 476 728 476 728 476 656 c 0,58,59
 476 610 476 610 451.5 560.5 c 128,-1,60
 427 511 427 511 373 440 c 2,61,-1
 341 398 l 1,62,-1
 342 327 l 1,63,-1
 342 295 l 2,64,65
 342 218 342 218 311 218 c 0,12,13
EndSplineSet
EndChar

StartChar: at
Encoding: 64 64 43
Width: 704
Flags: W
HStem: -34 74<249.737 422.437> 160 66<228.5 307.358> 425 72<298.412 372.818> 580 63<316.555 456.829>
VStem: 67 81<141.809 414.371> 172 73<237.825 349.469> 327 114<276.095 364.424> 532 70<304.646 505.097>
LayerCount: 3
Back
SplineSet
555 252 m 0x9e40
 555 239 590 252 590 220 c 0x9e20
 590 191 540 30 435 -13 c 0
 421 -18 378 -21 337 -21 c 0
 307 -21 277 -20 259 -16 c 0
 221 -9 136 47 130 69 c 0
 126 81 121 90 117 90 c 0
 101 90 80 198 80 282 c 0
 80 393 97 447 157 523 c 0
 201 577 226 593 307 616 c 0
 338 625 382 630 419 630 c 0
 446 630 468 627 479 622 c 0
 514 604 563 547 578 506 c 0
 586 486 589 456 589 422 c 0x9e10
 589 303 555 267 555 252 c 0x9e40
441 366 m 0xde80
 441 336 428 323 428 280 c 0
 428 250 437 228 451 228 c 0
 464 228 507 270 507 283 c 0xbf40
 507 288 513 292 519 292 c 0
 532 292 545 357 545 405 c 0xbe10
 545 418 544 430 542 439 c 0
 516 539 517 538 467 567 c 0
 437 584 415 593 390 593 c 0
 361 593 329 580 276 554 c 0
 213 522 197 505 162 430 c 0
 138 379 135 362 135 288 c 0
 135 209 140 181 165 116 c 0
 176 87 239 27 364 27 c 0
 388 27 400 32 428 50 c 0
 463 72 477 88 503 142 c 0
 521 179 535 211 535 214 c 0
 535 223 502 182 451 182 c 0
 422 182 412 187 396 208 c 0
 386 223 377 239 377 245 c 0xbf20
 377 252 375 255 372 255 c 0
 366 255 356 245 344 227 c 0
 323 195 286 173 253 173 c 0
 212 173 185 220 185 274 c 0
 185 296 189 319 199 340 c 0
 220 387 310 484 332 484 c 0
 367 484 441 418 441 366 c 0xde80
299 213 m 0xde80
 319 213 321 242 321 248 c 0
 321 257 325 264 330 264 c 0
 336 264 340 276 340 292 c 0
 340 326 351 333 362 367 c 0
 365 376 375 383 385 383 c 0
 397 383 404 385 404 390 c 0
 404 402 348 438 329 438 c 0
 308 438 256 386 256 365 c 0
 256 337 232 347 232 281 c 0
 232 222 292 213 299 213 c 0xde80
EndSplineSet
Fore
SplineSet
299 226 m 0
 314 226 300 269 325 276 c 1
 326 278 327 281 327 292 c 0
 327 330 340 340 350 371 c 0
 355 386 368 395 383 396 c 1
 368 408 341 425 329 425 c 1
 307 419 269 374 269 365 c 0
 269 329 245 344 245 281 c 0
 245 233 295 226 299 226 c 0
366 235 m 1
 362 230 322 160 253 160 c 0
 204 160 172 212 172 274 c 0
 172 298 176 322 187 345 c 0
 209 393 300 497 332 497 c 0
 376 497 454 424 454 366 c 0
 454 332 441 323 441 280 c 0
 441 259 447 242 451 241 c 1
 462 245 490 272 494 283 c 1
 494 297 506 303 515 305 c 1
 524 320 532 370 532 406 c 0
 532 418 531 429 529 436 c 0
 504 533 507 529 461 556 c 0
 432 573 412 580 390 580 c 0
 368 580 343 572 282 542 c 0
 222 512 208 497 174 424 c 0
 151 375 148 363 148 288 c 0
 148 209 153 183 177 121 c 0
 185 100 241 40 364 40 c 0
 387 40 396 45 421 61 c 0
 455 82 467 99 491 148 c 2
 508 184 l 1
 494 177 476 169 451 169 c 0
 415 169 402 178 385 200 c 0
 375 213 369 226 366 235 c 1
603 220 m 0
 603 185 550 19 440 -25 c 0
 422 -32 369 -34 337 -34 c 0
 297 -34 272 -32 256 -29 c 0
 216 -20 129 32 118 65 c 0
 115 74 113 76 112 78 c 1
 76 87 67 255 67 282 c 0
 67 397 86 454 147 531 c 0
 191 587 217 604 303 628 c 0
 336 637 381 643 419 643 c 0
 451 643 474 640 485 634 c 0
 525 614 574 553 590 511 c 0
 598 489 602 459 602 426 c 0
 602 322 579 279 570 257 c 1
 581 255 603 250 603 220 c 0
EndSplineSet
Validated: 1
Layer: 2
SplineSet
299 226 m 128,-1,1
 305 226 305 226 308 249 c 128,-1,2
 311 272 311 272 325 276 c 0,3,4
 327 280 327 280 327 292 c 0,5,6
 327 309 327 309 330 321 c 128,-1,7
 333 333 333 333 340 347 c 128,-1,8
 347 361 347 361 350 371 c 0,9,10
 358 394 358 394 383 396 c 1,11,12
 347 425 347 425 329 425 c 1,13,14
 314 421 314 421 291.5 397 c 128,-1,15
 269 373 269 373 269 365 c 0,16,17
 269 350 269 350 257 333 c 128,-1,18
 245 316 245 316 245 281 c 0,19,20
 245 260 245 260 258.5 246 c 128,-1,21
 272 232 272 232 282.5 229 c 128,-1,0
 293 226 293 226 299 226 c 128,-1,1
366 235 m 1,22,-1
 362 229.5 l 2,23,24
 358 224 358 224 353.5 218 c 128,-1,25
 349 212 349 212 341.5 203.5 c 128,-1,26
 334 195 334 195 325 188 c 128,-1,27
 316 181 316 181 305 174.5 c 128,-1,28
 294 168 294 168 280.5 164 c 128,-1,29
 267 160 267 160 253 160 c 0,30,31
 217 160 217 160 194.5 193 c 128,-1,32
 172 226 172 226 172 274 c 0,33,34
 172 314 172 314 187 345 c 0,35,36
 205 384 205 384 257 440.5 c 128,-1,37
 309 497 309 497 332 497 c 0,38,39
 367 497 367 497 410.5 452.5 c 128,-1,40
 454 408 454 408 454 366 c 0,41,42
 454 350 454 350 447.5 326.5 c 128,-1,43
 441 303 441 303 441 280 c 0,44,45
 441 244 441 244 451 241 c 1,46,47
 459 244 459 244 475 259.5 c 128,-1,48
 491 275 491 275 494 283 c 0,49,50
 494 300 494 300 515 305 c 1,51,52
 532 333 532 333 532 406 c 0,53,54
 532 426 532 426 529 436 c 0,55,56
 510 509 510 509 502.5 522.5 c 128,-1,57
 495 536 495 536 461 556 c 0,58,59
 420 580 420 580 390 580 c 0,60,61
 359 580 359 580 282 542 c 0,62,63
 237 519 237 519 218 499 c 128,-1,64
 199 479 199 479 174 424 c 0,65,66
 156 387 156 387 152 365 c 128,-1,67
 148 343 148 343 148 288 c 0,68,69
 148 229 148 229 153.5 198.5 c 128,-1,70
 159 168 159 168 177 121 c 0,71,72
 186 96 186 96 235 68 c 128,-1,73
 284 40 284 40 364 40 c 0,74,75
 388 40 388 40 421 61 c 0,76,77
 446 76 446 76 459 93 c 128,-1,78
 472 110 472 110 491 148 c 2,79,-1
 508 184 l 1,80,81
 478 169 478 169 451 169 c 0,82,83
 425 169 425 169 412 176 c 128,-1,84
 399 183 399 183 385 200 c 0,85,86
 372 217 372 217 366 235 c 1,22,-1
603 220 m 0,87,88
 603 198 603 198 586.5 151.5 c 128,-1,89
 570 105 570 105 530 50 c 128,-1,90
 490 -5 490 -5 440 -25 c 0,91,92
 417 -34 417 -34 337 -34 c 0,93,94
 283 -34 283 -34 256 -29 c 0,95,96
 223 -22 223 -22 174.5 10 c 128,-1,97
 126 42 126 42 118 65 c 0,98,99
 117 68 117 68 112 78 c 1,100,101
 89 84 89 84 78 159.5 c 128,-1,102
 67 235 67 235 67 282 c 0,103,104
 67 368 67 368 84 420.5 c 128,-1,105
 101 473 101 473 147 531 c 0,106,107
 180 573 180 573 209.5 591.5 c 128,-1,108
 239 610 239 610 303 628 c 0,109,110
 358 643 358 643 419 643 c 0,111,112
 468 643 468 643 485 634 c 0,113,114
 514 619 514 619 546 581.5 c 128,-1,115
 578 544 578 544 590 511 c 128,-1,116
 602 478 602 478 602 426 c 0,117,118
 602 407 602 407 601 389.5 c 128,-1,119
 600 372 600 372 598.5 359 c 128,-1,120
 597 346 597 346 594 332.5 c 128,-1,121
 591 319 591 319 589 311 c 128,-1,122
 587 303 587 303 584 292.5 c 128,-1,123
 581 282 581 282 579 278 c 128,-1,124
 577 274 577 274 574 266 c 128,-1,125
 571 258 571 258 570 257 c 1,126,127
 603 251 603 251 603 220 c 0,87,88
EndSplineSet
EndChar

StartChar: A
Encoding: 65 65 44
Width: 816
Flags: W
VStem: 529 98<415.743 520.671>
DStem2: 368 375 396 290 0.995828 0.0912512<0 163.054>
LayerCount: 3
Back
SplineSet
68 -6 m 0
 68 24 110 55 110 84 c 0
 110 95 116 105 124 108 c 0
 145 116 157 195 186 229 c 0
 205 250 218 280 283 449 c 0
 324 555 420 752 437 764 c 0
 444 768 448 771 453 771 c 0
 458 771 464 768 473 762 c 0
 488 752 549 555 549 514 c 0
 552 473 580 393 593 312 c 0
 604 230 650 116 650 73 c 0
 650 58 646 52 636 52 c 0
 629 52 618 56 605 63 c 0
 569 84 576 102 543 243 c 2
 524 322 l 1
 475 316 l 2
 448 312 395 306 356 303 c 2
 286 297 l 1
 257 242 l 2
 205 145 167 69 148 23 c 0
 132 -15 118 -31 99 -31 c 0
 89 -31 68 -26 68 -6 c 0
503 406 m 0
 503 434 463 640 447 640 c 0
 436 640 361 487 325 391 c 2
 313 360 l 1
 392 366 l 2
 483 374 503 376 503 406 c 0
EndSplineSet
Fore
SplineSet
111 -31 m 0
 100 -31 68 -26 68 -6 c 0
 68 29 110 61 110 84 c 0
 110 103 117 124 132 132 c 1
 143 136 161 215 189 246 c 0
 206 264 219 282 292 454 c 0
 336 556 437 742 461 763 c 1
 470 766 478 771 490 771 c 0
 498 771 509 769 523 761 c 1
 543 738 627 555 627 514 c 1
 630 473 658 395 671 314 c 1
 681 236 728 119 728 73 c 0
 728 61 725 52 701 52 c 0
 689 52 675 58 664 63 c 0
 621 86 632 113 594 243 c 2
 575 308 l 1
 532 303 l 2
 501 299 441 293 396 290 c 2
 324 285 l 1
 295 242 l 2
 231 148 192 68 173 23 c 0
 164 2 146 -31 111 -31 c 0
529 406 m 0
 529 430 499 567 481 611 c 1
 421 525 368 375 368 375 c 1
 434 379 l 2
 509 384 529 385 529 406 c 0
EndSplineSet
Validated: 1
Layer: 2
SplineSet
111 -31 m 0,0,1
 98 -31 98 -31 83 -25 c 128,-1,2
 68 -19 68 -19 68 -6 c 0,3,4
 68 13 68 13 89 43.5 c 128,-1,5
 110 74 110 74 110 84 c 0,6,7
 110 120 110 120 132 132 c 0,8,9
 136 134 136 134 144.5 155.5 c 128,-1,10
 153 177 153 177 165 205 c 128,-1,11
 177 233 177 233 189 246 c 0,12,13
 216 274 216 274 292 454 c 0,14,15
 325 531 325 531 384 639 c 128,-1,16
 443 747 443 747 461 763 c 1,17,18
 485 771 485 771 490 771 c 0,19,20
 506 771 506 771 523 761 c 1,21,22
 540 741 540 741 583.5 641.5 c 128,-1,23
 627 542 627 542 627 514 c 0,24,25
 628 494 628 494 646 424.5 c 128,-1,26
 664 355 664 355 671 314 c 0,27,28
 676 276 676 276 702 186 c 128,-1,29
 728 96 728 96 728 73 c 0,30,31
 728 62 728 62 723 57 c 128,-1,32
 718 52 718 52 701 52 c 0,33,34
 688 52 688 52 664 63 c 0,35,36
 648 71 648 71 639.5 84 c 128,-1,37
 631 97 631 97 627.5 111 c 128,-1,38
 624 125 624 125 614.5 165 c 128,-1,39
 605 205 605 205 594 243 c 2,40,-1
 575 308 l 1,41,-1
 532 303 l 2,42,43
 469 295 469 295 396 290 c 2,44,-1
 324 285 l 1,45,-1
 295 242 l 2,46,47
 217 128 217 128 173 23 c 0,48,49
 150 -31 150 -31 111 -31 c 0,0,1
529 406 m 0,50,51
 529 425 529 425 511.5 502.5 c 128,-1,52
 494 580 494 580 481 611 c 1,53,54
 454 573 454 573 426 514 c 128,-1,55
 398 455 398 455 383 415 c 2,56,-1
 368 375 l 1,57,-1
 434 379 l 2,58,59
 496 383 496 383 512.5 387 c 128,-1,60
 529 391 529 391 529 406 c 0,50,51
EndSplineSet
EndChar

StartChar: B
Encoding: 66 66 45
Width: 707
Flags: W
HStem: 12 81<368.2 458.3> 24 70<310.75 407.625> 718 69<264.247 495.999>
VStem: 497 80<642.599 710.811> 547 79<186.784 371.464>
DStem2: 292 238 184 411 0.0938463 -0.995587<-427.453 -415.457 -83.1115 69.3755>
LayerCount: 3
Back
SplineSet
328 24 m 0x7a
 303 24 278 7 256 7 c 0
 195 7 216 170 184 413 c 0
 179 458 171 537 167 587 c 2
 160 677 l 1
 121 677 l 2
 90 677 71 686 71 699 c 0
 71 728 171 757 225 771 c 0
 260 780 334 787 407 787 c 0
 469 787 479 783 500 761 c 0
 513 746 525 724 525 714 c 0x7c
 525 609 423 507 423 485 c 0
 423 480 428 479 437 479 c 0
 464 479 534 436 550 410 c 0
 566 384 574 341 574 295 c 0
 574 121 448 12 382 12 c 0xba
 361 12 352 24 328 24 c 0x7a
457 715 m 0
 447 726 419 731 384 731 c 0
 364 731 342 730 318 726 c 0
 230 711 225 714 225 672 c 2
 225 652 l 2
 225 620 230 557 237 509 c 0
 247 436 252 424 270 424 c 0
 299 424 413 556 446 628 c 0
 463 666 471 682 471 692 c 0
 471 700 466 705 457 715 c 0
521 281 m 0xba
 521 347 502 412 424 412 c 0
 368 412 318 380 273 364 c 0
 260 359 256 354 256 317 c 0
 256 297 257 270 259 230 c 0
 267 80 272 71 355 68 c 0x7a
 364 68 372 67 379 67 c 0
 414 67 421 75 462 123 c 0
 502 168 521 194 521 281 c 0xba
EndSplineSet
Fore
SplineSet
487 142 m 1xa8
 526 181 547 204 547 286 c 0
 547 370 514 399 460 399 c 0
 402 399 343 369 298 354 c 0
 292 352 289 351 289 322 c 0
 289 305 290 280 292 238 c 0
 300 98 304 96 382 94 c 0x68
 392 94 400 93 408 93 c 0
 440 93 444 97 487 142 c 1xa8
497 692 m 0x30
 497 699 486 718 422 718 c 0
 362 718 281 705 265 698 c 0
 258 695 257 693 257 672 c 2
 257 652 l 2
 257 579 276 463 283 445 c 0
 286 438 287 437 291 437 c 0
 313 440 430 553 471 633 c 0
 493 678 497 689 497 692 c 0x30
134 655 m 2
 121 655 71 656 71 689 c 0
 71 722 147 749 239 771 c 0
 278 780 360 787 441 787 c 0
 507 787 512 781 549 758 c 24
 569 746 577 715 577 704 c 0x70
 575 607 495 520 476 489 c 1
 512 487 583 443 600 416 c 0
 625 377 626 316 626 298 c 0
 626 125 493 12 411 12 c 0xa8
 387 12 373 24 353 24 c 0x68
 330 24 302 7 275 7 c 0
 192 7 218 167 184 411 c 0
 178 455 171 530 167 579 c 2
 161 655 l 1
 134 655 l 2
EndSplineSet
Validated: 1
Layer: 2
SplineSet
487 142 m 0,0,1
 510 165 510 165 520.5 179 c 128,-1,2
 531 193 531 193 539 220 c 128,-1,3
 547 247 547 247 547 286 c 0,4,5
 547 399 547 399 460 399 c 0,6,7
 434 399 434 399 407 392 c 128,-1,8
 380 385 380 385 342.5 370.5 c 128,-1,9
 305 356 305 356 298 354 c 0,10,11
 289 351 289 351 289 322 c 0,12,13
 289 301 289 301 292 238 c 0,14,15
 294 198 294 198 295.5 178 c 128,-1,16
 297 158 297 158 302 139 c 128,-1,17
 307 120 307 120 310.5 113.5 c 128,-1,18
 314 107 314 107 326 101.5 c 128,-1,19
 338 96 338 96 348.5 95.5 c 128,-1,20
 359 95 359 95 382 94 c 0,21,22
 387 94 387 94 395.5 93.5 c 128,-1,23
 404 93 404 93 408 93 c 0,24,25
 431 93 431 93 442.5 100 c 128,-1,26
 454 107 454 107 487 142 c 0,0,1
497 692 m 0,27,28
 497 697 497 697 492.5 702 c 128,-1,29
 488 707 488 707 469.5 712.5 c 128,-1,30
 451 718 451 718 422 718 c 0,31,32
 380 718 380 718 329 711 c 128,-1,33
 278 704 278 704 265 698 c 0,34,35
 257 695 257 695 257 672 c 2,36,-1
 257 652 l 2,37,38
 257 602 257 602 267 531.5 c 128,-1,39
 277 461 277 461 283 445 c 0,40,41
 286 437 286 437 291 437 c 0,42,43
 310 440 310 440 376.5 509 c 128,-1,44
 443 578 443 578 471 633 c 0,45,46
 497 686 497 686 497 692 c 0,27,28
134 655 m 2,47,48
 71 655 71 655 71 689 c 0,49,50
 71 731 71 731 239 771 c 0,51,52
 308 787 308 787 441 787 c 0,53,54
 466 787 466 787 479.5 786.5 c 128,-1,55
 493 786 493 786 506.5 780.5 c 128,-1,56
 520 775 520 775 524.5 772.5 c 128,-1,57
 529 770 529 770 549 758 c 0,58,59
 562 750 562 750 569.5 732.5 c 128,-1,60
 577 715 577 715 577 704 c 0,61,62
 576 670 576 670 562 633 c 128,-1,63
 548 596 548 596 533.5 572.5 c 128,-1,64
 519 549 519 549 499 521 c 128,-1,65
 479 493 479 493 476 489 c 1,66,67
 502 488 502 488 544.5 462.5 c 128,-1,68
 587 437 587 437 600 416 c 0,69,70
 626 375 626 375 626 298 c 0,71,72
 626 178 626 178 553.5 95 c 128,-1,73
 481 12 481 12 411 12 c 0,74,75
 398 12 398 12 380 18 c 128,-1,76
 362 24 362 24 353 24 c 0,77,78
 342 24 342 24 315.5 15.5 c 128,-1,79
 289 7 289 7 275 7 c 0,80,81
 258 7 258 7 246 16 c 128,-1,82
 234 25 234 25 226.5 45 c 128,-1,83
 219 65 219 65 215 89 c 128,-1,84
 211 113 211 113 208 150 c 128,-1,85
 205 187 205 187 202.5 223.5 c 128,-1,86
 200 260 200 260 195.5 312 c 128,-1,87
 191 364 191 364 184 411 c 0,88,89
 176 471 176 471 167 579 c 2,90,-1
 161 655 l 1,91,-1
 134 655 l 2,47,48
EndSplineSet
EndChar

StartChar: C
Encoding: 67 67 46
Width: 779
Flags: W
HStem: 10 96<286.784 422.525> 723 87<420.079 546.052>
VStem: 121 88<190.168 531.354>
LayerCount: 3
Back
SplineSet
651 307 m 0
 651 269 501 10 327 10 c 0
 250 10 181 62 131 164 c 0
 124 178 121 233 121 300 c 0
 121 404 129 537 141 579 c 0
 176 707 339 810 450 810 c 0
 511 810 573 763 573 715 c 0
 573 706 566 702 558 702 c 0
 544 702 525 712 517 727 c 0
 510 743 503 749 486 749 c 0
 417 749 300 693 248 636 c 0
 208 593 181 515 181 298 c 0
 181 240 186 214 200 181 c 0
 225 121 278 80 329 80 c 0
 363 80 443 117 468 145 c 2
 519 196 l 2
 579 253 615 336 640 336 c 0
 647 336 651 326 651 307 c 0
EndSplineSet
Fore
SplineSet
625 702 m 0
 625 694 622 676 597 676 c 0
 556 676 536 718 536 718 c 1
 533 722 529 723 521 723 c 0
 454 723 332 673 277 619 c 0
 236 579 209 503 209 303 c 0
 209 248 214 225 228 195 c 0
 252 144 303 106 353 106 c 0
 384 106 466 142 492 167 c 2
 547 218 l 2
 611 277 644 362 679 362 c 1
 687 360 703 359 703 321 c 0
 703 270 541 10 351 10 c 0
 262 10 184 64 132 166 c 0
 122 186 121 262 121 303 c 0
 121 398 128 533 141 577 c 0
 178 705 356 810 482 810 c 0
 557 810 625 756 625 702 c 0
EndSplineSet
Validated: 1
Layer: 2
SplineSet
625 702 m 0,0,1
 625 676 625 676 597 676 c 0,2,3
 579 676 579 676 563.5 686.5 c 128,-1,4
 548 697 548 697 542 707.5 c 2,5,-1
 536 718 l 2,6,7
 532 723 532 723 521 723 c 0,8,9
 470 723 470 723 394 691 c 128,-1,10
 318 659 318 659 277 619 c 0,11,12
 243 586 243 586 226 515 c 128,-1,13
 209 444 209 444 209 303 c 0,14,15
 209 236 209 236 228 195 c 0,16,17
 246 156 246 156 281 131 c 128,-1,18
 316 106 316 106 353 106 c 0,19,20
 376 106 376 106 424 127 c 128,-1,21
 472 148 472 148 492 167 c 2,22,-1
 547 218 l 2,23,24
 572 241 572 241 599.5 279.5 c 128,-1,25
 627 318 627 318 645.5 340 c 128,-1,26
 664 362 664 362 679 362 c 0,27,28
 686 360 686 360 689.5 359 c 128,-1,29
 693 358 693 358 698 348 c 128,-1,30
 703 338 703 338 703 321 c 0,31,32
 703 300 703 300 674 250.5 c 128,-1,33
 645 201 645 201 599 146.5 c 128,-1,34
 553 92 553 92 485 51 c 128,-1,35
 417 10 417 10 351 10 c 0,36,37
 212 10 212 10 132 166 c 0,38,39
 121 188 121 188 121 303 c 0,40,41
 121 509 121 509 141 577 c 0,42,43
 168 670 168 670 275.5 740 c 128,-1,44
 383 810 383 810 482 810 c 0,45,46
 538 810 538 810 581.5 776.5 c 128,-1,47
 625 743 625 743 625 702 c 0,0,1
EndSplineSet
EndChar

StartChar: D
Encoding: 68 68 47
Width: 907
Flags: W
HStem: 611 116<75.729 130.311> 685 107<325.304 549.363>
VStem: 226 99<595.667 667.258> 284 98<76.7812 324.309> 735 98<367.204 589.935>
LayerCount: 3
Back
SplineSet
58 671 m 0
 58 689 80 725 95 725 c 0
 103 725 116 736 125 749 c 0
 136 766 166 776 223 782 c 0
 286 788 327 792 361 792 c 0
 397 792 425 788 464 781 c 0
 694 741 781 675 781 516 c 0
 781 221 565 36 415 0 c 0
 340 -18 386 -76 328 -76 c 0
 311 -76 297 -70 297 -64 c 0
 297 -42 246 -53 246 -5 c 0
 246 10 252 24 265 29 c 0
 278 34 284 66 284 114 c 0
 284 210 265 261 241 518 c 2
 225 691 l 1
 189 688 l 2
 135 683 109 631 91 631 c 0
 82 631 58 655 58 671 c 0
297 668 m 0
 297 595 354 281 354 167 c 0
 354 150 353 137 352 127 c 2
 344 76 l 1
 398 76 l 2
 460 76 522 115 600 202 c 0
 690 303 709 395 709 525 c 0
 709 585 703 596 673 629 c 0
 642 662 615 674 526 691 c 0
 508.108 694.393 417.4 711 345 711 c 0
 311 711 297 709 297 668 c 0
EndSplineSet
Fore
SplineSet
362 685 m 0x58
 328 685 325 682 325 654 c 0x68
 325 580 382 270 382 154 c 0
 382 136 381 122 380 112 c 2
 374 76 l 1
 415 76 l 2
 475 76 539 112 622 198 c 0
 716 296 735 385 735 512 c 0
 735 569 730 576 700 607 c 0
 669 638 643 649 552 665 c 0
 533 668 438 685 362 685 c 0x58
58 662 m 1
 61 694 88 727 108 727 c 1xa8
 108 727 118 730 127 744 c 0
 143 768 186 777 235 782 c 0
 298 788 342 792 379 792 c 0
 418 792 449 788 491 781 c 0
 741 741 833 673 833 512 c 0
 833 220 603 36 437 0 c 1
 371 -17 409 -58 362 -73 c 0
 355 -75 348 -76 341 -76 c 0
 319 -76 298 -68 297 -52 c 1
 289 -45 246 -40 246 7 c 0
 246 32 257 46 273 52 c 1
 280 57 284 90 284 123 c 0x58
 284 214 265 264 241 513 c 2
 226 668 l 1
 203 666 l 1
 147 659 133 611 104 611 c 0xa8
 87 611 58 640 58 662 c 1
EndSplineSet
Validated: 1
Layer: 2
SplineSet
362 685 m 0,0,1
 337 685 337 685 331 680 c 128,-1,2
 325 675 325 675 325 654 c 0,3,4
 325 622 325 622 353.5 419.5 c 128,-1,5
 382 217 382 217 382 154 c 0,6,7
 382 132 382 132 380 112 c 2,8,-1
 374 76 l 1,9,-1
 415 76 l 2,10,11
 504 76 504 76 622 198 c 0,12,13
 689 267 689 267 712 338 c 128,-1,14
 735 409 735 409 735 512 c 0,15,16
 735 553 735 553 729 568 c 128,-1,17
 723 583 723 583 700 607 c 0,18,19
 676 631 676 631 647.5 642 c 128,-1,20
 619 653 619 653 552 665 c 0,21,22
 425 685 425 685 362 685 c 0,0,1
58 662 m 1,23,24
 60 686 60 686 76.5 706.5 c 128,-1,25
 93 727 93 727 108 727 c 0,26,27
 118 730 118 730 127 744 c 0,28,29
 146 773 146 773 235 782 c 0,30,31
 340 792 340 792 379 792 c 0,32,33
 425 792 425 792 491 781 c 0,34,35
 680 751 680 751 756.5 691.5 c 128,-1,36
 833 632 833 632 833 512 c 0,37,38
 833 408 833 408 795 315 c 128,-1,39
 757 222 757 222 697 159 c 128,-1,40
 637 96 637 96 569.5 55 c 128,-1,41
 502 14 502 14 437 0 c 0,42,43
 415 -6 415 -6 404 -16.5 c 128,-1,44
 393 -27 393 -27 392 -37 c 128,-1,45
 391 -47 391 -47 384 -57.5 c 128,-1,46
 377 -68 377 -68 362 -73 c 0,47,48
 351.5 -76 351.5 -76 341 -76 c 0,49,50
 323 -76 323 -76 310.5 -69.5 c 128,-1,51
 298 -63 298 -63 297 -52 c 1,52,-1
 281.5 -45.5 l 2,53,54
 266 -39 266 -39 256 -26.5 c 128,-1,55
 246 -14 246 -14 246 7 c 0,56,57
 246 42 246 42 273 52 c 0,58,59
 284 60 284 60 284 123 c 0,60,61
 284 162 284 162 279 203 c 128,-1,62
 274 244 274 244 262.5 327.5 c 128,-1,63
 251 411 251 411 241 513 c 2,64,-1
 226 668 l 1,65,-1
 203 666 l 2,66,67
 172 662 172 662 144 636.5 c 128,-1,68
 116 611 116 611 104 611 c 0,69,70
 91 611 91 611 74.5 628.5 c 128,-1,71
 58 646 58 646 58 662 c 1,23,24
EndSplineSet
EndChar

StartChar: E
Encoding: 69 69 48
Width: 631
Flags: W
HStem: -11 101<195.21 371.527> 710 83<325.899 517.799>
VStem: 66 96<398.136 635.881>
LayerCount: 3
Back
SplineSet
66 623 m 0
 66 689 97 707 105 707 c 0
 142 707 215 793 394 793 c 0
 448 793 485 783 485 764 c 0
 485 756 446 743 389 733 c 0
 284 716 181 679 149 648 c 0
 138 637 134 624 134 605 c 0
 134 590 140 543 148 451 c 0
 153 387 156 368 165 368 c 0
 167 368 169 369 172 371 c 0
 195 385 376 427 409 427 c 0
 433 427 439 412 439 402 c 0
 439 378 405 364 269 330 c 0
 169 306 159 301 159 275 c 0
 159 250 159.725 212.493 161 150 c 2
 164 64 l 1
 215 64 l 2
 275 64 383 93 445 126 c 0
 467 138 478 143 487 143 c 0
 500 143 517 123 517 109 c 0
 517 64 339 -11 196 -11 c 0
 158 -11 129 -5 120 8 c 0
 96 38 97 263 73 513 c 0
 68 565 66 599 66 623 c 0
EndSplineSet
Fore
SplineSet
66 598 m 0
 66 686 97 710 118 710 c 0
 148 710 237 793 432 793 c 0
 509 793 537 774 537 753 c 0
 537 736 510 722 429 710 c 0
 308 692 204 656 175 631 c 0
 165 622 162 612 162 599 c 0
 162 597 181 402 186 386 c 1
 215 398 394 439 450 439 c 0
 481 439 491 418 491 404 c 0
 491 395 487 385 479 378 c 0
 438 340 232 315 196 294 c 0
 191 291 190 290 190 281 c 0
 190 257 190 208 192 161 c 2
 195 90 l 1
 237 90 l 2
 298 90 413 117 478 150 c 0
 496 160 511 169 525 169 c 0
 549 169 569 141 569 122 c 0
 569 56 349 -11 216 -11 c 0
 185 -11 135 -7 120 18 c 0
 96 61 97 270 73 508 c 0
 72 520 66 558 66 598 c 0
EndSplineSet
Validated: 1
Layer: 2
SplineSet
66 598 m 0,0,1
 66 657 66 657 82 683.5 c 128,-1,2
 98 710 98 710 118 710 c 0,3,4
 126 710 126 710 152.5 723 c 128,-1,5
 179 736 179 736 212.5 751.5 c 128,-1,6
 246 767 246 767 305.5 780 c 128,-1,7
 365 793 365 793 432 793 c 0,8,9
 537 793 537 793 537 753 c 0,10,11
 537 726 537 726 429 710 c 0,12,13
 342 697 342 697 270 674 c 128,-1,14
 198 651 198 651 175 631 c 0,15,16
 162 619 162 619 162 599 c 0,17,18
 162 597 162 597 167 548 c 128,-1,19
 172 499 172 499 178 446 c 128,-1,20
 184 393 184 393 186 386 c 1,21,22
 211 397 211 397 311.5 418 c 128,-1,23
 412 439 412 439 450 439 c 0,24,25
 471 439 471 439 481 428 c 128,-1,26
 491 417 491 417 491 404 c 0,27,28
 491 388 491 388 479 378 c 0,29,30
 456 356 456 356 332 328.5 c 128,-1,31
 208 301 208 301 196 294 c 0,32,33
 190 290 190 290 190 281 c 0,34,35
 190 208 190 208 192 161 c 2,36,-1
 195 90 l 1,37,-1
 237 90 l 2,38,39
 284 90 284 90 357 108 c 128,-1,40
 430 126 430 126 478 150 c 0,41,42
 512 169 512 169 525 169 c 0,43,44
 542 169 542 169 555.5 153 c 128,-1,45
 569 137 569 137 569 122 c 0,46,47
 569 91 569 91 508.5 59 c 128,-1,48
 448 27 448 27 365.5 8 c 128,-1,49
 283 -11 283 -11 216 -11 c 0,50,51
 137 -11 137 -11 120 18 c 0,52,53
 109 37 109 37 103 103 c 128,-1,54
 97 169 97 169 89.5 293.5 c 128,-1,55
 82 418 82 418 73 508 c 0,56,57
 66 592 66 592 66 598 c 0,0,1
EndSplineSet
EndChar

StartChar: F
Encoding: 70 70 49
Width: 654
Flags: W
HStem: 343 104<281.846 426.75> 662 127<374.354 442.058>
VStem: 124 98<440.114 643> 165 91<15.1201 261.697>
LayerCount: 3
Back
SplineSet
314 765 m 0x40
 388 765 360 789 461 789 c 0
 515 789 537 784 537 757 c 0
 537 726 487 726 294 687 c 2
 193 666 l 1
 193 586 l 2x40
 193 542 196 487 200 463 c 2
 207 419 l 1
 271 426 l 2
 314 432 355 434 388 434 c 0
 421 434 465 432 465 419 c 0
 465 401 396 374 300 356 c 2
 216 341 l 1x80
 224 182 l 2
 226 142 227 111 227 86 c 0
 227 27 221 10 202 10 c 0
 197 10 190 11 182 14 c 0
 162 20 159 32 159 96 c 0x20
 159 219 124 300 124 544 c 2
 124 713 l 1
 197 739 l 2
 237 753 289 765 314 765 c 0x40
EndSplineSet
Fore
SplineSet
256 92 m 0xd0
 256 26 250 10 215 10 c 0
 205 10 174 14 165 30 c 1xd0
 160 44 159 69 159 96 c 0
 159 219 124 298 124 544 c 2
 124 710 l 1
 207 739 l 1
 258 755 314 765 341 765 c 0
 416 765 393 789 500 789 c 0
 537 789 589 787 589 757 c 0
 589 695 540 705 322 662 c 1
 222 643 l 1
 222 586 l 2xe0
 222 543 225 487 229 465 c 2
 235 433 l 1
 292 439 l 2
 317 442 375 447 425 447 c 0
 483 447 517 442 517 419 c 0
 517 374 340 345 326 343 c 2
 244 330 l 1
 253 183 l 2
 254 158 256 123 256 92 c 0xd0
EndSplineSet
Validated: 1
Layer: 2
SplineSet
256 92 m 0,0,1
 256 42 256 42 248.5 26 c 128,-1,2
 241 10 241 10 215 10 c 0,3,4
 176 10 176 10 165 30 c 0,5,6
 159 47 159 47 159 96 c 0,7,8
 159 142 159 142 141.5 274 c 128,-1,9
 124 406 124 406 124 544 c 2,10,-1
 124 710 l 1,11,-1
 207 739 l 2,12,13
 290 765 290 765 341 765 c 0,14,15
 374 765 374 765 408 777 c 128,-1,16
 442 789 442 789 500 789 c 0,17,18
 589 789 589 789 589 757 c 0,19,20
 589 746 589 746 587.5 738.5 c 128,-1,21
 586 731 586 731 580.5 725 c 128,-1,22
 575 719 575 719 568.5 714.5 c 128,-1,23
 562 710 562 710 549 706 c 128,-1,24
 536 702 536 702 523 699 c 128,-1,25
 510 696 510 696 487.5 692 c 128,-1,26
 465 688 465 688 443.5 684.5 c 128,-1,27
 422 681 422 681 388 674.5 c 128,-1,28
 354 668 354 668 322 662 c 2,29,-1
 222 643 l 1,30,-1
 222 586 l 2,31,32
 222 504 222 504 229 465 c 2,33,-1
 235 433 l 1,34,-1
 292 439 l 2,35,36
 359 447 359 447 425 447 c 0,37,38
 517 447 517 447 517 419 c 0,39,40
 517 403 517 403 490.5 388.5 c 128,-1,41
 464 374 464 374 425.5 364.5 c 128,-1,42
 387 355 387 355 363 350 c 128,-1,43
 339 345 339 345 326 343 c 2,44,-1
 244 330 l 1,45,-1
 253 183 l 2,46,47
 256 108 256 108 256 92 c 0,0,1
EndSplineSet
EndChar

StartChar: G
Encoding: 71 71 50
Width: 752
Flags: W
HStem: -6 101<204.814 354.045> 352 120<384.963 501.268> 693 95<478.409 568.615>
VStem: 85 100<114.14 382.786> 563 103<5.57086 207.489>
LayerCount: 3
Back
SplineSet
378 344 m 0
 348 344 284 354 284 395 c 0
 284 435 344 428 357 451 c 0
 360 456 374 459 392 459 c 0
 442 459 530 441 554 421 c 0
 595 387 614 233 614 77 c 0
 614 24 609 8 596 -1 c 0
 590 -6 584 -8 578 -8 c 0
 571 -8 565 -5 557 2 c 0
 542 16 537 45 537 132 c 2
 537 246 l 1
 505 193 l 2
 428 67 326 -6 237 -6 c 0
 212 -6 187 0 164 13 c 0
 129 32 118 49 100 115 c 0
 89 153 85 179 85 210 c 0
 85 232 87 256 91 289 c 0
 104 396 120 435 192 541 c 0
 303 706 424 709 444 744 c 0
 451 756 471 761 495 761 c 0
 558 761 596 727 596 705 c 0
 596 694 579 646 559 646 c 0
 535 646 548 693 519 693 c 0
 476 693 319 647 201 422 c 0
 161 345 157 328 157 238 c 0
 157 107 175 69 238 69 c 0
 304 69 359 97 403 155 c 0
 446 213 481 289 481 324 c 0
 481 347 460 365 443 365 c 0
 420 365 430 344 378 344 c 0
EndSplineSet
Fore
SplineSet
477 352 m 0
 462 352 464 331 407 331 c 0
 368 331 293 344 293 395 c 1
 297 447 354 439 373 458 c 0
 379 464 382 472 422 472 c 0
 467 472 570 457 601 432 c 0
 652 390 666 213 666 86 c 0
 666 39 664 4 632 -5 c 0
 629 -6 624 -8 618 -8 c 0
 565 -8 563 52 563 142 c 2
 563 209 l 1
 555 196 l 1
 472 71 359 -6 256 -6 c 0
 231 -6 202 0 172 15 c 0
 131 37 119 57 100 124 c 0
 89 163 85 191 85 223 c 0
 85 246 87 271 91 304 c 0
 104 412 119 453 197 561 c 0
 317 726 444 735 465 764 c 0
 478 781 502 788 529 788 c 0
 583 788 648 757 648 720 c 0
 648 700 629 646 598 646 c 0
 563 647 572 693 558 693 c 0
 519 693 355 652 230 429 c 0
 187 352 185 337 185 251 c 0
 185 122 201 95 257 95 c 0
 323 95 380 120 423 172 c 0
 473 231 503 298 503 325 c 0
 503 339 489 352 477 352 c 0
EndSplineSet
Validated: 1
Layer: 2
SplineSet
477 352 m 0,0,1
 475 352 475 352 458 341.5 c 128,-1,2
 441 331 441 331 407 331 c 0,3,4
 390 331 390 331 372 334 c 128,-1,5
 354 337 354 337 335.5 343.5 c 128,-1,6
 317 350 317 350 305 363.5 c 128,-1,7
 293 377 293 377 293 395 c 0,8,9
 295 418 295 418 310 429 c 128,-1,10
 325 440 325 440 346 446 c 128,-1,11
 367 452 367 452 373 458 c 0,12,13
 387 472 387 472 422 472 c 0,14,15
 462 472 462 472 521 460.5 c 128,-1,16
 580 449 580 449 601 432 c 0,17,18
 636 403 636 403 651 302.5 c 128,-1,19
 666 202 666 202 666 86 c 0,20,21
 666 44 666 44 660 22.5 c 128,-1,22
 654 1 654 1 632 -5 c 0,23,24
 623 -8 623 -8 618 -8 c 0,25,26
 599 -8 599 -8 587.5 1.5 c 128,-1,27
 576 11 576 11 570.5 34.5 c 128,-1,28
 565 58 565 58 564 79.5 c 128,-1,29
 563 101 563 101 563 142 c 2,30,-1
 563 209 l 1,31,-1
 555 196 l 2,32,33
 493 102 493 102 413 48 c 128,-1,34
 333 -6 333 -6 256 -6 c 0,35,36
 214 -6 214 -6 172 15 c 0,37,38
 142 31 142 31 128 52 c 128,-1,39
 114 73 114 73 100 124 c 0,40,41
 85 177 85 177 85 223 c 0,42,43
 85 255 85 255 91 304 c 0,44,45
 101 386 101 386 120 433.5 c 128,-1,46
 139 481 139 481 197 561 c 0,47,48
 238 617 238 617 286 657.5 c 128,-1,49
 334 698 334 698 368.5 714 c 128,-1,50
 403 730 403 730 431 743 c 128,-1,51
 459 756 459 756 465 764 c 0,52,53
 483 788 483 788 529 788 c 0,54,55
 571 788 571 788 609.5 767.5 c 128,-1,56
 648 747 648 747 648 720 c 0,57,58
 648 700 648 700 633.5 673 c 128,-1,59
 619 646 619 646 598 646 c 0,60,61
 583 646 583 646 576 658 c 128,-1,62
 569 670 569 670 566 681.5 c 128,-1,63
 563 693 563 693 558 693 c 0,64,65
 539 693 539 693 506.5 682 c 128,-1,66
 474 671 474 671 427.5 645.5 c 128,-1,67
 381 620 381 620 327.5 563.5 c 128,-1,68
 274 507 274 507 230 429 c 0,69,70
 198 373 198 373 191.5 345 c 128,-1,71
 185 317 185 317 185 251 c 0,72,73
 185 156 185 156 199.5 125.5 c 128,-1,74
 214 95 214 95 257 95 c 0,75,76
 359 95 359 95 423 172 c 0,77,78
 458 214 458 214 480.5 258.5 c 128,-1,79
 503 303 503 303 503 325 c 0,80,81
 503 335 503 335 494.5 343.5 c 128,-1,82
 486 352 486 352 477 352 c 0,0,1
EndSplineSet
EndChar

StartChar: H
Encoding: 72 72 51
Width: 718
Flags: W
VStem: 96 112<133.608 315> 530 119<159.182 348.13>
LayerCount: 3
Back
SplineSet
597 71 m 0
 597 39 566 37 562 37 c 0
 529 37 519 95 515 267 c 0
 513 371 506 456 500 456 c 0
 480 456 402 409 264 356 c 2
 180 324 l 1
 186 143 l 2
 187 108 188 78 188 52 c 0
 188 -28 181 -60 165 -60 c 0
 160 -60 155 -57 149 -53 c 0
 121 -33 112 47 96 405 c 0
 90 542 88 634 88 695 c 0
 88 756 90 787 96 801 c 0
 104 821 118 837 127 837 c 0
 159 837 159 420 191 420 c 0
 198 420 221 437 404 494 c 0
 440 506 477 521 484 528 c 0
 492 535 501 575 506 617 c 0
 516 713 524 738 547 738 c 0
 576 738 583 682 585 407 c 0
 590 71 597 96 597 71 c 0
EndSplineSet
Fore
SplineSet
216 50 m 0
 216 -52 201 -60 179 -60 c 0
 115 -60 111 59 96 404 c 0
 90 541 88 634 88 695 c 0
 88 744 89 783 97 801 c 1
 111 827 128 837 142 837 c 0
 148 837 153 835 157 832 c 1
 183 785 187 486 210 435 c 1
 227 441 279 461 431 506 c 1
 466 513 501 522 511 526 c 1
 531 553 532 687 554 725 c 0
 560 735 573 738 585 738 c 0
 627 738 632 731 637 407 c 0
 642 71 649 96 649 71 c 0
 649 49 625 37 602 37 c 0
 591 37 580 40 572 46 c 1
 529 96 549 339 530 441 c 1
 499 431 422 391 289 344 c 2
 208 315 l 1
 214 144 l 2
 215 108 216 77 216 50 c 0
EndSplineSet
Validated: 1
Layer: 2
SplineSet
216 50 m 0,0,1
 216 1 216 1 211 -24 c 128,-1,2
 206 -49 206 -49 199 -54.5 c 128,-1,3
 192 -60 192 -60 179 -60 c 0,4,5
 134 -60 134 -60 121.5 26.5 c 128,-1,6
 109 113 109 113 96 404 c 0,7,8
 88 587 88 587 88 695 c 0,9,10
 88 781 88 781 97 801 c 0,11,12
 116 837 116 837 142 837 c 0,13,14
 150 837 150 837 157 832 c 0,15,16
 170 808 170 808 184.5 633.5 c 128,-1,17
 199 459 199 459 210 435 c 1,18,19
 308 470 308 470 431 506 c 1,20,21
 491 518 491 518 511 526 c 1,22,23
 521 539 521 539 532 622.5 c 128,-1,24
 543 706 543 706 554 725 c 0,25,26
 562 738 562 738 585 738 c 0,27,28
 608.944722178 738 608.944722178 738 616.550548108 723.218255713 c 0,29,30
 631.372437047 694.412262231 631.372437047 694.412262231 635.429834019 496.622710586 c 0,31,32
 636.185127054 459.803766876 636.185127054 459.803766876 637 407 c 0,33,34
 638 328 638 328 639.5 267.5 c 128,-1,35
 641 207 641 207 642.5 175.5 c 128,-1,36
 644 144 644 144 645 122.5 c 128,-1,37
 646 101 646 101 647 94 c 128,-1,38
 648 87 648 87 648.5 81.5 c 128,-1,39
 649 76 649 76 649 71 c 0,40,41
 649 55 649 55 635 46 c 128,-1,42
 621 37 621 37 602 37 c 0,43,44
 584 37 584 37 572 46 c 0,45,46
 553 68 553 68 547 142.5 c 128,-1,47
 541 217 541 217 539 310 c 128,-1,48
 537 403 537 403 530 441 c 1,49,50
 523 439 523 439 445 405 c 128,-1,51
 367 371 367 371 289 344 c 2,52,-1
 208 315 l 1,53,-1
 214 144 l 2,54,55
 216 72 216 72 216 50 c 0,0,1
EndSplineSet
EndChar

StartChar: I
Encoding: 73 73 52
Width: 664
Flags: W
HStem: -18 99<155.282 283.328> 677 103<438 537.308>
VStem: 315 125<286.656 665>
LayerCount: 3
Back
SplineSet
390 117 m 0xd0
 394 117 405 132 428 132 c 0
 448 132 467 120 467 101 c 0
 467 72 432 51 309 5 c 0
 267 -11 245 -18 223 -18 c 0
 210 -18 197 -15 180 -10 c 0
 142 1 129 11 129 30 c 0
 129 50 137 55 168 55 c 0
 189 55 229 66 257 78 c 2
 307 101 l 1
 298 288 l 2
 293 392 289 524 289 584 c 2
 289 691 l 1xd0
 260 683 l 2
 225 673 192 669 165 669 c 0
 131 669 107 676 107 691 c 0
 107 721 249 753 301 775 c 0
 310 779 337 780 366 780 c 0
 403 780 443 777 454 773 c 0
 464 769 473 753 473 741 c 0xe0
 473 717 455 708 390 700 c 2
 360 696 l 1
 362 522 l 2
 363 464 368 117 390 117 c 0xd0
EndSplineSet
Fore
SplineSet
460 144 m 1
 467 148 479 153 493 153 c 0
 520 153 545 136 545 110 c 0
 545 69 487 45 353 6 c 1
 309 -10 276 -18 240 -18 c 0
 232 -18 129 -10 129 42 c 0
 129 74 145 81 181 81 c 0
 198 81 237 86 281 102 c 2
 333 121 l 1
 324 292 l 2
 319 392 315 520 315 578 c 2
 315 665 l 1
 297 662 l 2
 245 653 207 648 179 648 c 0
 119 648 107 666 107 680 c 0
 107 725 229 740 335 774 c 1
 347 779 377 780 431 780 c 0
 480 780 518 778 532 767 c 0
 543 758 551 743 551 728 c 0
 551 695 522 684 457 677 c 2
 438 675 l 1
 440 518 l 2
 442 389 447 194 460 144 c 1
EndSplineSet
Validated: 1
Layer: 2
SplineSet
460 144 m 1,0,1
 476 153 476 153 493 153 c 0,2,3
 514 153 514 153 529.5 141 c 128,-1,4
 545 129 545 129 545 110 c 0,5,6
 545 81 545 81 502.5 59 c 128,-1,7
 460 37 460 37 353 6 c 1,8,9
 287 -18 287 -18 240 -18 c 0,10,11
 234 -18 234 -18 219 -15.5 c 128,-1,12
 204 -13 204 -13 182 -7.5 c 128,-1,13
 160 -2 160 -2 144.5 11 c 128,-1,14
 129 24 129 24 129 42 c 0,15,16
 129 65 129 65 141 73 c 128,-1,17
 153 81 153 81 181 81 c 0,18,19
 223 81 223 81 281 102 c 2,20,-1
 333 121 l 1,21,-1
 324 292 l 2,22,23
 315 472 315 472 315 578 c 2,24,-1
 315 665 l 1,25,-1
 297 662 l 2,26,27
 216 648 216 648 179 648 c 0,28,29
 107 648 107 648 107 680 c 0,30,31
 107 693 107 693 119.5 703.5 c 128,-1,32
 132 714 132 714 157.5 723 c 128,-1,33
 183 732 183 732 208 739 c 128,-1,34
 233 746 233 746 271 756 c 128,-1,35
 309 766 309 766 335 774 c 0,36,37
 349 780 349 780 431 780 c 0,38,39
 515 780 515 780 532 767 c 0,40,41
 551 751 551 751 551 728 c 0,42,43
 551 704 551 704 529.5 693 c 128,-1,44
 508 682 508 682 457 677 c 2,45,-1
 438 675 l 1,46,-1
 440 518 l 2,47,48
 445 202 445 202 460 144 c 1,0,1
EndSplineSet
EndChar

StartChar: J
Encoding: 74 74 53
Width: 741
Flags: W
HStem: -53 103<305.489 376>
VStem: 98 122<193.063 317.295> 412 92<269.868 622.752>
LayerCount: 3
Back
SplineSet
346 644 m 0
 300 644 149 594 103 594 c 0
 89 594 83 597 79 604 c 0
 73 615 69 624 69 632 c 0
 69 663 128 680 354 734 c 2
 591 793 l 1
 592 793 l 2
 596 793 638 770 638 753 c 0
 638 718 482 694 461 677 c 0
 456 673 452 628 452 571 c 2
 452 527 l 2
 452 394 431 159 412 83 c 0
 394 14 352 -53 325 -53 c 0
 291 -53 233 -22 233 -3 c 0
 233 6 226 19 217 25 c 0
 196 38 98 200 98 263 c 0
 98 296 116 315 147 315 c 0
 187 315 189 299 191 238 c 0
 193 183 203 153 232 107 c 0
 269 49 288 25 304 25 c 0
 312 25 319 30 327 40 c 0
 355 74 386 310 386 494 c 2
 386 547 l 2
 386 619 383 644 346 644 c 0
EndSplineSet
Fore
SplineSet
335 50 m 0
 381 50 412 356 412 491 c 2
 412 542 l 2
 412 613 407 624 381 624 c 0
 333 624 162 575 116 575 c 0
 109 575 90 575 81 591 c 0
 74 603 69 614 69 625 c 0
 69 666 129 681 387 736 c 1
 631 793 l 1
 651 789 690 764 690 742 c 1
 685 692 542 677 510 659 c 1
 508 650 504 619 504 565 c 2
 504 522 l 2
 504 392 484 165 464 89 c 0
 440 2 393 -53 359 -53 c 0
 312 -53 239 -19 239 10 c 0
 239 18 230 25 224 29 c 0
 192 52 98 204 98 267 c 0
 98 307 123 330 160 330 c 0
 218 330 218 296 220 244 c 0
 222 192 235 164 265 123 c 0
 297 80 321 50 335 50 c 0
EndSplineSet
Validated: 1
Layer: 2
SplineSet
335 50 m 0,0,1
 366 50 366 50 389 208.5 c 128,-1,2
 412 367 412 367 412 491 c 2,3,-1
 412 542 l 2,4,5
 412 595 412 595 406.5 609.5 c 128,-1,6
 401 624 401 624 381 624 c 0,7,8
 357 624 357 624 248 599.5 c 128,-1,9
 139 575 139 575 116 575 c 0,10,11
 90 575 90 575 81 591 c 0,12,13
 69 612 69 612 69 625 c 0,14,15
 69 654 69 654 126 673.5 c 128,-1,16
 183 693 183 693 387 736 c 1,17,-1
 631 793 l 1,18,19
 648 790 648 790 669 773.5 c 128,-1,20
 690 757 690 757 690 742 c 0,21,22
 688 720 688 720 651 703.5 c 128,-1,23
 614 687 614 687 567 675.5 c 128,-1,24
 520 664 520 664 510 659 c 1,25,26
 504 632 504 632 504 565 c 2,27,-1
 504 522 l 2,28,29
 504 423 504 423 491.5 284 c 128,-1,30
 479 145 479 145 464 89 c 0,31,32
 447 26 447 26 416.5 -13.5 c 128,-1,33
 386 -53 386 -53 359 -53 c 0,34,35
 322 -53 322 -53 280.5 -32 c 128,-1,36
 239 -11 239 -11 239 10 c 0,37,38
 239 19 239 19 224 29 c 0,39,40
 197 49 197 49 147.5 136 c 128,-1,41
 98 223 98 223 98 267 c 0,42,43
 98 297 98 297 115 313.5 c 128,-1,44
 132 330 132 330 160 330 c 0,45,46
 181 330 181 330 193.5 325 c 128,-1,47
 206 320 206 320 211.5 305.5 c 128,-1,48
 217 291 217 291 218 280.5 c 128,-1,49
 219 270 219 270 220 244 c 0,50,51
 222 181 222 181 265 123 c 0,52,53
 319 50 319 50 335 50 c 0,0,1
EndSplineSet
EndChar

StartChar: K
Encoding: 75 75 54
Width: 831
Flags: W
VStem: 94 110<488.149 783.432> 115 124<-2.75 228.805>
LayerCount: 3
Back
SplineSet
94 740 m 0xc0
 94 802 92 831 118 831 c 0
 130 831 144 822 153 805 c 0
 160 791 166 732 167 672 c 0xc0
 167 611 171 538 176 507 c 2
 185 451 l 1
 283 556 l 2
 337 613 389 661 397 661 c 0
 421 661 450 713 474 713 c 0
 501 713 513 751 549 751 c 0
 571 751 591 736 591 709 c 0
 591 692 580 685 547 675 c 0
 484 657 216 389 216 346 c 0
 216 342 216 341 385 249 c 0
 597 135 607 112 631 112 c 0
 655 112 730 46 730 26 c 0
 730 15 726 7 720 7 c 0
 694 7 573 51 532 75 c 0
 444 127 216 243 203 243 c 0
 196 243 193 235 193 217 c 0
 193 184 212 72 212 -6 c 0
 212 -51 204 -66 186 -66 c 0
 132 -66 132 -10 115 199 c 0xa0
 104 341 94 609 94 740 c 0xc0
EndSplineSet
Fore
SplineSet
239 10 m 0x40
 239 -39 231 -66 199 -66 c 0
 129 -66 131 13 115 203 c 0x40
 104 341 94 601 94 729 c 2
 94 752 l 2
 94 802 98 831 131 831 c 0
 150 831 167 818 178 798 c 0
 200 758 190 585 204 508 c 2x80
 209 479 l 1
 293 561 l 2
 410 675 416 664 426 667 c 0
 445 673 476 716 505 716 c 0
 525 716 541 753 584 753 c 0
 621 753 642 726 642 702 c 0
 642 673 615 663 586 655 c 0
 521 636 266 400 245 354 c 1
 255 348 283 333 416 268 c 0
 628 164 652 138 670 138 c 1
 707 135 781 66 781 41 c 0
 781 30 780 7 759 7 c 0
 726 7 596 56 558 77 c 0
 461 131 260 227 220 242 c 1
 220 239 219 235 219 230 c 0
 219 206 239 86 239 10 c 0x40
EndSplineSet
Validated: 1
Layer: 2
SplineSet
239 10 m 0,0,1
 239 -29 239 -29 230.5 -47.5 c 128,-1,2
 222 -66 222 -66 199 -66 c 0,3,4
 156.19294204 -66 156.19294204 -66 140.744542289 -17.3704627996 c 0,5,6
 129.810205007 17.0493975225 129.810205007 17.0493975225 119.565246859 146.576801117 c 0,7,8
 116.686626175 182.971314178 116.686626175 182.971314178 115 203 c 0,9,10
 94 466 94 466 94 729 c 2,11,-1
 94 752 l 2,12,13
 94 794 94 794 101 812.5 c 128,-1,14
 108 831 108 831 131 831 c 0,15,16
 160 831 160 831 178 798 c 0,17,18
 190 776 190 776 194 657.5 c 128,-1,19
 198 539 198 539 204 508 c 2,20,-1
 209 479 l 1,21,-1
 293 561 l 2,22,23
 321 588 321 588 343 608 c 128,-1,24
 365 628 365 628 377 638.5 c 128,-1,25
 389 649 389 649 399.5 655.5 c 128,-1,26
 410 662 410 662 413 663.5 c 128,-1,27
 416 665 416 665 421 666 c 2,28,-1
 426 667 l 2,29,30
 432 669 432 669 460 692.5 c 128,-1,31
 488 716 488 716 505 716 c 0,32,33
 512 716 512 716 536 734.5 c 128,-1,34
 560 753 560 753 584 753 c 0,35,36
 610 753 610 753 626 737.5 c 128,-1,37
 642 722 642 722 642 702 c 0,38,39
 642 670 642 670 586 655 c 0,40,41
 540 641 540 641 401 516 c 128,-1,42
 262 391 262 391 245 354 c 1,43,44
 267 341 267 341 416 268 c 0,45,46
 474 240 474 240 521.5 215 c 128,-1,47
 569 190 569 190 592.5 177 c 128,-1,48
 616 164 616 164 633.5 154 c 128,-1,49
 651 144 651 144 658 141 c 128,-1,50
 665 138 665 138 670 138 c 0,51,52
 697 136 697 136 739 98 c 128,-1,53
 781 60 781 60 781 41 c 0,54,55
 781 7 781 7 759 7 c 0,56,57
 736 7 736 7 662.5 33.5 c 128,-1,58
 589 60 589 60 558 77 c 0,59,60
 490 115 490 115 371.5 172.5 c 128,-1,61
 253 230 253 230 220 242 c 1,62,63
 220 241 220 241 219.5 237 c 128,-1,64
 219 233 219 233 219 230 c 0,65,66
 219 224 219 224 229 139 c 128,-1,67
 239 54 239 54 239 10 c 0,0,1
EndSplineSet
EndChar

StartChar: L
Encoding: 76 76 55
Width: 760
Flags: W
HStem: -10 100<172 381.498>
VStem: 97 76<523.239 775.596>
LayerCount: 3
Back
SplineSet
97 752 m 0xc0
 97 764 94 788 112 788 c 0
 123 788 137 775 147 751 c 0xc0
 154 734 166 593 173 436 c 0
 190 73 190 67 234 67 c 0
 294.484 67 607.165 153 617 153 c 0
 643 153 655 126 655 119 c 0
 655 112 649 106 636 94 c 0
 596.777 61.9083 333.496 -10 204 -10 c 0
 124 -10 125 -2 108 396 c 0xa0
 101 555 97 695 97 752 c 0xc0
EndSplineSet
Fore
SplineSet
97 749 m 0
 97 772 103 788 125 788 c 0
 154 788 171 747 173 740 c 0
 200 652 202 144 231 96 c 0
 234 90 238 90 252 90 c 0
 322 91 644 173 656 173 c 0
 676 173 707 154 707 127 c 0
 707 114 697 104 684 94 c 0
 641 60 359 -10 220 -10 c 0
 124 -10 125 9 108 395 c 0
 101 558 97 681 97 749 c 0
EndSplineSet
Validated: 1
Layer: 2
SplineSet
97 749 m 0,0,1
 97 788 97 788 125 788 c 0,2,3
 138 788 138 788 149.5 777 c 128,-1,4
 161 766 161 766 166 756 c 128,-1,5
 171 746 171 746 173 740 c 0,6,7
 186 698 186 698 201 409.5 c 128,-1,8
 216 121 216 121 231 96 c 0,9,10
 234 90 234 90 252 90 c 0,11,12
 283 90 283 90 381 111 c 128,-1,13
 479 132 479 132 565.5 152.5 c 128,-1,14
 652 173 652 173 656 173 c 0,15,16
 673 173 673 173 690 159.5 c 128,-1,17
 707 146 707 146 707 127 c 0,18,19
 707 112 707 112 684 94 c 0,20,21
 650 67 650 67 485 28.5 c 128,-1,22
 320 -10 320 -10 220 -10 c 0,23,24
 150 -10 150 -10 135.5 42.5 c 128,-1,25
 121 95 121 95 108.938351651 373.664814134 c 0,26,27
 109 378 109 378 109 381 c 128,-1,28
 109 384 109 384 108.5 388 c 128,-1,29
 108 392 108 392 108 395 c 0,30,31
 97 651 97 651 97 749 c 0,0,1
EndSplineSet
EndChar

StartChar: M
Encoding: 77 77 56
Width: 779
Flags: W
VStem: 71 115<189.297 459> 580 109<374.458 640.551> 614 105<2.89087 170.339>
LayerCount: 3
Back
SplineSet
112 -71 m 0
 79 -71 71 4 71 467 c 0
 71 680 74 778 83 789 c 0
 91 800 107 808 120 808 c 0
 137 808 151 779 178 687 c 0
 219 540 281 403 304 403 c 0
 327 403 407 539 502 741 c 0
 520 779 551 803 577 803 c 0
 585 803 593 801 599 795 c 0
 628 768 634 712 637 413 c 0
 641 17 667 71 667 19 c 0
 667 -6 653 -12 639 -12 c 0
 619 -12 595 2 587 24 c 0
 572 63 566 664 550 664 c 0
 544 664 528 635 511 597 c 0
 478 522 472 510 418 416 c 0
 390 366 323 320 280 320 c 0
 269 320 237 358 209 407 c 2
 158 494 l 1
 158 236 l 2
 157 -18 149 -71 112 -71 c 0
EndSplineSet
Fore
SplineSet
128 -71 m 0xc0
 74 -71 71 11 71 464 c 0
 71 688 73 767 86 784 c 0
 93 793 112 808 131 808 c 0
 161 808 178 770 206 678 c 0
 253 522 308 419 327 404 c 1
 347 417 412 511 524 734 c 0
 543 772 583 803 616 803 c 0
 627 803 638 799 647 791 c 0
 684 758 686 679 689 412 c 0xc0
 693 30 719 86 719 32 c 0
 719 -3 698 -12 678 -12 c 0
 652 -12 623 5 614 32 c 0xa0
 598 76 592 529 580 646 c 1
 543 582 566 598 460 423 c 0
 430 374 355 320 301 320 c 0
 279 320 241 368 214 413 c 2
 186 459 l 1
 186 249 l 2
 186 -23 172 -71 128 -71 c 0xc0
EndSplineSet
Validated: 1
Layer: 2
SplineSet
128 -71 m 0,0,1
 89 -71 89 -71 80 20 c 128,-1,2
 71 111 71 111 71 464 c 0,3,4
 71 640 71 640 74 706 c 128,-1,5
 77 772 77 772 86 784 c 0,6,7
 105 808 105 808 131 808 c 0,8,9
 153 808 153 808 168.5 779.5 c 128,-1,10
 184 751 184 751 206 678 c 0,11,12
 238 571 238 571 274 494 c 128,-1,13
 310 417 310 417 327 404 c 1,14,15
 338 411 338 411 361.5 444.5 c 128,-1,16
 385 478 385 478 428.5 554 c 128,-1,17
 472 630 472 630 524 734 c 0,18,19
 538 763 538 763 564.5 783 c 128,-1,20
 591 803 591 803 616 803 c 0,21,22
 634 803 634 803 647 791 c 0,23,24
 673 768 673 768 680 698.5 c 128,-1,25
 687 629 687 629 689 412 c 0,26,27
 690 281 690 281 695 200 c 128,-1,28
 700 119 700 119 705.5 98 c 128,-1,29
 711 77 711 77 715 62 c 128,-1,30
 719 47 719 47 719 32 c 0,31,32
 719 -12 719 -12 678 -12 c 0,33,34
 658 -12 658 -12 639.5 0 c 128,-1,35
 621 12 621 12 614 32 c 0,36,37
 607 51 607 51 601 177.5 c 128,-1,38
 595 304 595 304 590 452 c 128,-1,39
 585 600 585 600 580 646 c 1,40,41
 573 633 573 633 547.5 579.5 c 128,-1,42
 522 526 522 526 460 423 c 0,43,44
 437 385 437 385 388.5 352.5 c 128,-1,45
 340 320 340 320 301 320 c 0,46,47
 286 320 286 320 261.5 347.5 c 128,-1,48
 237 375 237 375 214 413 c 2,49,-1
 186 459 l 1,50,-1
 186 249 l 2,51,52
 186 112 186 112 180.5 44 c 128,-1,53
 175 -24 175 -24 163 -47.5 c 128,-1,54
 151 -71 151 -71 128 -71 c 0,0,1
EndSplineSet
EndChar

StartChar: N
Encoding: 78 78 57
Width: 881
Flags: W
VStem: 82 114<118.075 525.099>
LayerCount: 3
Back
SplineSet
170 314 m 0
 170 225 178 211 178 177 c 0
 178 110 157 33 135 33 c 0
 93 34 82 41 82 189 c 0
 82 350 94 740 102 761 c 0
 109 777 125 786 143 786 c 0
 154 786 166 782 177 775 c 0
 194 764 313 595 313 582 c 0
 313 567 374 495 486 275 c 0
 516 216 592 70 622 70 c 0
 633 70 649 75 663 329 c 0
 685 675 687 714 742 714 c 0
 764 714 774 700 774 656 c 0
 774 602 755 493 734 222 c 0
 720 24 710 -21 659 -21 c 0
 569 -21 506 51 435 195 c 0
 351 363 350 338 337 391 c 0
 325 443 222 582 201 622 c 0
 200 624 199 624 198 624 c 0
 185 624 170 443 170 314 c 0
EndSplineSet
Fore
SplineSet
196 316 m 0
 196 232 204 219 204 185 c 0
 204 110 182 31 148 31 c 0
 92 31 82 57 82 194 c 0
 82 323 92 718 102 752 c 1
 102 752 113 786 156 786 c 0
 170 786 184 781 197 773 c 0
 220 757 346 595 346 575 c 1
 353 557 416 484 527 284 c 0
 592 166 640 100 658 93 c 1
 669 110 678 186 688 331 c 0
 710 656 711 716 781 716 c 0
 825 716 826 670 826 647 c 0
 826 592 807 488 786 226 c 0
 771 40 764 -21 698 -21 c 0
 594 -21 524 55 449 195 c 0
 362 357 359 334 345 388 c 0
 334 429 251 536 215 589 c 1
 205 540 196 415 196 316 c 0
EndSplineSet
Validated: 1
Layer: 2
SplineSet
196 316 m 0,0,1
 196 268 196 268 200 232 c 128,-1,2
 204 196 204 196 204 185 c 0,3,4
 204 125 204 125 188 78 c 128,-1,5
 172 31 172 31 148 31 c 0,6,7
 106 31 106 31 94 61 c 128,-1,8
 82 91 82 91 82 194 c 0,9,10
 82 310 82 310 88.5 519.5 c 128,-1,11
 95 729 95 729 102 752 c 0,12,13
 103 756 103 756 106 761.5 c 128,-1,14
 109 767 109 767 123 776.5 c 128,-1,15
 137 786 137 786 156 786 c 0,16,17
 176 786 176 786 197 773 c 0,18,19
 215 760 215 760 280.5 674.5 c 128,-1,20
 346 589 346 589 346 575 c 0,21,22
 348 570 348 570 369 540 c 128,-1,23
 390 510 390 510 434.5 440.5 c 128,-1,24
 479 371 479 371 527 284 c 0,25,26
 625 106 625 106 658 93 c 1,27,28
 673 117 673 117 688 331 c 0,29,30
 705.908593791 595.558771916 705.908593791 595.558771916 716.591680076 645.807619778 c 0,31,32
 729.04427281 704.379498832 729.04427281 704.379498832 759.670661613 713.372841658 c 0,33,34
 768.617320755 716 768.617320755 716 781 716 c 0,35,36
 826 716 826 716 826 647 c 0,37,38
 826 624 826 624 821 577.5 c 128,-1,39
 816 531 816 531 805.5 433.5 c 128,-1,40
 795 336 795 336 786 226 c 0,41,42
 782 171 782 171 779 142.5 c 128,-1,43
 776 114 776 114 771 80.5 c 128,-1,44
 766 47 766 47 761 32 c 128,-1,45
 756 17 756 17 747 2.5 c 128,-1,46
 738 -12 738 -12 726.5 -16.5 c 128,-1,47
 715 -21 715 -21 698 -21 c 0,48,49
 623 -21 623 -21 565.5 31.5 c 128,-1,50
 508 84 508 84 449 195 c 0,51,52
 421 247 421 247 399 284.5 c 128,-1,53
 377 322 377 322 369 333 c 128,-1,54
 361 344 361 344 355.5 356.5 c 128,-1,55
 350 369 350 369 345 388 c 0,56,57
 340 406 340 406 318 441 c 128,-1,58
 296 476 296 476 258.5 528 c 128,-1,59
 221 580 221 580 215 589 c 1,60,61
 196 496 196 496 196 316 c 0,0,1
EndSplineSet
EndChar

StartChar: O
Encoding: 79 79 58
Width: 707
Flags: W
HStem: -26 94<265.891 403.089> 650 123<419.639 517.505>
VStem: 61 103<217.06 432.705> 578 81<407.41 567.573>
LayerCount: 3
Back
SplineSet
607 473 m 0
 607 244 481 14 428 14 c 0
 419 14 410 7 407 -2 c 0
 403 -14 337 -26 279 -26 c 0
 242 -26 227 -18 194 7 c 0
 125 62 61 200 61 307 c 0
 61 427 121 564 206 624 c 0
 239 647 275 666 286 666 c 0
 314 666 339 720 372 720 c 0
 412 720 393 747 440 747 c 0
 540 747 607 640 607 473 c 0
552 492 m 0
 552 536 495 635 484 642 c 0
 475 648 463 650 446 650 c 0
 419 650 381 643 332 627 c 0
 233 596 168 507 146 374 c 0
 140 337 136 314 136 293 c 0
 136 263 144 240 160 193 c 0
 196 92 244 42 307 42 c 0
 324 42 343 46 363 54 c 0
 410 72 497 200 507 265 c 0
 518 348 552 452 552 492 c 0
EndSplineSet
Fore
SplineSet
530 280 m 1
 542 368 578 466 578 505 c 0
 578 543 524 632 512 644 c 1
 507 647 499 650 479 650 c 0
 456 650 418 645 362 628 c 0
 215 584 183 435 174 385 c 0
 168 348 164 325 164 306 c 0
 164 279 170 257 188 210 c 0
 225 110 274 68 332 68 c 0
 348 68 366 72 386 79 c 0
 428 95 520 217 530 280 c 1
460 14 m 0
 452 14 452 3 443 -3 c 0
 422 -17 352 -26 302 -26 c 0
 261 -26 242 -18 203 10 c 1
 125 69 61 212 61 320 c 0
 61 442 121 585 216 648 c 0
 260 677 292 691 312 692 c 1
 335 697 361 746 401 746 c 0
 434 746 417 773 473 773 c 0
 587 773 659 661 659 488 c 0
 659 255 531 14 460 14 c 0
EndSplineSet
Validated: 1
Layer: 2
SplineSet
530 280 m 0,0,1
 536 325 536 325 557 405.5 c 128,-1,2
 578 486 578 486 578 505 c 0,3,4
 578 530 578 530 551.5 580.5 c 128,-1,5
 525 631 525 631 512 644 c 0,6,7
 502 650 502 650 479 650 c 0,8,9
 434 650 434 650 362 628 c 0,10,11
 210 582 210 582 174 385 c 0,12,13
 164 323 164 323 164 306 c 0,14,15
 164 273 164 273 188 210 c 0,16,17
 241 68 241 68 332 68 c 0,18,19
 355 68 355 68 386 79 c 0,20,21
 418 91 418 91 470.5 162.5 c 128,-1,22
 523 234 523 234 530 280 c 0,0,1
460 14 m 0,23,24
 456 14 456 14 451.5 7 c 128,-1,25
 447 -0 447 -0 443 -3 c 0,26,27
 428 -13 428 -13 385 -19.5 c 128,-1,28
 342 -26 342 -26 302 -26 c 0,29,30
 272 -26 272 -26 252.5 -18.5 c 128,-1,31
 233 -11 233 -11 203 10 c 0,32,33
 145 54 145 54 103 146 c 128,-1,34
 61 238 61 238 61 320 c 0,35,36
 61 414 61 414 104 508 c 128,-1,37
 147 602 147 602 216 648 c 0,38,39
 280 690 280 690 312 692 c 0,40,41
 320 694 320 694 349 720 c 128,-1,42
 378 746 378 746 401 746 c 0,43,44
 415 746 415 746 428.5 759.5 c 128,-1,45
 442 773 442 773 473 773 c 0,46,47
 558 773 558 773 608.5 695.5 c 128,-1,48
 659 618 659 618 659 488 c 0,49,50
 659 405 659 405 638 316.5 c 128,-1,51
 617 228 617 228 586.5 163 c 128,-1,52
 556 98 556 98 521 56 c 128,-1,53
 486 14 486 14 460 14 c 0,23,24
EndSplineSet
EndChar

StartChar: P
Encoding: 80 80 59
Width: 703
Flags: W
HStem: 320 89<256.063 379.472> 706 106<273.733 509.108>
VStem: 131 100<419.009 630.447> 564 87<583.719 666.151>
LayerCount: 3
Back
SplineSet
229 795 m 0xe8
 292 795 323 812 384 812 c 0
 391 812 397 812 402 811 c 0
 524.21 795.332 599 786.245 599 666 c 0
 599 609 579 527 563 527 c 0
 555 527 550 519 550 508 c 0
 550 477 442 378 396 368 c 0
 374 362 353 353 349 346 c 0
 345 339 316 333 284 333 c 2
 225 333 l 1
 235 153 l 2
 238 101 239 62 239 32 c 0
 239 -16 235 -38 228 -48 c 0
 217 -61 207 -68 199 -68 c 0
 185 -68 175 -53 171 -23 c 0xd8
 157 80 131 459 131 558 c 2
 131 665 l 1
 101 644 l 2
 88 635 75 630 66 630 c 0
 59 630 47 639 47 654 c 0
 47 673 66 702 104 742 c 0
 145 785 161 798 185 798 c 0
 199 798 203 795 229 795 c 0xe8
447 720 m 0
 412 728 394 732 374 732 c 0
 353 732 330 727 282 717 c 0
 211 703 203 694 203 617 c 0xe8
 203 543 214 426 225 414 c 0
 228 410 236 409 248 409 c 0
 290 409 376 431 421 456 c 0
 447 471 468 494 470 510 c 0
 476 557 538 593 538 644 c 0
 538 679 507 707 447 720 c 0
EndSplineSet
Fore
SplineSet
564 631 m 0
 564 657 539 681 477 694 c 0
 439 702 420 706 401 706 c 0
 382 706 362 702 305 691 c 0
 238 678 231 676 231 604 c 0
 231 531 242 427 251 410 c 1
 254 409 258 409 263 409 c 0
 299 409 391 426 445 454 c 0
 472 468 490 489 491 499 c 0
 498 550 564 587 564 631 c 0
245 795 m 0
 312 795 345 812 412 812 c 0
 417 812 426 812 434 811 c 0
 565 795 651 786 651 658 c 0
 651 617 637 511 603 509 c 1
 601 505 602 497 601 494 c 0
 587 453 479 364 428 354 c 1
 380 341 389 339 380 333 c 0
 369 326 341 320 304 320 c 2
 256 320 l 1
 265 159 l 2
 268 108 270 69 270 39 c 0
 270 -26 260 -50 227 -65 c 0
 222 -67 217 -68 212 -68 c 0
 192 -68 176 -50 171 -12 c 0
 157 89 131 456 131 553 c 2
 131 632 l 1
 121 626 l 2
 114 621 96 610 79 610 c 0
 66 610 47 623 47 646 c 0
 47 672 76 707 108 740 c 0
 148 781 168 798 198 798 c 0
 217 798 217 795 245 795 c 0
EndSplineSet
Validated: 1
Layer: 2
SplineSet
564 631 m 0,0,1
 564 676 564 676 477 694 c 0,2,3
 420 706 420 706 401 706 c 0,4,5
 383 706 383 706 305 691 c 0,6,7
 253 681 253 681 242 669 c 128,-1,8
 231 657 231 657 231 604 c 0,9,10
 231 550 231 550 237.5 486.5 c 128,-1,11
 244 423 244 423 251 410 c 0,12,13
 254 409 254 409 263 409 c 0,14,15
 294 409 294 409 351 422 c 128,-1,16
 408 435 408 435 445 454 c 0,17,18
 464 464 464 464 477 477.5 c 128,-1,19
 490 491 490 491 491 499 c 0,20,21
 494 524 494 524 529 566.5 c 128,-1,22
 564 609 564 609 564 631 c 0,0,1
245 795 m 0,23,24
 278 795 278 795 328 803.5 c 128,-1,25
 378 812 378 812 412 812 c 0,26,27
 426 812 426 812 434 811 c 0,28,29
 472 806 472 806 488 804 c 128,-1,30
 504 802 504 802 533.5 796 c 128,-1,31
 563 790 563 790 575.5 784 c 128,-1,32
 588 778 588 778 606 767 c 128,-1,33
 624 756 624 756 631.5 741.5 c 128,-1,34
 639 727 639 727 645 706 c 128,-1,35
 651 685 651 685 651 658 c 0,36,37
 651 615 651 615 638.5 562.5 c 128,-1,38
 626 510 626 510 603 509 c 0,39,40
 602 507 602 507 601.5 501 c 128,-1,41
 601 495 601 495 601 494 c 0,42,43
 590 463 590 463 528 412 c 128,-1,44
 466 361 466 361 428 354 c 0,45,46
 406 348 406 348 397.5 345 c 128,-1,47
 389 342 389 342 385 337.5 c 128,-1,48
 381 333 381 333 380 333 c 0,49,50
 360 320 360 320 304 320 c 2,51,-1
 256 320 l 1,52,-1
 265 159 l 2,53,54
 270 74 270 74 270 39 c 0,55,56
 270 -10 270 -10 261 -32 c 128,-1,57
 252 -54 252 -54 227 -65 c 0,58,59
 219.5 -68 219.5 -68 212 -68 c 0,60,61
 178 -68 178 -68 171 -12 c 0,62,63
 160 64 160 64 145.5 272 c 128,-1,64
 131 480 131 480 131 553 c 2,65,-1
 131 632 l 1,66,-1
 121 626 l 2,67,68
 99 610 99 610 79 610 c 0,69,70
 68 610 68 610 57.5 620 c 128,-1,71
 47 630 47 630 47 646 c 0,72,73
 47 677 47 677 108 740 c 0,74,75
 140 773 140 773 158.5 785.5 c 128,-1,76
 177 798 177 798 198 798 c 0,77,78
 206 798 206 798 218 796.5 c 128,-1,79
 230 795 230 795 245 795 c 0,23,24
EndSplineSet
EndChar

StartChar: Q
Encoding: 81 81 60
Width: 813
Flags: W
HStem: -55 104<236.241 402.354> -18 21G<754 771> 661 124<389.32 591>
VStem: 50 105<161.546 439.481> 617 80<434.503 600.192>
DStem2: 653 174 609 73 0.821065 -0.570835<-27.5487 138.228>
LayerCount: 3
Back
SplineSet
116 547 m 0
 184 685 301 743 528 759 c 0
 531 759 l 0
 565 759 603 715 630 643 c 0
 640 616 645 579 645 536 c 0
 645 463 630 371 602 279 c 2
 571 177 l 1
 606 151 l 2
 680 95 738 23 738 -6 c 0
 738 -14 733 -18 724 -18 c 0
 709 -18 664 5 643 24 c 0
 635 31 606 51 578 71 c 2
 528 106 l 1
 508 74 l 2
 457 -9 372 -55 289 -55 c 0
 242 -55 195 -40 156 -8 c 0
 107 32 50 176 50 259 c 0
 50 353 76 467 116 547 c 0
506 237 m 0
 525 237 591 475 591 532 c 0
 591 571 575 590 546 620 c 0
 515 652 503 661 384 661 c 0
 352 661 325 659 318 657 c 0
 273 641 165 526 165 494 c 0
 165 482 159 465 152 457 c 0
 143 448 128 334 128 252 c 0
 128 208 134 183 151 138 c 0
 184 52 220 23 292 23 c 0
 369 23 468 87 469 138 c 0
 469 154 418 207 349 260 c 0
 328 276 319 284 319 292 c 0
 319 300 338 324 352 324 c 0
 380 324 485 237 506 237 c 0
EndSplineSet
Fore
SplineSet
117 566 m 1xb8
 228 780 502 785 567 785 c 0
 615 785 656 728 681 661 c 0
 689 640 697 605 697 549 c 0
 697 474 681 381 653 288 c 2
 625 195 l 1
 653 174 l 2
 714 128 790 48 790 7 c 0
 790 -8 779 -18 763 -18 c 0x78
 745 -18 697 5 673 27 c 0
 667 33 644 49 609 73 c 2
 568 100 l 1
 555 80 l 2
 498 -6 405 -55 312 -55 c 0
 259 -55 207 -39 163 -5 c 0
 110 37 50 183 50 272 c 0
 50 368 76 484 117 566 c 1xb8
330 305 m 0
 330 319 350 350 378 350 c 0
 411 350 512 274 537 264 c 1
 560 299 617 489 617 546 c 0
 617 580 601 597 573 624 c 0
 542 654 532 661 412 661 c 0
 373 661 350 659 347 658 c 0
 301 643 195 530 195 507 c 0
 195 498 190 476 178 462 c 1
 169 447 155 341 155 264 c 0
 155 221 163 197 179 156 c 0
 211 77 243 49 315 49 c 0xb8
 390 49 487 109 488 151 c 1
 484 162 448 204 367 263 c 0
 349 276 330 289 330 305 c 0
EndSplineSet
Validated: 1
Layer: 2
SplineSet
117 566 m 0,0,1
 148 626 148 626 201 670.5 c 128,-1,2
 254 715 254 715 303.5 736 c 128,-1,3
 353 757 353 757 413.5 769 c 128,-1,4
 474 781 474 781 504.5 783 c 128,-1,5
 535 785 535 785 567 785 c 0,6,7
 601 785 601 785 631 750 c 128,-1,8
 661 715 661 715 681 661 c 0,9,10
 697 619 697 619 697 549 c 0,11,12
 697 434 697 434 653 288 c 2,13,-1
 625 195 l 1,14,-1
 653 174 l 2,15,16
 704 136 704 136 747 86 c 128,-1,17
 790 36 790 36 790 7 c 0,18,19
 790 -4 790 -4 782.5 -11 c 128,-1,20
 775 -18 775 -18 763 -18 c 0,21,22
 749 -18 749 -18 720 -3.5 c 128,-1,23
 691 11 691 11 673 27 c 0,24,25
 666 34 666 34 609 73 c 2,26,-1
 568 100 l 1,27,-1
 555 80 l 2,28,29
 513 16 513 16 448 -19.5 c 128,-1,30
 383 -55 383 -55 312 -55 c 0,31,32
 228 -55 228 -55 163 -5 c 0,33,34
 123 27 123 27 86.5 116 c 128,-1,35
 50 205 50 205 50 272 c 0,36,37
 50 344 50 344 68 424.5 c 128,-1,38
 86 505 86 505 117 566 c 0,0,1
330 305 m 0,39,40
 330 318 330 318 344.5 334 c 128,-1,41
 359 350 359 350 378 350 c 0,42,43
 398 350 398 350 465.5 308 c 128,-1,44
 533 266 533 266 537 264 c 1,45,46
 555 292 555 292 586 398.5 c 128,-1,47
 617 505 617 505 617 546 c 0,48,49
 617 569 617 569 607 585 c 128,-1,50
 597 601 597 601 573 624 c 0,51,52
 548 648 548 648 523 654.5 c 128,-1,53
 498 661 498 661 412 661 c 0,54,55
 356 661 356 661 347 658 c 0,56,57
 314 647 314 647 254.5 586 c 128,-1,58
 195 525 195 525 195 507 c 0,59,60
 195 482 195 482 178 462 c 0,61,62
 171 450 171 450 163 384.5 c 128,-1,63
 155 319 155 319 155 264 c 0,64,65
 155 217 155 217 179 156 c 0,66,67
 203 96 203 96 232.5 72.5 c 128,-1,68
 262 49 262 49 315 49 c 0,69,70
 371 49 371 49 429 84 c 128,-1,71
 487 119 487 119 488 151 c 0,72,73
 486 157 486 157 473.5 171 c 128,-1,74
 461 185 461 185 432.5 210.5 c 128,-1,75
 404 236 404 236 367 263 c 128,-1,76
 330 290 330 290 330 305 c 0,39,40
EndSplineSet
EndChar

StartChar: R
Encoding: 82 82 61
Width: 688
Flags: W
HStem: 653 114<234 396.292>
VStem: 168 94<-9.15826 206.926>
LayerCount: 3
Back
SplineSet
57 622 m 0xb0
 57 646.471 144.443 741 159 741 c 0
 210 741 445 712 478 701 c 0
 523 688 545 654 545 610 c 0
 545 512 439 431 439 413 c 0
 439 404 339 338 280 308 c 0
 260 297 244 287 244 283 c 0
 244 277 387 240 454 194 c 0
 480 176 505 162 510 162 c 0
 529 161 587 100 587 82 c 0
 587 65 582 57 569 57 c 0
 530 57 433 133 306 182 c 2
 228 213 l 1
 232 96 l 2
 233 69 233 49 233 33 c 0
 233 -0 235 -24 206 -24 c 0
 180 -24 168 14 168 98 c 0
 168 185 155 232 127 245 c 0
 107 254 97 268 97 281 c 0
 97 294 107 307 126 316 c 2
 159 331 l 1
 151 445 l 2
 143 565 136 607 121 607 c 0
 111 607 109 593 87 593 c 0
 71 593 57 604 57 622 c 0xb0
486 617 m 0
 486 623 489 626 412 647 c 0
 376 657 314 666 274 666 c 2
 202 666 l 1x70
 209 612 l 2
 216 560 231 364 236 364 c 0
 255 364 362 423 394 452 c 0
 429 483 486 588 486 617 c 0
EndSplineSet
Fore
SplineSet
57 635 m 1
 60 671 149 767 172 767 c 0
 229 767 485 737 521 726 c 0
 578 709 597 665 597 626 c 0
 597 522 500 447 489 424 c 1
 487 397 293 303 286 299 c 1
 331 285 439 255 499 218 c 0
 524 202 542 191 549 188 c 1
 581 183 639 119 639 95 c 0
 639 81 636 57 608 57 c 0
 563 57 467 129 322 183 c 2
 257 207 l 1
 260 109 l 2
 262 66 262 66 262 38 c 0
 262 9 260 -24 219 -24 c 0
 177 -24 168 34 168 111 c 0
 168 210 151 239 135 246 c 0
 112 256 97 274 97 294 c 0
 97 313 111 330 134 341 c 2
 158 352 l 1
 151 457 l 2
 145 546 140 591 133 605 c 1
 128 601 118 593 100 593 c 0
 76 593 57 610 57 635 c 1
512 614 m 1
 493 623 387 653 296 653 c 2
 234 653 l 1
 240 614 l 2
 246 570 258 424 261 380 c 1
 298 392 382 433 417 462 c 0
 454 492 508 587 512 614 c 1
EndSplineSet
Validated: 1
Layer: 2
SplineSet
57 635 m 1,0,1
 59 661 59 661 106.5 714 c 128,-1,2
 154 767 154 767 172 767 c 0,3,4
 215 767 215 767 354.5 750.5 c 128,-1,5
 494 734 494 734 521 726 c 0,6,7
 597 703 597 703 597 626 c 0,8,9
 597 580 597 580 573 536 c 128,-1,10
 549 492 549 492 520 460 c 128,-1,11
 491 428 491 428 489 424 c 0,12,13
 489 418 489 418 474 406 c 128,-1,14
 459 394 459 394 437.5 380.5 c 128,-1,15
 416 367 416 367 389.5 352.5 c 128,-1,16
 363 338 363 338 341.5 327 c 128,-1,17
 320 316 320 316 303.5 307.5 c 128,-1,18
 287 299 287 299 286 299 c 1,19,20
 451 248 451 248 499 218 c 0,21,22
 540 192 540 192 549 188 c 0,23,24
 572 184 572 184 605.5 149 c 128,-1,25
 639 114 639 114 639 95 c 0,26,27
 639 57 639 57 608 57 c 0,28,29
 589 57 589 57 550 76 c 128,-1,30
 511 95 511 95 446.5 128 c 128,-1,31
 382 161 382 161 322 183 c 2,32,-1
 257 207 l 1,33,-1
 260 109 l 2,34,35
 262 66 262 66 262 38 c 0,36,37
 262 19 262 19 260 8 c 128,-1,38
 258 -3 258 -3 248 -13.5 c 128,-1,39
 238 -24 238 -24 219 -24 c 0,40,41
 190 -24 190 -24 179 11 c 128,-1,42
 168 46 168 46 168 111 c 0,43,44
 168 232 168 232 135 246 c 0,45,46
 97 263 97 263 97 294 c 0,47,48
 97 323 97 323 134 341 c 2,49,-1
 158 352 l 1,50,-1
 151 457 l 2,51,52
 142 586 142 586 133 605 c 1,53,54
 118 593 118 593 100 593 c 128,-1,55
 82 593 82 593 69.5 605 c 128,-1,56
 57 617 57 617 57 635 c 1,0,1
512 614 m 1,57,58
 491 624 491 624 423.5 638.5 c 128,-1,59
 356 653 356 653 296 653 c 2,60,-1
 234 653 l 1,61,-1
 240 614 l 2,62,63
 250 540 250 540 261 380 c 1,64,65
 291 390 291 390 341.5 416 c 128,-1,66
 392 442 392 442 417 462 c 0,67,68
 443 483 443 483 476 537.5 c 128,-1,69
 509 592 509 592 512 614 c 1,57,58
EndSplineSet
EndChar

StartChar: S
Encoding: 83 83 62
Width: 631
Flags: W
HStem: 681 80<298.034 478.157>
VStem: 61 107<471.857 569.476> 92 81<101.156 166.932> 466 94<148 256.255>
LayerCount: 3
Back
SplineSet
175 188 m 0xb0
 175 152 145 150 145 127 c 0xb0
 145 120 147 112 152 101 c 0
 165 71 173 69 254 69 c 0
 323 69 350 75 382 99 c 0
 434 136 440 147 440 200 c 0
 440 240 434 247 370 277 c 0
 331 295 291 309 281 309 c 0
 223 309 61 447 61 496 c 0
 61 567 147 676 236 718 c 0
 256.256 728.128 305.705 735 365 735 c 0
 421 735 441 729 473 703 c 0
 496 684 516 656 516 642 c 0
 516 626 514 618 508 618 c 0
 482 618 453 681 363 681 c 0
 250 681 140 581 140 488 c 0
 140 438.4 268.199 388.755 346 364 c 0
 454 330 508 278 508 205 c 0
 508 189 505 172 500 154 c 0
 469 50 413 19 230 7 c 2
 140 1 l 1xd0
 113 57 l 2
 98 86 92 114 92 139 c 0
 92 183 114 215 153 215 c 0
 167 215 175 203 175 188 c 0xb0
EndSplineSet
Fore
SplineSet
167 241 m 0xb0
 184 241 206 233 206 199 c 0
 206 164 173 153 173 140 c 0xb0
 173 136 175 129 180 119 c 0
 191 96 194 95 278 95 c 0
 350 95 376 100 409 122 c 0
 460 156 466 163 466 213 c 0
 466 247 463 250 398 278 c 0
 355 297 316 308 307 309 c 1
 237 309 61 451 61 509 c 0
 61 589 156 701 252 743 c 0
 277 754 333 761 399 761 c 0
 462 761 485 754 520 726 c 0
 551 700 568 671 568 655 c 0
 568 634 563 618 547 618 c 0
 513 618 489 681 396 681 c 0
 282 681 168 588 168 501 c 0xd0
 168 471 256 426 382 389 c 0
 517 349 560 287 560 218 c 0
 560 200 557 182 551 163 c 0
 518 52 456 19 253 7 c 1
 145 0 l 1
 114 64 l 2
 98 95 92 126 92 152 c 0
 92 205 121 241 167 241 c 0xb0
EndSplineSet
Validated: 1
Layer: 2
SplineSet
167 241 m 0,0,1
 206 241 206 241 206 199 c 0,2,3
 206 179 206 179 189.5 161.5 c 128,-1,4
 173 144 173 144 173 140 c 0,5,6
 173 133 173 133 180 119 c 0,7,8
 188 102 188 102 201.5 98.5 c 128,-1,9
 215 95 215 95 278 95 c 0,10,11
 332 95 332 95 358 100.5 c 128,-1,12
 384 106 384 106 409 122 c 0,13,14
 448 148 448 148 457 162 c 128,-1,15
 466 176 466 176 466 213 c 0,16,17
 466 239 466 239 456.5 248 c 128,-1,18
 447 257 447 257 398 278 c 0,19,20
 335 306 335 306 307 309 c 0,21,22
 254 309 254 309 157.5 387.5 c 128,-1,23
 61 466 61 466 61 509 c 0,24,25
 61 568 61 568 120 639.5 c 128,-1,26
 179 711 179 711 252 743 c 0,27,28
 293 761 293 761 399 761 c 0,29,30
 446 761 446 761 470 754 c 128,-1,31
 494 747 494 747 520 726 c 0,32,33
 568 686 568 686 568 655 c 0,34,35
 568 618 568 618 547 618 c 0,36,37
 536 618 536 618 522 628 c 128,-1,38
 508 638 508 638 494 649.5 c 128,-1,39
 480 661 480 661 454 671 c 128,-1,40
 428 681 428 681 396 681 c 0,41,42
 311 681 311 681 239.5 624 c 128,-1,43
 168 567 168 567 168 501 c 0,44,45
 168 479 168 479 227.5 448 c 128,-1,46
 287 417 287 417 382 389 c 0,47,48
 560 336 560 336 560 218 c 0,49,50
 560 192 560 192 551 163 c 0,51,52
 526 80 526 80 465.5 48 c 128,-1,53
 405 16 405 16 253 7 c 2,54,-1
 145 0 l 1,55,-1
 114 64 l 2,56,57
 92 107 92 107 92 152 c 0,58,59
 92 192 92 192 112.5 216.5 c 128,-1,60
 133 241 133 241 167 241 c 0,0,1
EndSplineSet
EndChar

StartChar: T
Encoding: 84 84 63
Width: 884
Flags: W
HStem: 663 104<594.023 829.997>
LayerCount: 3
Back
SplineSet
221 620 m 0
 163 620 134 604 105 604 c 0
 73 604 45 617 45 636 c 0
 45 676 117 660 564 746 c 0
 638 760 679 767 708 767 c 0
 747 767 803 748 803 725 c 0
 803 706 767 689 708 689 c 0
 672 689 607 681 565 671 c 2
 488 653 l 1
 503 569 l 2
 523 434 538 106 548 24 c 0
 550 7 551 -6 551 -15 c 0
 551 -24 551 -46 524 -46 c 0
 489 -46 477 25 462 274 c 0
 450 472 429 612 410 632 c 0
 404 638 397 640 384 640 c 0
 360 640 280 620 221 620 c 0
EndSplineSet
Fore
SplineSet
744 767 m 0
 801 767 855 742 855 713 c 0
 854 664 761 663 747 663 c 0
 712 663 644 655 601 646 c 2
 533 631 l 1
 546 562 l 1
 567 432 583 115 593 37 c 0
 595 25 596 13 596 2 c 0
 596 -24 588 -46 555 -46 c 0
 506 -46 493 17 476 276 c 0
 462 494 438 605 426 615 c 0
 423 617 420 619 408 619 c 0
 383 619 301 599 237 599 c 0
 192 599 148 584 111 584 c 0
 73 584 45 603 45 628 c 0
 45 680 119 662 594 746 c 0
 670 759 712 767 744 767 c 0
EndSplineSet
Validated: 1
Layer: 2
SplineSet
744 767 m 0,0,1
 787 767 787 767 821 751 c 128,-1,2
 855 735 855 735 855 713 c 0,3,4
 855 696 855 696 841 684.5 c 128,-1,5
 827 673 827 673 805 669 c 128,-1,6
 783 665 783 665 770.5 664 c 128,-1,7
 758 663 758 663 747 663 c 0,8,9
 682 663 682 663 601 646 c 2,10,-1
 533 631 l 1,11,-1
 546 562 l 2,12,13
 558 487 558 487 574 273 c 128,-1,14
 590 59 590 59 593 37 c 0,15,16
 596 19 596 19 596 2 c 0,17,18
 596 -46 596 -46 555 -46 c 0,19,20
 536 -46 536 -46 524.5 -33 c 128,-1,21
 513 -20 513 -20 503.5 19 c 128,-1,22
 494 58 494 58 488.5 115.5 c 128,-1,23
 483 173 483 173 476 276 c 0,24,25
 469 378 469 378 459.5 457 c 128,-1,26
 450 536 450 536 441.5 573 c 128,-1,27
 433 610 433 610 426 615 c 0,28,29
 420 619 420 619 408 619 c 0,30,31
 400 619 400 619 337 609 c 128,-1,32
 274 599 274 599 237 599 c 0,33,34
 214 599 214 599 171 591.5 c 128,-1,35
 128 584 128 584 111 584 c 0,36,37
 83 584 83 584 64 596.5 c 128,-1,38
 45 609 45 609 45 628 c 0,39,40
 45 650.744873881 45 650.744873881 74.336374722 660.724698234 c 0,41,42
 98.1172938996 668.814634314 98.1172938996 668.814634314 277.245157581 694.940327511 c 0,43,44
 437.151245869 718.262536112 437.151245869 718.262536112 594 746 c 0,45,46
 717 767 717 767 744 767 c 0,0,1
EndSplineSet
EndChar

StartChar: U
Encoding: 85 85 64
Width: 729
Flags: W
HStem: -11 96<274.399 389.264>
VStem: 95 95<442.481 760.192> 586 94<363.277 634.565>
LayerCount: 3
Back
SplineSet
628 519 m 0
 625 80 380 -11 318 -11 c 0
 279 -11 216 13 186 42 c 0
 120 106 95 556 95 663 c 0
 95 714 100 728 111 737 c 0
 120 744 127 748 133 748 c 0
 150 748 156 716 162 630 c 0
 178 415 221 121 242 90 c 0
 255 69 273 59 297 59 c 0
 321 59 351 70 387 93 c 0
 466 143 507 210 539 341 c 0
 553 397 560 444 560 489 c 0
 560 609 507 699 507 736 c 0
 507 758 536 762 541 762 c 0
 586 762 594 649 618 620 c 0
 624 614 628 568 628 519 c 0
EndSplineSet
Fore
SplineSet
530 749 m 0
 530 781 569 789 578 789 c 0
 636 789 648 666 667 642 c 0
 678 628 680 579 680 539 c 0
 680 90 418 -11 342 -11 c 0
 299 -11 228 13 192 46 c 0
 117 117 95 584 95 676 c 0
 95 733 99 754 131 770 c 0
 136 772 141 774 146 774 c 0
 181 774 185 710 190 644 c 0
 207 430 249 141 272 110 c 0
 275 106 282 85 320 85 c 0
 338 85 365 91 408 117 c 0
 489 165 531 230 564 357 c 0
 579 412 586 458 586 502 c 0
 586 619 530 709 530 749 c 0
EndSplineSet
Validated: 1
Layer: 2
SplineSet
530 749 m 0,0,1
 530 770 530 770 547.5 779.5 c 128,-1,2
 565 789 565 789 578 789 c 0,3,4
 604 789 604 789 621.5 758.5 c 128,-1,5
 639 728 639 728 650 688.5 c 128,-1,6
 661 649 661 649 667 642 c 0,7,8
 680 625 680 625 680 539 c 0,9,10
 680 447 680 447 665 367.5 c 128,-1,11
 650 288 650 288 626 233 c 128,-1,12
 602 178 602 178 570.5 134 c 128,-1,13
 539 90 539 90 507 63.5 c 128,-1,14
 475 37 475 37 442 19.5 c 128,-1,15
 409 2 409 2 384.5 -4.5 c 128,-1,16
 360 -11 360 -11 342 -11 c 0,17,18
 308 -11 308 -11 263 5.5 c 128,-1,19
 218 22 218 22 192 46 c 0,20,21
 144 92 144 92 119.5 316.5 c 128,-1,22
 95 541 95 541 95 676 c 0,23,24
 95 721 95 721 101.5 739.5 c 128,-1,25
 108 758 108 758 131 770 c 0,26,27
 141 774 141 774 146 774 c 0,28,29
 176.955382489 774 176.955382489 774 185.709654984 694.265030496 c 0,30,31
 187.26579168 680.091549827 187.26579168 680.091549827 190 644 c 0,32,33
 203 478 203 478 229 305.5 c 128,-1,34
 255 133 255 133 272 110 c 2,35,-1
 274 107 l 2,36,37
 276 104 276 104 277.5 101.5 c 128,-1,38
 279 99 279 99 283 96 c 128,-1,39
 287 93 287 93 291.5 90.5 c 128,-1,40
 296 88 296 88 303.5 86.5 c 128,-1,41
 311 85 311 85 320 85 c 0,42,43
 355 85 355 85 408 117 c 0,44,45
 469 153 469 153 504 207.5 c 128,-1,46
 539 262 539 262 564 357 c 0,47,48
 586 438 586 438 586 502 c 0,49,50
 586 553 586 553 572 606 c 128,-1,51
 558 659 558 659 544 696.5 c 128,-1,52
 530 734 530 734 530 749 c 0,0,1
EndSplineSet
EndChar

StartChar: V
Encoding: 86 86 65
Width: 794
Flags: W
LayerCount: 3
Back
SplineSet
60 721 m 0
 60 748 85 770 101 770 c 0
 131 770 140 705 159 705 c 0
 164 705 169 696 169 685 c 0
 169 657 215 577 282 382 c 0
 335 228 376 129 387 129 c 0
 398 129 481 334 509 430 c 0
 544.687 556.688 624.2 757 653 757 c 0
 661 757 693 751 693 720 c 0
 693 672 626 529 571 362 c 0
 554 312 512 213 478 138 c 0
 428 30 410 5 387 5 c 0
 343 5 329 27 272 183 c 2
 167 464 l 2
 138 539 114 606 114 613 c 0
 114 635 60 678 60 721 c 0
EndSplineSet
Fore
SplineSet
60 720 m 1
 63 758 99 770 114 770 c 0
 153 770 160 714 174 705 c 1
 178 705 197 705 197 685 c 0
 197 661 245 581 316 386 c 0
 355 281 393 189 413 157 c 1
 439 202 506 358 530 434 c 0
 552 502 634 728 680 755 c 1
 682 755 686 757 692 757 c 0
 705 757 745 750 745 720 c 0
 745 668 681 536 622 358 c 0
 605 308 560 211 523 138 c 0
 477 49 452 5 414 5 c 0
 357 5 339 33 279 183 c 2
 168 459 l 2
 144 519 114 598 114 613 c 1
 114 613 113 612 113 611 c 1
 105 634 60 674 60 720 c 1
EndSplineSet
Validated: 1
Layer: 2
SplineSet
60 720 m 1,0,1
 62 745 62 745 80 757.5 c 128,-1,2
 98 770 98 770 114 770 c 0,3,4
 131 770 131 770 142.5 756 c 128,-1,5
 154 742 154 742 161.5 725 c 128,-1,6
 169 708 169 708 174 705 c 0,7,8
 197 705 197 705 197 685 c 0,9,10
 197 675 197 675 210.5 644 c 128,-1,11
 224 613 224 613 255 540.5 c 128,-1,12
 286 468 286 468 316 386 c 0,13,14
 384 204 384 204 413 157 c 1,15,16
 433 192 433 192 473 285.5 c 128,-1,17
 513 379 513 379 530 434 c 0,18,19
 558 519 558 519 604 628 c 128,-1,20
 650 737 650 737 680 755 c 1,21,-1
 684 756 l 2,22,23
 688 757 688 757 692 757 c 0,24,25
 708 757 708 757 726.5 748.5 c 128,-1,26
 745 740 745 740 745 720 c 0,27,28
 745 697 745 697 728.5 648.5 c 128,-1,29
 712 600 712 600 678.5 513 c 128,-1,30
 645 426 645 426 622 358 c 0,31,32
 597 283 597 283 523 138 c 0,33,34
 484 63 484 63 462 34 c 128,-1,35
 440 5 440 5 414 5 c 0,36,37
 372 5 372 5 348.5 36.5 c 128,-1,38
 325 68 325 68 279 183 c 2,39,-1
 168 459 l 2,40,41
 114 594 114 594 114 613 c 1,42,43
 113 612 113 612 113 611 c 1,44,45
 112 613 112 613 86 653 c 128,-1,46
 60 693 60 693 60 720 c 1,0,1
EndSplineSet
EndChar

StartChar: W
Encoding: 87 87 66
Width: 930
Flags: W
DStem2: 267 187 436 341 0.374194 0.92735<4.95019 267.516>
LayerCount: 3
Back
SplineSet
693 354 m 0
 693 389 771 794 784 794 c 0
 817 794 832 785 832 744 c 0
 832 714 823 666 808 591 c 2
 756 331 l 2
 713 114 706 134 706 85 c 0
 706 52 691 35 672 35 c 0
 622 35 610 125 590 125 c 0
 585 125 576 144 571 167 c 0
 558 230 493 360 459 392 c 2
 429 421 l 1
 399 346 l 2
 261 -9 286 -42 237 -42 c 0
 213 -42 205 -32 194 19 c 0
 142 250 132 351 103 460 c 0
 96 484 89 520 89 539 c 0
 89 599 60 545 60 682 c 0
 60 714 65 724 77 724 c 0
 111 724 141 630 203 322 c 0
 222 230 242 155 249 155 c 0
 265 155 347 433 373 480 c 0
 384 501 400 511 418 511 c 0
 478 511 565 407 615 258 c 0
 623 233 640 193 649 193 c 0
 663 193 693 302 693 354 c 0
EndSplineSet
Fore
SplineSet
60 680 m 0
 60 711 63 724 89 724 c 0
 97 724 106 722 113 718 c 1
 173 668 224 309 267 187 c 1
 296 249 360 445 384 486 c 1
 390 493 408 511 443 511 c 0
 520 511 613 395 662 262 c 0
 669 245 678 228 684 219 c 1
 697 244 717 312 717 354 c 1
 718 395 790 750 809 790 c 1
 811 791 814 794 823 794 c 0
 861 794 884 784 884 744 c 0
 884 712 875 664 860 586 c 2
 808 328 l 2
 763 104 758 134 758 85 c 0
 758 54 738 35 709 35 c 1
 648 39 637 110 620 125 c 1
 614 126 612 125 607 128 c 1
 599 136 593 154 590 167 c 0
 576 231 507 355 476 383 c 2
 459 398 l 1
 436 341 l 1
 290 -11 317 -35 267 -41 c 0
 263 -42 258 -42 253 -42 c 0
 240 -42 225 -39 215 -31 c 1
 183 5 141 322 104 457 c 0
 95 489 89 522 89 539 c 0
 89 590 60 544 60 680 c 0
EndSplineSet
Validated: 1
Layer: 2
SplineSet
60 680 m 0,0,1
 60 705 60 705 65.5 714.5 c 128,-1,2
 71 724 71 724 89 724 c 0,3,4
 102 724 102 724 113 718 c 0,5,6
 139 696 139 696 167.5 593 c 128,-1,7
 196 490 196 490 224 360.5 c 128,-1,8
 252 231 252 231 267 187 c 1,9,10
 280 215 280 215 325.5 339.5 c 128,-1,11
 371 464 371 464 384 486 c 1,12,13
 405 511 405 511 443 511 c 0,14,15
 499 511 499 511 561.5 438 c 128,-1,16
 624 365 624 365 662 262 c 0,17,18
 673 236 673 236 684 219 c 1,19,20
 695 240 695 240 706 282.5 c 128,-1,21
 717 325 717 325 717 354 c 0,22,23
 718 387 718 387 756.5 574 c 128,-1,24
 795 761 795 761 809 790 c 1,25,26
 817 794 817 794 823 794 c 0,27,28
 854 794 854 794 869 783 c 128,-1,29
 884 772 884 772 884 744 c 0,30,31
 884 711 884 711 860 586 c 2,32,-1
 808 328 l 2,33,34
 793 255 793 255 781.5 204 c 128,-1,35
 770 153 770 153 766 139 c 128,-1,36
 762 125 762 125 760 114 c 128,-1,37
 758 103 758 103 758 85 c 0,38,39
 758 62 758 62 744.5 48.5 c 128,-1,40
 731 35 731 35 709 35 c 0,41,42
 682 37 682 37 664 55.5 c 128,-1,43
 646 74 646 74 635.5 97.5 c 128,-1,44
 625 121 625 121 620 125 c 0,45,46
 609 127 609 127 607 128 c 0,47,48
 597 138 597 138 590 167 c 0,49,50
 580 213 580 213 540 287 c 128,-1,51
 500 361 500 361 476 383 c 2,52,-1
 459 398 l 1,53,-1
 436 341 l 2,54,55
 413 286 413 286 393.5 235.5 c 128,-1,56
 374 185 374 185 361.5 151 c 128,-1,57
 349 117 349 117 338.5 87 c 128,-1,58
 328 57 328 57 322 39 c 128,-1,59
 316 21 316 21 310 5.5 c 128,-1,60
 304 -10 304 -10 300.5 -17.5 c 128,-1,61
 297 -25 297 -25 291.5 -30.5 c 128,-1,62
 286 -36 286 -36 281 -38 c 128,-1,63
 276 -40 276 -40 267 -41 c 0,64,65
 263 -42 263 -42 253 -42 c 0,66,67
 229 -42 229 -42 215 -31 c 0,68,69
 201 -15 201 -15 182 75 c 128,-1,70
 163 165 163 165 140.5 285 c 128,-1,71
 118 405 118 405 104 457 c 0,72,73
 89 510 89 510 89 539 c 0,74,75
 89 555 89 555 84.5 563.5 c 128,-1,76
 80 572 80 572 74.5 577 c 128,-1,77
 69 582 69 582 64.5 608 c 128,-1,78
 60 634 60 634 60 680 c 0,0,1
EndSplineSet
EndChar

StartChar: X
Encoding: 88 88 67
Width: 813
Flags: W
LayerCount: 3
Back
SplineSet
41 739 m 0
 41 747 49 760 61 760 c 0
 84 760 131 720 242 612 c 0
 328 529 399 461 400 461 c 0
 401 461 421 493 445 532 c 0
 495 614 593 721 619 721 c 0
 637 721 645 714 645 700 c 0
 645 680 624 645 583 602 c 0
 567 585 533 527 507 473 c 2
 459 374 l 1
 503 326 l 2
 587 234 720 136 720 86 c 0
 720 61 683 54 678 54 c 0
 655 54 626 81 538 172 c 2
 418 297 l 1
 386 246 l 2
 332 158 295 72 283 65 c 1
 264 46 244 -30 192 -30 c 0
 170 -30 164 -12 164 -7 c 0
 164 45 344 323 344 361 c 0
 344 426 41 680 41 739 c 0
EndSplineSet
Fore
SplineSet
209 -30 m 0
 189 -30 164 -21 164 -7 c 0
 166 54 346 314 354 360 c 1
 354 361 l 1
 351 418 57 659 42 729 c 0
 42 732 41 736 41 739 c 0
 41 746 52 760 74 760 c 0
 108 760 170 701 270 612 c 1
 425 481 l 1
 463 532 l 2
 515 602 619 721 658 721 c 0
 689 721 697 710 697 700 c 0
 697 655 630 584 630 584 c 1
 616 571 580 523 552 467 c 2
 506 376 l 1
 546 335 l 2
 640 239 772 148 772 91 c 0
 772 63 728 54 717 54 c 0
 687 54 657 87 563 172 c 2
 448 276 l 1
 424 246 l 1
 361 149 333 82 315 66 c 1
 298 46 267 -30 209 -30 c 0
EndSplineSet
Validated: 1
Layer: 2
SplineSet
209 -30 m 0,0,1
 193 -30 193 -30 178.5 -23.5 c 128,-1,2
 164 -17 164 -17 164 -7 c 0,3,4
 165 27 165 27 258 184 c 128,-1,5
 351 341 351 341 354 360 c 2,6,-1
 354 361 l 2,7,8
 353 385 353 385 278 462 c 128,-1,9
 203 539 203 539 125.5 619.5 c 128,-1,10
 48 700 48 700 42 729 c 0,11,12
 42 730 42 730 41.5 734 c 128,-1,13
 41 738 41 738 41 739 c 0,14,15
 41 746 41 746 50 753 c 128,-1,16
 59 760 59 760 74 760 c 0,17,18
 95 760 95 760 130.5 732.5 c 128,-1,19
 166 705 166 705 239.784250635 638.974326842 c 0,20,21
 246 633 246 633 250 630 c 128,-1,22
 254 627 254 627 259.5 621.5 c 128,-1,23
 265 616 265 616 270 612 c 2,24,-1
 425 481 l 1,25,-1
 463 532 l 2,26,27
 511 597 511 597 571.5 659 c 128,-1,28
 632 721 632 721 658 721 c 0,29,30
 697 721 697 721 697 700 c 0,31,32
 697 680 697 680 680.5 651 c 128,-1,33
 664 622 664 622 647 603 c 2,34,-1
 630 584 l 1,35,36
 594 550 594 550 552 467 c 2,37,-1
 506 376 l 1,38,-1
 546 335 l 2,39,40
 576 305 576 305 641.5 247 c 128,-1,41
 707 189 707 189 739.5 153 c 128,-1,42
 772 117 772 117 772 91 c 0,43,44
 772 73 772 73 751.5 63.5 c 128,-1,45
 731 54 731 54 717 54 c 0,46,47
 712 54 712 54 707 55 c 128,-1,48
 702 56 702 56 696 59 c 128,-1,49
 690 62 690 62 684.5 65.5 c 128,-1,50
 679 69 679 69 671 75.5 c 128,-1,51
 663 82 663 82 656 87.5 c 128,-1,52
 649 93 649 93 637.5 103.5 c 128,-1,53
 626 114 626 114 617 122.5 c 128,-1,54
 608 131 608 131 592 145.5 c 128,-1,55
 576 160 576 160 563 172 c 2,56,-1
 448 276 l 1,57,-1
 424 246 l 1,58,59
 398 206 398 206 373.5 162.5 c 128,-1,60
 349 119 349 119 336 96 c 128,-1,61
 323 73 323 73 315 66 c 0,62,63
 314 65 314 65 295.5 35 c 128,-1,64
 277 5 277 5 256 -12.5 c 128,-1,65
 235 -30 235 -30 209 -30 c 0,0,1
EndSplineSet
EndChar

StartChar: Y
Encoding: 89 89 68
Width: 782
Flags: W
VStem: 640 100<651.539 752.765>
LayerCount: 3
Back
SplineSet
614 726 m 0
 614 757 618 784 635 784 c 0
 641 784 650 779 667 770 c 0
 682 761 688 754 688 736 c 0
 688 642 564 426 523 376 c 0
 478 322 492 328 404 122 c 2
 323 -72 l 2
 314 -93 301 -104 287 -104 c 0
 271 -104 251 -86 251 -65 c 0
 251 -34 279 35 362 210 c 2
 421 336 l 1
 256 504 l 2
 112 650 71 694 71 721 c 0
 71 732 80 747 92 747 c 0
 114 747 160 704 310 553 c 0
 378 486 442 430 452 430 c 0
 491 430 513 506 598 657 c 0
 606 673 614 704 614 726 c 0
EndSplineSet
Fore
SplineSet
640 728 m 0
 640 774 652 784 674 784 c 0
 686 784 727 767 736 753 c 0
 739 748 740 742 740 736 c 0
 740 639 615 421 568 368 c 0
 522 317 535 327 444 122 c 2
 358 -72 l 2
 348 -94 327 -104 307 -104 c 0
 281 -104 255 -85 255 -65 c 0
 255 -27 292 63 374 221 c 2
 432 333 l 1
 264 495 l 2
 116 639 71 685 71 718 c 0
 71 732 83 747 105 747 c 0
 133 747 160 722 341 553 c 1
 412 492 469 450 484 443 c 1
 514 446 545 526 625 657 c 0
 632 669 640 700 640 728 c 0
EndSplineSet
Validated: 1
Layer: 2
SplineSet
640 728 m 0,0,1
 640 761 640 761 648 772.5 c 128,-1,2
 656 784 656 784 674 784 c 0,3,4
 684 784 684 784 707 773.5 c 128,-1,5
 730 763 730 763 736 753 c 0,6,7
 740 746 740 746 740 736 c 0,8,9
 740 670 740 670 676 543.5 c 128,-1,10
 612 417 612 417 568 368 c 0,11,12
 553 351 553 351 546.5 343.5 c 128,-1,13
 540 336 540 336 530 317 c 128,-1,14
 520 298 520 298 514 284 c 128,-1,15
 508 270 508 270 487 220.5 c 128,-1,16
 466 171 466 171 444 122 c 2,17,-1
 358 -72 l 2,18,19
 343 -104 343 -104 307 -104 c 0,20,21
 287 -104 287 -104 271 -92 c 128,-1,22
 255 -80 255 -80 255 -65 c 0,23,24
 255 -8 255 -8 374 221 c 2,25,-1
 432 333 l 1,26,-1
 264 495 l 2,27,28
 145 611 145 611 108 652.5 c 128,-1,29
 71 694 71 694 71 718 c 0,30,31
 71 729 71 729 80 738 c 128,-1,32
 89 747 89 747 105 747 c 0,33,34
 125 747 125 747 162 716.5 c 128,-1,35
 199 686 199 686 341 553 c 1,36,37
 451 458 451 458 484 443 c 1,38,39
 493 444 493 444 502 453 c 128,-1,40
 511 462 511 462 524 482.5 c 128,-1,41
 537 503 537 503 549 525 c 128,-1,42
 561 547 561 547 583 585.5 c 128,-1,43
 605 624 605 624 625 657 c 0,44,45
 640 683 640 683 640 728 c 0,0,1
EndSplineSet
EndChar

StartChar: Z
Encoding: 90 90 69
Width: 1010
Flags: W
HStem: -3 97<377.085 619.581> 33 100<605.75 862.278> 68 96<845.858 965.538> 559 21G<89.5 109> 641 97<353.115 620.233>
VStem: 274 103<103.961 155.469> 621 105<583.009 638.995>
LayerCount: 3
Back
SplineSet
41 588 m 0xbc
 41 628 332 712 540 712 c 0
 636 712 669 688 669 634 c 0
 669 590 619 487 577 444 c 0
 476 342 323 136 323 102 c 0
 323 81 374 68 433 68 c 0xbc
 547 68 553 101 692 107 c 0x7c
 808 110 750 119 840 135 c 0
 854 137 865 138 873 138 c 0
 889 138 902 133 902 110 c 0
 902 87 878 68 844 68 c 0xbc
 787 68 798 33 698 33 c 0x7c
 576 30 536 -3 379 -3 c 0
 248 -3 224 16 224 43 c 0
 224 61 248 86 248 105 c 0
 248 120 338 264 351 269 c 1
 356 272 360 279 360 288 c 0
 360 301 436 390 506 460 c 0
 541 494 595 591 595 620 c 0
 595 639 582 641 485 641 c 0
 326 641 331 616 196 593 c 0
 154 585 115 574 111 567 c 0
 107 561 100 559 91 559 c 0
 70 559 41 573 41 588 c 0xbc
EndSplineSet
Fore
SplineSet
44 612 m 0x9e
 73 666 383 738 577 738 c 0
 665 738 726 720 726 647 c 0
 726 595 663 491 625 448 c 0
 528 340 387 155 377 117 c 1
 377 115 l 1
 379 108 416 94 479 94 c 0x9e
 595 94 604 127 751 133 c 1x5e
 871 136 805 145 903 161 c 0
 914 163 924 164 934 164 c 0
 961 164 980 154 980 123 c 0
 980 90 947 68 909 68 c 0x3e
 856 68 867 33 758 33 c 1x5e
 632 30 590 -3 422 -3 c 0
 309 -3 243 9 243 56 c 0
 243 77 274 105 274 118 c 1
 277 146 365 281 385 293 c 0
 389 295 387 301 390 308 c 0
 400 335 475 430 531 482 c 0
 567 516 621 616 621 635 c 1
 614 639 586 641 518 641 c 0
 351 641 359 616 214 593 c 1
 166 584 139 576 134 572 c 1
 126 563 115 559 103 559 c 0
 76 559 41 577 41 597 c 0
 41 609 42 608 44 612 c 0x9e
EndSplineSet
Validated: 1
Layer: 2
SplineSet
44 612 m 0,0,1
 66 652 66 652 248.5 695 c 128,-1,2
 431 738 431 738 577 738 c 0,3,4
 650 738 650 738 688 718 c 128,-1,5
 726 698 726 698 726 647 c 0,6,7
 726 611 726 611 692 548 c 128,-1,8
 658 485 658 485 625 448 c 0,9,10
 550 364 550 364 467 254.5 c 128,-1,11
 384 145 384 145 377 117 c 1,12,-1
 377 115 l 2,13,14
 378 111 378 111 389.5 106.5 c 128,-1,15
 401 102 401 102 425.5 98 c 128,-1,16
 450 94 450 94 479 94 c 0,17,18
 536 94 536 94 606 112 c 128,-1,19
 676 130 676 130 751 133 c 0,20,21
 793 134 793 134 812 136.5 c 128,-1,22
 831 139 831 139 835 142 c 128,-1,23
 839 145 839 145 855.5 150.5 c 128,-1,24
 872 156 872 156 903 161 c 0,25,26
 920 164 920 164 934 164 c 0,27,28
 980 164 980 164 980 123 c 0,29,30
 980 99 980 99 959 83.5 c 128,-1,31
 938 68 938 68 909 68 c 0,32,33
 888 68 888 68 873 59 c 128,-1,34
 858 50 858 50 831.5 41.5 c 128,-1,35
 805 33 805 33 758 33 c 0,36,37
 703 32 703 32 608 14.5 c 128,-1,38
 513 -3 513 -3 422 -3 c 128,-1,39
 331 -3 331 -3 287 10 c 128,-1,40
 243 23 243 23 243 56 c 0,41,42
 243 68 243 68 258.5 90 c 128,-1,43
 274 112 274 112 274 118 c 0,44,45
 276 138 276 138 322.5 211 c 128,-1,46
 369 284 369 284 385 293 c 0,47,48
 387 294 387 294 387.5 296 c 128,-1,49
 388 298 388 298 388.5 301.5 c 128,-1,50
 389 305 389 305 390 308 c 0,51,52
 398 329 398 329 444 386.5 c 128,-1,53
 490 444 490 444 531 482 c 0,54,55
 556 506 556 506 588.5 562.5 c 128,-1,56
 621 619 621 619 621 635 c 1,57,58
 611 641 611 641 518 641 c 0,59,60
 444 641 444 641 403 634.5 c 128,-1,61
 362 628 362 628 314.5 614.5 c 128,-1,62
 267 601 267 601 214 593 c 0,63,64
 144 580 144 580 134 572 c 0,65,66
 122 559 122 559 103 559 c 0,67,68
 82 559 82 559 61.5 571 c 128,-1,69
 41 583 41 583 41 597 c 0,70,71
 41 606 41 606 44 612 c 0,0,1
EndSplineSet
EndChar

StartChar: bracketleft
Encoding: 91 91 70
Width: 485
Flags: W
HStem: -78 86<233.425 379.106> 605 110<183.744 250.689>
VStem: 110 283
LayerCount: 3
Back
SplineSet
342 -0 m 0
 365 -0 380 -2 380 -25 c 0
 380 -32 378 -39 374 -44 c 0
 365 -56 288 -65 235 -65 c 0
 209 -65 189 -63 184 -58 c 0
 149 -29 158 215 130 503 c 0
 126 547 123 579 123 603 c 0
 123 657 137 666 180 679 c 0
 234 695 269 702 291 702 c 0
 299 702 306 701 317 698 c 0
 330 695 335 688 335 677 c 0
 335 655 325 650 277 644 c 0
 190 633 221 618 179 618 c 0
 166 618 160 615 165 611 c 0
 176 603 190 459 207 189 c 0
 217 19 214 -5 256 -5 c 0
 273 -5 307 -0 342 -0 c 0
EndSplineSet
Fore
SplineSet
291 715 m 0
 308 715 349 710 349 676 c 0
 349 639 310 635 279 631 c 0
 198 621 224 606 182 605 c 1
 195 557 208 381 220 190 c 0
 231 17 228 8 256 8 c 0
 283 8 315 13 341 13 c 0
 371 13 393 6 393 -24 c 0
 393 -43 386 -51 381 -55 c 0
 366 -68 294 -78 239 -78 c 0
 209 -78 183 -75 175 -68 c 0
 133 -28 147 186 117 502 c 0
 113 546 110 578 110 603 c 0
 110 661 125 676 176 691 c 0
 232 708 268 715 291 715 c 0
EndSplineSet
Validated: 1
Layer: 2
SplineSet
291 715 m 0,0,1
 303 715 303 715 314.5 712.5 c 128,-1,2
 326 710 326 710 337.5 701 c 128,-1,3
 349 692 349 692 349 676 c 0,4,5
 349 665 349 665 344 657.5 c 128,-1,6
 339 650 339 650 333.5 645.5 c 128,-1,7
 328 641 328 641 316.5 638 c 128,-1,8
 305 635 305 635 299 634 c 128,-1,9
 293 633 293 633 279 631 c 0,10,11
 235 626 235 626 217.5 615.5 c 128,-1,12
 200 605 200 605 182 605 c 1,13,14
 198 548 198 548 220 190 c 0,15,16
 229.750191379 36.656081041 229.750191379 36.656081041 234.365761322 22.3457519265 c 0,17,18
 240.442845504 8.22409732105 240.442845504 8.22409732105 256 8 c 0,19,20
 270 8 270 8 299 10.5 c 128,-1,21
 328 13 328 13 341 13 c 0,22,23
 393 13 393 13 393 -24 c 0,24,25
 393 -45 393 -45 381 -55 c 0,26,27
 370 -64 370 -64 326 -71 c 128,-1,28
 282 -78 282 -78 239 -78 c 0,29,30
 186 -78 186 -78 175 -68 c 0,31,32
 156 -50 156 -50 149 16 c 128,-1,33
 142 82 142 82 135 234 c 128,-1,34
 128 386 128 386 117 502 c 0,35,36
 110 579 110 579 110 603 c 0,37,38
 110 645 110 645 123.5 662 c 128,-1,39
 137 679 137 679 176 691 c 0,40,41
 255 715 255 715 291 715 c 0,0,1
EndSplineSet
EndChar

StartChar: backslash
Encoding: 92 92 71
Width: 693
Flags: W
VStem: 39 91<613.134 674.936>
LayerCount: 3
Back
SplineSet
52 656 m 0
 52 668 65 671 74 671 c 0
 92 671 114 661 117 646 c 0
 120 612 306 425 386 289 c 0
 401 263 419 236 426 229 c 0
 448 207 520 108 541 71 c 0
 566 22 591 1 591 -13 c 0
 591 -23 575 -37 560 -37 c 0
 542 -37 521 -18 501 19 c 0
 463 87 360 218 317 281 c 0
 236 406 112 524 103 554 c 0
 100 564 94 571 90 571 c 0
 79 571 52 634 52 656 c 0
EndSplineSet
Fore
SplineSet
74 684 m 0
 99 684 128 669 130 647 c 0
 132 621 320 427 397 296 c 0
 415 265 431 242 435 238 c 0
 459 214 532 112 552 77 c 0
 579 28 604 6 604 -13 c 0
 604 -31 583 -50 560 -50 c 0
 532 -50 509 -22 490 13 c 0
 453 79 348 209 306 274 c 0
 212 418 105 508 91 550 c 0
 91 551 89 556 86 559 c 1
 64 563 39 635 39 656 c 0
 39 676 55 684 74 684 c 0
EndSplineSet
Validated: 1
Layer: 2
SplineSet
74 684 m 0,0,1
 94 684 94 684 111.5 673.5 c 128,-1,2
 129 663 129 663 130 647 c 0,3,4
 131 637 131 637 180 578 c 128,-1,5
 229 519 229 519 296.5 435.5 c 128,-1,6
 364 352 364 352 397 296 c 0,7,8
 425 248 425 248 435 238 c 0,9,10
 452 221 452 221 494 162.5 c 128,-1,11
 536 104 536 104 552 77 c 0,12,13
 563 58 563 58 577 37.5 c 128,-1,14
 591 17 591 17 597.5 6 c 128,-1,15
 604 -5 604 -5 604 -13 c 0,16,17
 604 -27 604 -27 590.5 -38.5 c 128,-1,18
 577 -50 577 -50 560 -50 c 0,19,20
 524 -50 524 -50 490 13 c 0,21,22
 469 50 469 50 395.5 149.5 c 128,-1,23
 322 249 322 249 306 274 c 0,24,25
 266 335 266 335 214 396.5 c 128,-1,26
 162 458 162 458 129.5 495.5 c 128,-1,27
 97 533 97 533 91 550 c 0,28,29
 91 554 91 554 86 559 c 0,30,31
 71 562 71 562 55 599.5 c 128,-1,32
 39 637 39 637 39 656 c 0,33,34
 39 684 39 684 74 684 c 0,0,1
EndSplineSet
EndChar

StartChar: bracketright
Encoding: 93 93 72
Width: 538
Flags: W
HStem: 596 84<160.634 264.63> 614 71<188.244 293.191>
VStem: 318 79<42 366.034>
LayerCount: 3
Back
SplineSet
172 609 m 0xa0
 156 609 150 623 150 626 c 0
 150 636 183 662 205 667 c 0
 220 670 248 672 274 672 c 0
 305 672 333 670 339 666 c 0
 363 650 384 396 384 127 c 2xc0
 384 -9 l 1
 361 -20 l 2
 343 -27 293 -32 250 -32 c 0
 187 -32 176 -26 176 -19 c 0
 176 -8 196 -1 266 17 c 2
 328 32 l 1
 330 143 l 2
 330 157 331 173 331 190 c 0
 331 334 317 563 305 599 c 0
 298 618 288 627 266 627 c 0
 233 627 191 609 172 609 c 0xa0
EndSplineSet
Fore
SplineSet
173 596 m 0xa0
 151 596 137 612 137 626 c 0
 137 648 181 675 202 680 c 0xa0
 212 682 247 685 281 685 c 0
 313 685 344 682 352 671 c 0
 383 630 397 328 397 127 c 2
 397 -17 l 1
 366 -32 l 1
 346 -40 291 -45 245 -45 c 0
 193 -45 163 -41 163 -20 c 0
 163 6 202 16 263 30 c 2
 315 42 l 1
 317 143 l 2
 317 158 318 174 318 190 c 0
 318 352 303 565 293 595 c 0
 288 609 282 614 266 614 c 0x60
 237 614 194 596 173 596 c 0xa0
EndSplineSet
Validated: 1
Layer: 2
SplineSet
173 596 m 0,0,1
 157 596 157 596 147 605.5 c 128,-1,2
 137 615 137 615 137 626 c 0,3,4
 137 641 137 641 160 658.5 c 128,-1,5
 183 676 183 676 202 680 c 0,6,7
 227 685 227 685 281 685 c 0,8,9
 342 685 342 685 352 671 c 0,10,11
 373 643 373 643 385 473 c 128,-1,12
 397 303 397 303 397 127 c 2,13,-1
 397 -17 l 1,14,-1
 366 -32 l 2,15,16
 334 -45 334 -45 245 -45 c 0,17,18
 202 -45 202 -45 182.5 -40 c 128,-1,19
 163 -35 163 -35 163 -20 c 0,20,21
 163 -2 163 -2 186 8 c 128,-1,22
 209 18 209 18 263 30 c 2,23,-1
 315 42 l 1,24,-1
 317 143 l 2,25,26
 317 150 317 150 317.5 166 c 128,-1,27
 318 182 318 182 318 190 c 0,28,29
 318 307 318 307 309.5 439 c 128,-1,30
 301 571 301 571 293 595 c 0,31,32
 286 614 286 614 266 614 c 0,33,34
 250 614 250 614 216 605 c 128,-1,35
 182 596 182 596 173 596 c 0,0,1
EndSplineSet
EndChar

StartChar: asciicircum
Encoding: 94 94 73
Width: 447
Flags: W
HStem: 566 242
VStem: 57 322<593 599>
LayerCount: 3
Back
SplineSet
205 795 m 0
 225 795 366 651 366 616 c 0
 366 610 364 591 352 591 c 0
 317 591 235 718 207 718 c 0
 192 718 179 694 149 644 c 0
 117 589 107 579 89 579 c 0
 75 579 70 580 70 587 c 0
 70 597 84 632 91 640 c 0
 114 667 183 795 205 795 c 0
EndSplineSet
Fore
SplineSet
353 578 m 0
 307 578 231 699 207 705 c 1
 190 704 141 586 107 570 c 0
 102 568 94 566 86 566 c 0
 72 566 57 571 57 587 c 0
 57 599 71 636 81 648 c 0
 120 695 169 808 206 808 c 0
 233 808 379 659 379 616 c 0
 379 593 367 578 353 578 c 0
EndSplineSet
Validated: 1
Layer: 2
SplineSet
353 578 m 0,0,1
 333 578 333 578 302 608.5 c 128,-1,2
 271 639 271 639 243.5 671 c 128,-1,3
 216 703 216 703 207 705 c 0,4,5
 200 705 200 705 162.5 642 c 128,-1,6
 125 579 125 579 107 570 c 0,7,8
 97 566 97 566 86 566 c 0,9,10
 57 566 57 566 57 587 c 0,11,12
 57 596 57 596 65.5 617.5 c 128,-1,13
 74 639 74 639 81 648 c 0,14,15
 94 664 94 664 120 707.5 c 128,-1,16
 146 751 146 751 168 779.5 c 128,-1,17
 190 808 190 808 206 808 c 0,18,19
 228 808 228 808 303.5 727 c 128,-1,20
 379 646 379 646 379 616 c 0,21,22
 379 599 379 599 371.5 588.5 c 128,-1,23
 364 578 364 578 353 578 c 0,0,1
EndSplineSet
EndChar

StartChar: underscore
Encoding: 95 95 74
Width: 598
Flags: W
HStem: -35 62<35.7936 295.928>
LayerCount: 3
Back
SplineSet
446 54 m 0x60
 542 54 539 49 539 34 c 0
 539 3 529 24 287 -4 c 0
 188 -16 128 -22 93 -22 c 0
 70 -22 58 -19 53 -14 c 0
 46 -7 43 -2 43 3 c 0
 43 9 51 13 68 14 c 0xa0
 86 14 393 43 401 51 c 1
 402 53 421 54 446 54 c 0x60
EndSplineSet
Fore
SplineSet
443 67 m 0
 527 67 552 66 552 37 c 0
 552 -14 534 12 289 -17 c 0
 185 -29 126 -35 92 -35 c 0
 55 -35 47 -28 37 -15 c 0
 33 -10 30 -4 30 3 c 1
 31 9 33 26 68 27 c 0
 98 28 372 54 395 62 c 1
 399 66 403 67 443 67 c 0
EndSplineSet
Validated: 1
Layer: 2
SplineSet
443 67 m 0,0,1
 511 67 511 67 531.5 62.5 c 128,-1,2
 552 58 552 58 552 37 c 0,3,4
 552 13 552 13 540 7.5 c 128,-1,5
 528 2 528 2 470.704115864 -1.16773543548 c 0,6,7
 374 -7 374 -7 289 -17 c 0,8,9
 133 -35 133 -35 92 -35 c 0,10,11
 52 -35 52 -35 37 -15 c 0,12,13
 30 -6 30 -6 30 3 c 0,14,15
 34 26 34 26 68 27 c 0,16,17
 97 28 97 28 238.5 42.5 c 128,-1,18
 380 57 380 57 395 62 c 0,19,20
 400 67 400 67 443 67 c 0,0,1
EndSplineSet
EndChar

StartChar: grave
Encoding: 96 96 75
Width: 420
Flags: W
HStem: 532 178
VStem: 99 173
LayerCount: 3
Back
SplineSet
112 673 m 0
 112 683 130 697 137 697 c 0
 142 697 259 592 259 565 c 0
 259 561 256 545 245 545 c 0
 217 545 112 659 112 673 c 0
EndSplineSet
Fore
SplineSet
246 532 m 0
 208 532 99 649 99 672 c 0
 99 689 121 710 137 710 c 0
 140 710 143 709 146 707 c 0
 156 700 272 601 272 565 c 1
 269 539 255 532 246 532 c 0
EndSplineSet
Validated: 1
Layer: 2
SplineSet
246 532 m 0,0,1
 219 532 219 532 159 592.5 c 128,-1,2
 99 653 99 653 99 672 c 0,3,4
 99 685 99 685 112 697.5 c 128,-1,5
 125 710 125 710 137 710 c 0,6,7
 141.5 710 141.5 710 146 707 c 0,8,9
 167 692 167 692 219.5 640 c 128,-1,10
 272 588 272 588 272 565 c 0,11,12
 268 532 268 532 246 532 c 0,0,1
EndSplineSet
EndChar

